<svg xmlns="http://www.w3.org/2000/svg" width="16.75" height="16.181" viewBox="0 0 16.75 16.181">
  <g id="Group_4907" data-name="Group 4907" transform="translate(-193.014 -848.331)">
    <path id="Path_10625" data-name="Path 10625" d="M208.188,141.822h-6.675v13.159h12.942v-5.9" transform="translate(-8 709.031)" fill="none" stroke="#51616a" stroke-linecap="round" stroke-linejoin="round" stroke-width="1"/>
    <path id="Path_10626" data-name="Path 10626" d="M207.123,149.106l7.462-7.462" transform="translate(-7.782 709.648)" fill="none" stroke="#51616a" stroke-linecap="round" stroke-width="1"/>
    <g id="Polygon_5" data-name="Polygon 5" transform="translate(204.841 849.746) rotate(45)" fill="#51616a" stroke-linecap="round" stroke-linejoin="round">
      <path d="M 6.162171840667725 3.00093674659729 L 4.961881637573242 3.00093674659729 L 1.772460905158368e-06 3.00093674659729 L -1.20028817653656 3.00093674659729 L -0.3549682199954987 2.148806810379028 L 2.125971794128418 -0.352133184671402 L 2.480941772460938 -0.7099632024765015 L 2.835911750793457 -0.352133184671402 L 5.316851615905762 2.148806810379028 L 6.162171840667725 3.00093674659729 Z" stroke="none"/>
      <path d="M 2.480941772460938 -3.099441528320312e-06 L 1.9073486328125e-06 2.50093674659729 L 4.961881637573242 2.50093674659729 L 2.480941772460938 -3.099441528320312e-06 M 2.480941772460938 -1.000003099441528 C 2.747551679611206 -1.000003099441528 3.003121852874756 -0.8935432434082031 3.190881729125977 -0.7042632102966309 L 5.671821594238281 1.796676874160767 C 5.956151962280273 2.083296775817871 6.040241718292236 2.512786865234375 5.884991645812988 2.88547682762146 C 5.72974157333374 3.258166790008545 5.365611553192139 3.500936985015869 4.961881637573242 3.500936985015869 L 1.9073486328125e-06 3.500936985015869 C -0.4037280082702637 3.500936985015869 -0.7678580284118652 3.258166790008545 -0.9231081008911133 2.88547682762146 C -1.078358173370361 2.512786865234375 -0.9942684173583984 2.083296775817871 -0.7099380493164062 1.796676874160767 L 1.771001815795898 -0.7042632102966309 C 1.958761692047119 -0.8935432434082031 2.214331865310669 -1.000003099441528 2.480941772460938 -1.000003099441528 Z" stroke="none" fill="#51616a"/>
    </g>
  </g>
</svg>
