<svg xmlns="http://www.w3.org/2000/svg" width="90.673" height="31.3" viewBox="0 0 90.673 31.3">
  <g id="Group_4737" data-name="Group 4737" transform="translate(0 0)">
    <g id="Group_3931" data-name="Group 3931" transform="translate(0 0)">
      <path id="Path_7908" data-name="Path 7908" d="M33.694,857.692a15.65,15.65,0,0,1,0-31.3H93.069a15.65,15.65,0,1,1,0,31.3Z" transform="translate(-18.046 -826.392)" fill="#3a4d57"/>
      <path id="Path_7909" data-name="Path 7909" d="M90.26,848.048H30.886a8.816,8.816,0,0,1-8.815-8.815h0a8.815,8.815,0,0,1,8.815-8.815H90.26a8.815,8.815,0,0,1,8.815,8.815h0A8.816,8.816,0,0,1,90.26,848.048Z" transform="translate(-15.237 -823.583)" fill="#ffcd4e"/>
      <path id="Path_7910" data-name="Path 7910" d="M93.417,830.83A8.818,8.818,0,0,1,85.3,843.09H25.927a8.8,8.8,0,0,1-3.443-.7,8.815,8.815,0,0,0,8.114,5.37H89.972a8.816,8.816,0,0,0,3.445-16.93Z" transform="translate(-14.949 -823.295)" fill="#e6e7e8" style="mix-blend-mode: multiply;isolation: isolate"/>
    </g>
  </g>
</svg>
