<svg xmlns="http://www.w3.org/2000/svg" width="20.445" height="20.445" viewBox="0 0 20.445 20.445">
  <g id="Group_4698" data-name="Group 4698" transform="translate(0 17)">
    <g id="Group_3677" data-name="Group 3677" transform="translate(0 -17)">
      <path id="Path_7637" data-name="Path 7637" d="M32.294,748.084a10.223,10.223,0,1,1,10.222-10.222A10.235,10.235,0,0,1,32.294,748.084Z" transform="translate(-22.071 -727.639)" fill="#e6e7e8" style="mix-blend-mode: multiply;isolation: isolate"/>
      <path id="Path_7638" data-name="Path 7638" d="M40.007,737.69a7.884,7.884,0,1,1-7.884-7.884A7.884,7.884,0,0,1,40.007,737.69Z" transform="translate(-21.899 -727.467)" fill="#51616a"/>
      <path id="Path_7639" data-name="Path 7639" d="M36.548,731.139a7.877,7.877,0,0,1-10.977,10.977,7.88,7.88,0,1,0,10.977-10.977Z" transform="translate(-21.794 -727.362)" fill="#e6e7e8" style="mix-blend-mode: multiply;isolation: isolate"/>
    </g>
  </g>
</svg>
