<svg xmlns="http://www.w3.org/2000/svg" width="81.007" height="6.075" viewBox="0 0 81.007 6.075">
  <g id="Group_4909" data-name="Group 4909" transform="translate(-688.041 -869.375)">
    <path id="Path_11671" data-name="Path 11671" d="M3,0H78a3,3,0,0,1,0,6H3A3,3,0,0,1,3,0Z" transform="translate(688.041 869.375)" fill="#51616a"/>
    <path id="Path_10633" data-name="Path 10633" d="M102.723,830.521a10.23,10.23,0,0,1-.163,2c-.21,1.422-1.981,2.263-7.02,2.263,0,0-63.905.037-68.475-.038s-4.235-.914-4.235-.914.62,1.867,3.259,1.731l72.206-.006c4.3.384,5.238-1.439,5.238-3.035A3.068,3.068,0,0,0,102.723,830.521Z" transform="translate(665.516 39.839)" fill="#e6e7e8" style="mix-blend-mode: multiply;isolation: isolate"/>
  </g>
</svg>
