<svg xmlns="http://www.w3.org/2000/svg" xmlns:xlink="http://www.w3.org/1999/xlink" width="890.905" height="587.608" viewBox="0 0 890.905 587.608">
  <defs>
    <linearGradient id="linear-gradient" x1="0.475" y1="0.934" x2="0.922" y2="1.061" gradientUnits="objectBoundingBox">
      <stop offset="0" stop-color="#b0b0b0"/>
      <stop offset="0.997" stop-color="#bdbdbd"/>
    </linearGradient>
  </defs>
  <path id="Path_11672" data-name="Path 11672" d="M.391,490.541Q-.306,582.8-1,675.066l750.529,3.9Q819.716,593.848,889.9,508.734c-48.176-14.341-120.288-37.442-205.7-71.471C515.774,370.157,507.967,345.151,445.147,345c-100.98-.243-124.989,67.157-301.6,115.653A1179.692,1179.692,0,0,1,.391,490.541Z" transform="translate(1 -91.357)" fill="#db5a38"/>
  <g id="Group_5200" data-name="Group 5200" transform="translate(24.152)">
    <g id="Group_4773" data-name="Group 4773" transform="translate(250.518 25.866)">
      <g id="Group_4772" data-name="Group 4772">
        <g id="Group_4758" data-name="Group 4758">
          <g id="Group_4757" data-name="Group 4757" transform="translate(0 33.034)">
            <g id="Group_4756" data-name="Group 4756">
              <path id="Path_9072" data-name="Path 9072" d="M310.527,408.911c12.429,7.179,32.657,7.14,45.165-.078s12.574-18.9.145-26.073-32.657-7.138-45.165.079S298.085,401.733,310.527,408.911Z" transform="translate(-177.116 -146.044)" fill="#e6ccc1"/>
              <path id="Path_9073" data-name="Path 9073" d="M368.208,391.21c-3.272,3.312-8.049,6.042-11.545,6.676-.5.04-.95.132-1.319.132a4.711,4.711,0,0,1-1.768-.778,7.455,7.455,0,0,0-1.319-.594,3.865,3.865,0,0,0-1-.409,8.41,8.41,0,0,0-1.544-.186c-.594,0-1.135,0-1.6-.04-1.187-.04-2.415-.04-3.589-.04-1.768-.092-3.5-.132-5.278-.185-6.993-.132-130.482-3.3-132.078-3.022l15.438-8.92c9.54,1.319,97.178,1.94,121.813,2.626,3.233,0,5.449.04,6.228.04h1.267a4.2,4.2,0,0,0,1.135.092,19.754,19.754,0,0,0,2.362-.092c.633,0,1.227-.04,1.86-.092a27.239,27.239,0,0,0,4.724-.95c.277-.092.633-.185.95-.317.633-.224,1.267-.449,1.86-.686a8.251,8.251,0,0,0,1.1-.449,4.827,4.827,0,0,0,.858-.224c.224-.04.409-.092.633-.132a.631.631,0,0,0,.369-.092h.317a3.5,3.5,0,0,1,.91,0,2.826,2.826,0,0,1,.95.185c.185.04.224.132.409.185C372.259,384.889,371.441,387.846,368.208,391.21Z" transform="translate(-207.168 -144.083)" fill="#c29f7c"/>
              <g id="Group_4755" data-name="Group 4755" transform="translate(86.979)">
                <g id="Group_4746" data-name="Group 4746" transform="translate(74.209 23.623)">
                  <path id="Path_9074" data-name="Path 9074" d="M369.267,278.125a11.085,11.085,0,0,1-5.08.884c-7.349-.726-1.663-14.013-.647-18.129.91-3.681,1.583-7.415,2.494-11.084,1.293-5.133,3.417-9.936,4.684-15.081a1.811,1.811,0,0,0,.04-.99.629.629,0,0,0-.778-.435,1.063,1.063,0,0,0-.383.383c-1.042,1.689-1.451,3.681-2.349,5.41a53.076,53.076,0,0,0-2.837,6.676c-1.768,4.842-3.259,9.776-4.618,14.752-3.563,13.01-11.11,25.505-17.984,37.09-1.715,2.875-3.338,5.819-4.882,8.788-2.3,4.46-6.241,10.424-6.716,15.438a75.927,75.927,0,0,0,.185,11.361c.172,2.929-.726,5.659-.95,8.588-.541,7.481.937,96.876,1.834,92.509,1.847-8.946,2.322-100.477,5.172-109.12,2.771-8.365,5.41-15.662,10.74-22.853,2.824-3.787,5.9-8.181,9.447-11.321,4.631-4.117,10.9-5.806,16.124-8.867,5.2-3.061,9.724-8.365,13.445-13.01,7.93-9.936,13.577-21.52,18.486-33.185,2.138-5.067,4.183-10.648,2.758-15.966-4.816,7.376-7.983,15.7-11.347,23.843s-7.046,16.322-12.72,23.077C380.47,270.34,374.783,275.921,369.267,278.125Z" transform="translate(-329.33 -219.963)" fill="#50381e"/>
                </g>
                <g id="Group_4747" data-name="Group 4747" transform="translate(74.209 36.926)">
                  <path id="Path_9075" data-name="Path 9075" d="M331.7,429.189l.119-1.425c.211-2.931-.739-88.762-.9-91.676a74.394,74.394,0,0,1-.2-11.374c.475-5,4.42-10.978,6.716-15.438,1.544-2.969,3.154-5.911,4.869-8.788,6.874-11.585,14.422-24.08,18-37.077,1.359-4.974,2.837-9.909,4.6-14.752.567-1.557,1.174-3.1,1.847-4.593,1.28-4.2,2.89-8.272,3.958-12.561a1.811,1.811,0,0,0,.04-.99.629.629,0,0,0-.778-.435,1.063,1.063,0,0,0-.383.383c-1.042,1.689-1.451,3.681-2.349,5.41a53.077,53.077,0,0,0-2.837,6.676c-1.768,4.842-3.259,9.777-4.618,14.752-3.563,13.01-11.11,25.505-17.984,37.09-1.715,2.876-3.338,5.82-4.882,8.789-2.3,4.46-6.241,10.422-6.716,15.436a75.922,75.922,0,0,0,.185,11.361c.172,2.93-.726,5.66-.95,8.59-.541,7.481.937,96.875,1.834,92.508C331.425,430.415,331.57,429.809,331.7,429.189Z" transform="translate(-329.33 -230.045)" fill="#50381e"/>
                </g>
                <g id="Group_4748" data-name="Group 4748" transform="translate(0.013 0.012)">
                  <path id="Path_9076" data-name="Path 9076" d="M298.155,272.56c2.6,1.61,5.159,2.085,7.217.145,1.874-1.743,1.953-4.75,1.6-7.086-.29-1.926-.9-3.8-1.293-5.726-1.676-8.194-3.708-16.243-5.555-24.5-2.428-10.94-4.763-22.009-4.46-33.264.33-.224.66.237.765.62q3.681,12.984,6.386,26.218a136.65,136.65,0,0,0,3.84,15.688c.792,2.428,1.478,4.948,2.4,7.336.765,1.992,1.214,4.143,1.926,6.175a119.531,119.531,0,0,0,5.133,12.667c2.045,4.249,4.249,8.431,6.149,12.746,2.586,5.819,5.911,10.635,9.078,16.15,2.507,4.354,6.716,10.147,7.4,15.134a75.972,75.972,0,0,1,.317,11.361c-.026,2.916.99,5.621,1.333,8.524.884,7.455,3.721,98.194,5.555,105.465-1.082-4.315-4.024-91.755-5.12-96.07a227.724,227.724,0,0,0-8.167-25.677c-3.14-8.233-6.1-15.411-11.743-22.365-2.982-3.668-6.267-7.9-9.936-10.886-3.549-2.89-8.075-4.011-11.888-6.386-3.76-2.336-6.756-5.595-9.619-8.92-7.534-8.774-15.425-18.38-16.375-29.912.185,2.4,3.444,6.2,4.816,8.088q3.919,5.443,7.838,10.859C287.6,261.543,292.969,269.341,298.155,272.56Z" transform="translate(-273.098 -202.068)" fill="#351c0b"/>
                </g>
                <g id="Group_4749" data-name="Group 4749">
                  <path id="Path_9077" data-name="Path 9077" d="M295.716,232.966a135.93,135.93,0,0,0,3.826,15.688c.8,2.441,1.491,4.948,2.4,7.349.765,1.992,1.214,4.143,1.926,6.188A123.258,123.258,0,0,0,309,274.846c2.032,4.249,4.249,8.431,6.149,12.733,2.573,5.819,5.911,10.635,9.078,16.15,2.494,4.354,6.69,10.147,7.4,15.121a76.011,76.011,0,0,1,.3,11.361,15.274,15.274,0,0,0,.224,2.7c1.135,3.681,2.217,7.4,3.18,11.215,1.082,4.315,4.024,91.742,5.12,96.07-1.834-7.283-4.671-98.01-5.555-105.465-.343-2.916-1.359-5.608-1.333-8.524a74.2,74.2,0,0,0-.317-11.361c-.686-4.974-4.9-10.78-7.4-15.134-3.167-5.515-6.479-10.331-9.078-16.15-1.9-4.315-4.1-8.5-6.149-12.746a119.408,119.408,0,0,1-5.133-12.667c-.713-2.032-1.161-4.2-1.926-6.175-.924-2.4-1.61-4.908-2.4-7.336a138.751,138.751,0,0,1-3.84-15.688q-2.692-13.221-6.386-26.218c-.106-.369-.435-.844-.765-.62a82.343,82.343,0,0,0,.277,8.84Q293.459,221.863,295.716,232.966Z" transform="translate(-267.638 -202.059)" fill="#351c0b"/>
                  <path id="Path_9078" data-name="Path 9078" d="M284.092,253.768c.765,1.069,2.111,3,3.8,5.133.515.62,1.042,1.214,1.557,1.821.937,1.082,1.887,2.164,2.863,3.193a24.054,24.054,0,0,0,4.2,3.457c2.613,1.61,5.172,2.085,7.231.158a6.157,6.157,0,0,0,1.715-4.077l-.066.066c-2.045,1.94-4.618,1.465-7.217-.145-5.185-3.219-10.556-11.018-12.429-13.6q-3.919-5.423-7.838-10.859c-1.372-1.887-4.631-5.7-4.816-8.088a34.559,34.559,0,0,0,4.6,14.092C279.817,247.857,281.942,250.813,284.092,253.768Z" transform="translate(-273.088 -192.87)" fill="#7e5e2a"/>
                </g>
                <g id="Group_4752" data-name="Group 4752" transform="translate(57.145 8.725)">
                  <g id="Group_4751" data-name="Group 4751">
                    <g id="Group_4750" data-name="Group 4750">
                      <path id="Path_9079" data-name="Path 9079" d="M341.2,448.827a2.556,2.556,0,0,1,.026.9,3.334,3.334,0,0,1-.343,1.188c-.066.172-.172.317-.251.488-1.689,2.784-6.756,4.671-12.508,4.46-5.819-.238-10.49-2.56-11.532-5.529a4.039,4.039,0,0,1-.2-1.267,11.5,11.5,0,0,1,1.24-2.4,18.993,18.993,0,0,0,1.108-1.847,9.339,9.339,0,0,0,.633-1.385,12.454,12.454,0,0,0,.435-3.825c.185-2.851.277-5.713.369-8.565.29-9.236.422-18.472.541-27.709q.238-17.872.37-35.757.158-18.288.3-36.562.119-15.062.317-30.11a28.727,28.727,0,0,1,.172-5.225c.238-1.174.831-2.23,1.069-3.417.409-2.032.66-4.117.976-6.162a55.44,55.44,0,0,0,.739-6.083c.3-6.531-1.742-13.049-1.108-19.554.145-1.465.422-2.929.66-4.381a65.777,65.777,0,0,0,.792-12.258c-.106-3.985-1.122-7.93-.607-11.862.158-1.465.33-2.9.541-4.328.185-1.438.4-2.876.633-4.328.211-1.412.475-2.863.739-4.3.5-2.758,1.069-5.515,1.742-8.22.2-.884.62-1.913,1.623-2.111a1.111,1.111,0,0,1,.449.066c3.365,1.174-1.174,18.472-1.61,21.441a49.828,49.828,0,0,0-.765,9.276,66.584,66.584,0,0,0,.963,7.389,108.434,108.434,0,0,1,1.293,19.937c-.158,5.608-.739,11.215-.33,16.81a33.374,33.374,0,0,0,1.808,8.946c.924,2.533,3.008,4.816,3.589,7.3.765,3.206-.04,7.574-.066,10.886-.026,3.642-.04,7.27-.026,10.912.013,8.339.158,16.7.646,25.03.726,11.361.752,81.754.488,87.441-.013.409-.026.831-.04,1.227-.04.369-.04.739-.053,1.214,0,.8.013,1.583.079,2.335a10.015,10.015,0,0,0,.237,1.755,9.521,9.521,0,0,0,1.6,3.853q.257.356.554.712a8.3,8.3,0,0,0,1.161,1.215,4.745,4.745,0,0,1,.726.739,3.363,3.363,0,0,1,.449.62,3.651,3.651,0,0,1,.237.462,1.821,1.821,0,0,1,.106.383C341.165,448.618,341.2,448.763,341.2,448.827Z" transform="translate(-316.397 -208.672)" fill="#422a19"/>
                    </g>
                  </g>
                </g>
                <g id="Group_4753" data-name="Group 4753" transform="translate(57.158 8.74)">
                  <path id="Path_9080" data-name="Path 9080" d="M331.16,209.923c-.079.251-.185.541-.238.792a175.817,175.817,0,0,0-3.84,22.932c-1.926,18.275-1.7,37.064-2.256,55.14-.818,27.682-.739,150.234-2.547,154.575a14.356,14.356,0,0,1-5.674,6.967,4.04,4.04,0,0,1-.2-1.267,11.493,11.493,0,0,1,1.24-2.4,19.169,19.169,0,0,0,1.108-1.847A8,8,0,0,0,319.8,440.1c.462-6.65.528-13.327.673-19.977q.317-15.873.449-31.746.2-18.268.33-36.536.139-17.16.29-34.332c.04-4.724.092-9.434.158-14.158.026-1.979.053-3.958.092-5.951.053-3.378,1.148-6.215,1.887-9.461a21.772,21.772,0,0,0,.356-4.816c-.079-11.057-1.029-22.114-.7-33.158.119-4.222.435-8.431.422-12.64-.013-3.259.818-6.426,1.227-9.685.185-1.438.4-2.876.633-4.328.211-1.412.475-2.863.739-4.3.5-2.758,1.069-5.515,1.742-8.22.2-.884.62-1.913,1.623-2.111a1.11,1.11,0,0,1,.449.066,3.525,3.525,0,0,1,.317.158,2.81,2.81,0,0,1,.29.277,3.214,3.214,0,0,1,.224.33C331.041,209.646,331.12,209.778,331.16,209.923Z" transform="translate(-316.407 -208.683)" fill="#351c0b"/>
                </g>
                <g id="Group_4754" data-name="Group 4754" transform="translate(67.042 8.78)">
                  <path id="Path_9081" data-name="Path 9081" d="M338.808,448.814a2.556,2.556,0,0,1,.026.9,3.334,3.334,0,0,1-.343,1.187,2.043,2.043,0,0,1-.277.462,11.562,11.562,0,0,1-1.768-.422c-.581-.238-1.135-.594-1.7-.871A16.861,16.861,0,0,1,331.683,448c-3.84-3.391-3.721-7.626-3.5-12.3.237-5.7-1.148-104.132-1.148-112.471-.013-14.3.343-28.593-.2-42.9-.581-15.517-1.346-31.1-2.177-46.709-.264-4.856-.515-9.711-.765-14.646.5-2.758,1.069-5.515,1.728-8.22.33-1.346,1.253-2.744,2.639-1.649s.119,3.233-.04,4.6c-.607,5.225.752,10.938,1.029,16.177.778,15.068-2.494,30.2-.844,45.192.343,3.061.884,6.109,1.346,9.157a257.466,257.466,0,0,1,2.81,37.38c.013,8.339,1.4,106.784,1.135,112.471-.013.409-.026.831-.04,1.227-.013.369-.04.739-.053,1.214,0,.8.013,1.583.079,2.335.066.581.119,1.174.237,1.755a9.521,9.521,0,0,0,1.6,3.853q.257.356.554.712a8.3,8.3,0,0,0,1.161,1.215,4.753,4.753,0,0,1,.726.739,3.368,3.368,0,0,1,.449.62,3.655,3.655,0,0,1,.237.462,1.817,1.817,0,0,1,.106.383A.528.528,0,0,1,338.808,448.814Z" transform="translate(-323.898 -208.714)" fill="#422a19"/>
                </g>
              </g>
            </g>
          </g>
          <path id="Path_9082" data-name="Path 9082" d="M390.551,226.705a6.821,6.821,0,0,1-4.077-6.742c.356-4.974-.884-6.03-.884-6.03s-3.4,6.452-3.3,7.93-.633,3.787,0,6.98,1.135,5.317,0,8.7-4.869,5.674-5.4,7.983-1.069,6.479-1.6,8.748-.884,5.806-3.193,9.527a95.345,95.345,0,0,0-4.737,9.1h1.887s1.6.66,4.79-4.13l3.193-4.79a18.634,18.634,0,0,1,1.715-3.549c1.122-1.768,5.027-6.914,5.027-6.914l3.668-4.737,2.89-6.281.884-5.133,3.787-7.231Z" transform="translate(-155.99 -165.232)" fill="#f2a90e"/>
          <path id="Path_9083" data-name="Path 9083" d="M376.02,260.788a18.636,18.636,0,0,1,1.715-3.549c1.122-1.768,5.027-6.914,5.027-6.914l2.4-3.1a87.407,87.407,0,0,1,8.537-20.491l-.211-.158c-.8,1.135-1.61,2.256-2.428,3.391-.449-2.032-.9-4.064-1.359-6.083a22.321,22.321,0,0,1-2.045,4.5,5.575,5.575,0,0,0-1.781-2.547v9.909a6.292,6.292,0,0,1-.409,2.718c-.554,1.135-1.729,1.808-2.626,2.692a6.892,6.892,0,0,0-2.032,5.014c-.528-.66-1.055-1.306-1.57-1.966a12.429,12.429,0,0,0-2.494,6.5,15.186,15.186,0,0,1-.317,3c-1.056,3.668-4.961,6.043-5.238,10.2a5.537,5.537,0,0,0,.713,2.982c.3-.383.607-.793.937-1.293Z" transform="translate(-154.772 -162.053)" fill="#f14821"/>
          <path id="Path_9084" data-name="Path 9084" d="M379.558,242.213c.013-1.531.8-2.758,1.148-4.2a28.08,28.08,0,0,0,.158-8.6c-.4-2.876,0-5.04,1.649-6.874a33.824,33.824,0,0,0,5.08-7.626c.29,2.744-.409,5.5-.528,8.273-.172,3.589-.04,8.326-1.491,11.281a25.554,25.554,0,0,1-2.824,4.473C382.395,239.376,379.558,241.9,379.558,242.213Z" transform="translate(-152.096 -164.919)" fill="#ffe678"/>
          <path id="Path_9085" data-name="Path 9085" d="M272.91,225.084s.778,12.152,2.124,14.818,1.992,1.359,3.787,3.84.831,4.236,2.243,6.188,1.161,2.876,3.365,3.774,1.966,1.94,3.365,3.853a19.988,19.988,0,0,1,2.375,4.79s5.357,4.671,6.373,6.149.831,1.663,2.784,2.362,6.043.62,6.043.62l2.481-2.982s-.871-2.824-1.5-3.338-.449-1.4-.99-1.926-4.618-4.262-5.146-4.618-10.054-4.922-10.054-4.922-3.431-6.083-3.615-7.323-.092-5.317-.449-8.339,2.481-12.152,1.689-14.369c-.383-1.069-7.983,10.358-8.167,10.938s-1.953-.831-1.953-.831l-2.124-7.1-5.317-11Z" transform="translate(-187.026 -164.679)" fill="#f2a90e"/>
          <path id="Path_9086" data-name="Path 9086" d="M295.226,264.811c1.016,1.478.831,1.663,2.784,2.362s6.043.62,6.043.62l.264-.317a28.648,28.648,0,0,0-4.13-5.753c-2.309-2.522-2.929-5.726-6.043-7.429-2.626-1.438-4.46-1.742-5.753-4.75-.132-.29-.211-.594-.317-.9-.8-1.465-1.992-3.721-2.547-5.067-1.1-.7-3.892-2.243-3.866-1.188-.066-3.906-.145-7.8-.211-11.7-.884,1.319-2.494,2.81-3.813,1.913a3.047,3.047,0,0,1-.91-1.267c-.66-1.387-1.333-2.758-1.992-4.143a29.149,29.149,0,0,0,.343,10.793,6.323,6.323,0,0,1,2.415,2.085c1.794,2.494.831,4.235,2.243,6.188s1.161,2.876,3.365,3.774,1.979,1.94,3.365,3.853a19.987,19.987,0,0,1,2.375,4.79S294.21,263.333,295.226,264.811Z" transform="translate(-185.697 -160.996)" fill="#f14821"/>
          <path id="Path_9087" data-name="Path 9087" d="M323.665,225.8s.079-8.669-.581-9.368.581-11.532.581-11.532l4.552-7.1,1.742,8.167s3.008,3.193,2.89,4.077-.779,11.361-.779,11.361,2.533,6.215,3.008,8.339,3.127,6.281,1,10.6-4.222,7.679-4.684,9.817.62,5.938.317,8.167-3.035,7.811-3.5,8.867a9.154,9.154,0,0,1-2.454,2.481,90.843,90.843,0,0,0,.422-9.3c-.2-2.4.515-1.7-.2-7.02s-2.771-8.154-2.89-11.968C322.966,237.532,323.665,225.8,323.665,225.8Z" transform="translate(-170.199 -170.385)" fill="#f2a90e"/>
          <path id="Path_9088" data-name="Path 9088" d="M328.467,261.153a11.249,11.249,0,0,0,.475-3.18c.251-4.526.488-9.117-.541-13.539a26.435,26.435,0,0,1-1.135-5.7,3.2,3.2,0,0,1,.33-1.649,6.618,6.618,0,0,1,1.6-1.49,5.918,5.918,0,0,0,1.979-5.608c-.172-.858-.554-1.676-.792-2.521a17.191,17.191,0,0,1-.475-3.852q-.317-6.927-.633-13.841c-.462,1.623-.91,3.246-1.372,4.856.04-.132-1.913-3.035-2.072-3.576-.343-1.135-.04-3.655-.792-4.42a24.174,24.174,0,0,0-2.111,4.011c-.026.62-.04,1.161-.026,1.623.4.435,1.108.567,1.623.963a2.579,2.579,0,0,1,.541,2.613,4,4,0,0,0,.013,2.744c.3.528.871.871,1.188,1.385a3.838,3.838,0,0,1,.158,2.8,14.268,14.268,0,0,1-1.5,4.71c-.449.739-1.029,1.412-1.412,2.19a5.347,5.347,0,0,0-.251.778c-.053,1.293-.106,2.6-.145,3.84q.138.732.317,1.425c.528,1.992,1.253,3.985,1.148,6.043a14.133,14.133,0,0,1-.317,2.1,33.272,33.272,0,0,1,1.7,6.676c.712,5.317,0,4.618.2,7.02a62.259,62.259,0,0,1-.237,7.059A8.874,8.874,0,0,0,328.467,261.153Z" transform="translate(-170.198 -167.564)" fill="#f14821"/>
          <path id="Path_9089" data-name="Path 9089" d="M290.619,202.132l-1.821,9.936s.831,9.342,2.89,13.656,1.1,6.9,2.045,11.295-.369,5.291,2.072,9.434A88.354,88.354,0,0,1,303,260.862c1.953,5.317,3.022,8.339,3.022,8.339s6.742-6.03,8.867-10.463,6.742-12.957,2.837-18.367-4.077-3.457-8.154-14.633-8.537-17.918-5.067-25.9,9.144-22.814,9.144-22.814-6.822,9.144-9.619,10.925-5.99,6.914-6.175,13.841.172,4.341-.528,8.286C296.6,214.008,290.619,202.132,290.619,202.132Z" transform="translate(-181.09 -177.023)" fill="#f2a90e"/>
          <path id="Path_9090" data-name="Path 9090" d="M311.082,231.916a6.463,6.463,0,0,1-1.122,2.533,2.234,2.234,0,0,1-2.494.765,55.67,55.67,0,0,0,.264-9.606,9.518,9.518,0,0,1-4.539,6.017c.475-2.9,1.663-8.4.343-11.123-.237-.5-.581-.95-.818-1.451-1.478-3.14.066-7.468,0-10.767-.145-7.613-.818-15.425,1.478-22.682-3.708,4.684-2.454,11.387-2.507,17.377a35.042,35.042,0,0,1-2.547,12.772c-.3-1.385-.594-2.784-.9-4.169-3.154,1.582-3.18,6-2.758,9.5-2.256-.013-3.972-2.283-4.209-4.526-.33-3.127,1.544-5.99,1.412-9a11.853,11.853,0,0,0-.224-1.755,44.326,44.326,0,0,0-1.926-5.885l-1.728,9.408c-.686,3.76,1.438,12.377,4.064,15.306,2.586,2.89,3.351,7.495,4.222,11.176.237.99.462,1.979.7,2.982a9.235,9.235,0,0,1-3.734-3.983,25.006,25.006,0,0,1,2.217,5.766A16.88,16.88,0,0,0,297.307,244c1.5,3.035,5.858,2.77,7.349,6.215,1.425,3.284-.9,6.768-.633,10.094.053.66,2.3,5.87,1.992,6.136a37.088,37.088,0,0,0,5.951-6.175c2.151-3.14,1.834-7.257,2.9-10.793a29.943,29.943,0,0,1,3.272-6.69c2.586-4.367.277-10.674-.237-15.728-.145,2.243-.277,4.486-.422,6.729a3.07,3.07,0,0,1-3.985,2.784C312.164,236.1,310.686,233.341,311.082,231.916Z" transform="translate(-181.128 -174.282)" fill="#f14821"/>
        </g>
        <g id="Group_4771" data-name="Group 4771" transform="translate(217.54 82.889)">
          <path id="Path_9091" data-name="Path 9091" d="M409.477,452.941c12.429,7.179,32.657,7.14,45.165-.078s12.574-18.9.145-26.074-32.657-7.138-45.165.079S397.035,445.763,409.477,452.941Z" transform="translate(-363.045 -181.833)" fill="#e6ccc1"/>
          <g id="Group_4768" data-name="Group 4768" transform="translate(0 8.227)">
            <g id="Group_4759" data-name="Group 4759" transform="translate(74.223 23.612)">
              <path id="Path_9092" data-name="Path 9092" d="M468.214,322.148a11.085,11.085,0,0,1-5.08.884c-7.349-.726-1.663-14.013-.646-18.129.91-3.681,1.583-7.415,2.494-11.084,1.293-5.133,3.417-9.936,4.684-15.081a1.858,1.858,0,0,0,.04-1,.621.621,0,0,0-.765-.435,1.063,1.063,0,0,0-.383.383c-1.042,1.689-1.451,3.68-2.349,5.41a53.058,53.058,0,0,0-2.837,6.676c-1.768,4.842-3.259,9.777-4.618,14.752-3.562,13.01-11.11,25.505-17.984,37.09-1.715,2.876-3.338,5.819-4.882,8.788-2.3,4.46-6.241,10.424-6.716,15.438a75.935,75.935,0,0,0,.185,11.361c.172,2.929-.726,5.661-.95,8.59-.541,7.481.937,96.875,1.834,92.508,1.847-8.946,2.322-100.477,5.172-109.12,2.771-8.365,5.41-15.662,10.74-22.853,2.824-3.787,5.9-8.181,9.447-11.321,4.631-4.117,10.9-5.806,16.124-8.867,5.2-3.061,9.724-8.365,13.445-13.01,7.943-9.936,13.577-21.52,18.486-33.184,2.138-5.067,4.183-10.648,2.758-15.966-4.816,7.376-7.983,15.7-11.347,23.843s-7.046,16.322-12.72,23.077C479.417,314.363,473.73,319.958,468.214,322.148Z" transform="translate(-428.29 -263.973)" fill="#50381e"/>
            </g>
            <g id="Group_4760" data-name="Group 4760" transform="translate(74.223 36.915)">
              <path id="Path_9093" data-name="Path 9093" d="M430.649,473.212c.04-.462.079-.95.119-1.425.211-2.929-.739-88.76-.9-91.676a74.379,74.379,0,0,1-.2-11.374c.475-5,4.42-10.978,6.716-15.438,1.544-2.969,3.154-5.911,4.869-8.788,6.874-11.585,14.422-24.08,18-37.077,1.359-4.974,2.837-9.909,4.6-14.752.567-1.557,1.174-3.1,1.847-4.592,1.28-4.2,2.89-8.273,3.958-12.561a1.858,1.858,0,0,0,.04-1,.621.621,0,0,0-.765-.435,1.064,1.064,0,0,0-.383.383c-1.042,1.689-1.451,3.681-2.349,5.41a53.062,53.062,0,0,0-2.837,6.676c-1.768,4.842-3.259,9.777-4.618,14.752-3.562,13.01-11.11,25.505-17.984,37.09-1.715,2.876-3.338,5.819-4.882,8.788-2.3,4.46-6.241,10.424-6.716,15.438a75.935,75.935,0,0,0,.185,11.361c.172,2.929-.726,5.661-.95,8.59-.541,7.481.937,96.875,1.834,92.507C430.372,474.439,430.517,473.832,430.649,473.212Z" transform="translate(-428.29 -274.056)" fill="#50381e"/>
            </g>
            <g id="Group_4761" data-name="Group 4761" transform="translate(0.013 0.013)">
              <path id="Path_9094" data-name="Path 9094" d="M397.1,316.58c2.6,1.61,5.172,2.085,7.217.145,1.86-1.742,1.953-4.75,1.6-7.086-.29-1.926-.9-3.8-1.293-5.727-1.676-8.194-3.708-16.243-5.555-24.5-2.428-10.938-4.763-22.009-4.46-33.264.33-.224.66.238.765.62q3.681,12.984,6.386,26.218a136.648,136.648,0,0,0,3.84,15.688c.792,2.428,1.478,4.948,2.4,7.336.765,1.992,1.214,4.143,1.926,6.175a119.429,119.429,0,0,0,5.133,12.667c2.045,4.249,4.249,8.431,6.149,12.746,2.586,5.819,5.911,10.635,9.078,16.15,2.507,4.354,6.716,10.147,7.4,15.134a75.969,75.969,0,0,1,.317,11.361c-.026,2.916.99,5.621,1.333,8.524.884,7.455,3.721,98.194,5.555,105.465-1.082-4.315-4.024-91.755-5.119-96.07a227.726,227.726,0,0,0-8.167-25.677c-3.14-8.233-6.1-15.411-11.743-22.365-2.982-3.668-6.267-7.9-9.936-10.886-3.549-2.89-8.075-4.011-11.888-6.386-3.76-2.335-6.756-5.595-9.619-8.92-7.534-8.774-15.424-18.38-16.375-29.912.185,2.4,3.444,6.2,4.816,8.088q3.919,5.443,7.838,10.859C386.549,305.563,391.919,313.361,397.1,316.58Z" transform="translate(-372.048 -246.088)" fill="#351c0b"/>
            </g>
            <g id="Group_4762" data-name="Group 4762">
              <path id="Path_9095" data-name="Path 9095" d="M394.666,276.986a136.014,136.014,0,0,0,3.826,15.688c.8,2.441,1.491,4.948,2.4,7.349.765,1.992,1.214,4.143,1.926,6.188a123.262,123.262,0,0,0,5.133,12.654c2.032,4.249,4.249,8.431,6.149,12.733,2.573,5.819,5.911,10.634,9.078,16.15,2.494,4.354,6.69,10.147,7.4,15.121a76.007,76.007,0,0,1,.3,11.361,15.278,15.278,0,0,0,.224,2.7c1.135,3.681,2.217,7.4,3.18,11.215,1.082,4.315,4.024,91.742,5.12,96.069-1.834-7.27-4.671-98.01-5.555-105.463-.343-2.917-1.359-5.608-1.333-8.525a74.2,74.2,0,0,0-.317-11.361c-.686-4.974-4.9-10.767-7.4-15.134-3.167-5.514-6.479-10.331-9.078-16.15-1.913-4.315-4.1-8.5-6.149-12.746a119.418,119.418,0,0,1-5.133-12.667c-.712-2.032-1.174-4.2-1.926-6.175-.924-2.4-1.61-4.908-2.4-7.336a138.77,138.77,0,0,1-3.84-15.688q-2.692-13.221-6.386-26.218c-.106-.369-.435-.844-.765-.62a82.344,82.344,0,0,0,.277,8.84Q392.409,265.884,394.666,276.986Z" transform="translate(-366.588 -246.078)" fill="#351c0b"/>
              <path id="Path_9096" data-name="Path 9096" d="M383.042,297.788c.765,1.069,2.111,3,3.8,5.133.515.607,1.042,1.214,1.557,1.821.937,1.082,1.887,2.164,2.863,3.193a24.053,24.053,0,0,0,4.2,3.457c2.613,1.61,5.172,2.085,7.231.158a6.154,6.154,0,0,0,1.715-4.077l-.066.066c-2.045,1.94-4.618,1.465-7.217-.145-5.185-3.219-10.556-11.018-12.429-13.6q-3.919-5.423-7.838-10.859c-1.372-1.887-4.631-5.7-4.816-8.088a34.559,34.559,0,0,0,4.6,14.092C378.767,291.877,380.892,294.833,383.042,297.788Z" transform="translate(-372.038 -236.889)" fill="#7e5e2a"/>
            </g>
            <g id="Group_4765" data-name="Group 4765" transform="translate(57.145 8.741)">
              <g id="Group_4764" data-name="Group 4764">
                <g id="Group_4763" data-name="Group 4763">
                  <path id="Path_9097" data-name="Path 9097" d="M440.167,492.858a2.279,2.279,0,0,1,.013.9,3.333,3.333,0,0,1-.343,1.188c-.066.172-.171.3-.251.488-1.689,2.783-6.756,4.671-12.508,4.46-5.819-.238-10.49-2.56-11.532-5.529a4.04,4.04,0,0,1-.2-1.267,11.5,11.5,0,0,1,1.24-2.4,19.155,19.155,0,0,0,1.108-1.847,10.993,10.993,0,0,0,.647-1.385,12.456,12.456,0,0,0,.435-3.826c.185-2.85.277-5.713.369-8.563.29-9.236.422-18.472.541-27.709q.237-17.872.369-35.757.158-18.288.3-36.562.119-15.062.317-30.11a28.719,28.719,0,0,1,.172-5.225c.237-1.174.831-2.23,1.069-3.417.409-2.032.66-4.117.976-6.162a55.434,55.434,0,0,0,.739-6.083c.3-6.531-1.742-13.05-1.108-19.554.145-1.465.422-2.929.66-4.381a65.775,65.775,0,0,0,.792-12.258c-.106-3.985-1.122-7.93-.607-11.862.158-1.465.33-2.9.541-4.328.185-1.438.4-2.876.633-4.328.211-1.412.475-2.863.739-4.3.5-2.758,1.069-5.515,1.742-8.22.2-.884.62-1.913,1.623-2.111a1.11,1.11,0,0,1,.449.066c3.365,1.174-1.174,18.472-1.61,21.441a49.834,49.834,0,0,0-.765,9.276,66.584,66.584,0,0,0,.963,7.389,108.436,108.436,0,0,1,1.293,19.937c-.158,5.608-.739,11.215-.33,16.81a33.375,33.375,0,0,0,1.808,8.946c.924,2.533,3.008,4.816,3.589,7.3.752,3.206-.04,7.574-.066,10.886-.026,3.642-.04,7.27-.026,10.912.013,8.339.158,16.7.647,25.03.726,11.361.752,81.754.488,87.441-.013.409-.026.831-.04,1.227-.04.369-.04.739-.053,1.214,0,.8.013,1.583.079,2.335a10.009,10.009,0,0,0,.237,1.755,9.681,9.681,0,0,0,1.583,3.853c.185.237.356.475.554.713a8.364,8.364,0,0,0,1.161,1.214,4.808,4.808,0,0,1,.726.739,3.364,3.364,0,0,1,.449.62,3.828,3.828,0,0,1,.237.462,1.817,1.817,0,0,1,.106.383A1.263,1.263,0,0,0,440.167,492.858Z" transform="translate(-415.347 -252.703)" fill="#422a19"/>
                </g>
              </g>
            </g>
            <g id="Group_4766" data-name="Group 4766" transform="translate(57.158 8.741)">
              <path id="Path_9098" data-name="Path 9098" d="M430.11,253.957c-.079.251-.185.541-.237.792a175.808,175.808,0,0,0-3.84,22.932c-1.926,18.275-1.7,37.064-2.256,55.14-.818,27.682-.739,150.234-2.547,154.575a14.356,14.356,0,0,1-5.674,6.967,4.043,4.043,0,0,1-.2-1.267,11.5,11.5,0,0,1,1.24-2.4,19.168,19.168,0,0,0,1.108-1.847,13.225,13.225,0,0,0,.647-1.385,10.847,10.847,0,0,0,.409-3.325c.462-6.65.528-13.327.673-19.99q.317-15.873.449-31.746.2-18.268.33-36.536.139-17.16.29-34.332c.04-4.724.092-9.434.158-14.158.026-1.979.053-3.958.092-5.951.053-3.378,1.148-6.215,1.887-9.461a21.769,21.769,0,0,0,.356-4.816c-.079-11.057-1.029-22.114-.7-33.158.119-4.222.435-8.431.422-12.64-.013-3.259.818-6.426,1.227-9.685.185-1.438.4-2.876.633-4.328.211-1.412.475-2.863.739-4.3.5-2.758,1.069-5.515,1.742-8.22.2-.884.62-1.913,1.623-2.111a1.11,1.11,0,0,1,.449.066,3.512,3.512,0,0,1,.317.158,2.821,2.821,0,0,1,.29.277,1.914,1.914,0,0,1,.224.33C429.991,253.666,430.07,253.811,430.11,253.957Z" transform="translate(-415.357 -252.703)" fill="#351c0b"/>
            </g>
            <g id="Group_4767" data-name="Group 4767" transform="translate(67.055 8.795)">
              <path id="Path_9099" data-name="Path 9099" d="M437.768,492.845a2.278,2.278,0,0,1,.013.9,3.333,3.333,0,0,1-.343,1.188,2.372,2.372,0,0,1-.277.462,11.56,11.56,0,0,1-1.768-.422c-.581-.237-1.135-.6-1.7-.871a16.862,16.862,0,0,1-3.061-2.073c-3.84-3.391-3.721-7.626-3.5-12.3.238-5.7-1.148-104.132-1.135-112.471-.026-14.3.343-28.591-.2-42.894-.581-15.517-1.346-31.1-2.177-46.71-.264-4.854-.515-9.711-.765-14.646.5-2.758,1.069-5.515,1.728-8.22.33-1.346,1.254-2.744,2.639-1.649s.119,3.233-.04,4.6c-.607,5.226.752,10.938,1.029,16.177.779,15.068-2.494,30.2-.844,45.192.343,3.074.884,6.109,1.346,9.157a257.471,257.471,0,0,1,2.81,37.38c.013,8.34,1.4,106.784,1.135,112.471-.013.409-.026.831-.04,1.227-.013.369-.04.739-.053,1.214,0,.8.013,1.585.079,2.335.066.581.119,1.174.237,1.755a9.682,9.682,0,0,0,1.583,3.853c.185.237.356.475.554.713a8.369,8.369,0,0,0,1.161,1.215,4.743,4.743,0,0,1,.726.739,3.364,3.364,0,0,1,.449.62,3.656,3.656,0,0,1,.238.462,1.821,1.821,0,0,1,.106.383C437.715,492.621,437.755,492.779,437.768,492.845Z" transform="translate(-422.858 -252.744)" fill="#422a19"/>
            </g>
          </g>
          <path id="Path_9100" data-name="Path 9100" d="M403.3,316.385c.726-3.1.119-6.333-.567-9.434-4.922-22.484-13.788-44.189-15.873-67.108,4.038,2.151,5.885,6.822,7.429,11.136.607,1.715,1.227,3.444,1.834,5.159.673,1.887,2.019,4.183,3.985,3.774a3.7,3.7,0,0,0,1.821-1.187,16.641,16.641,0,0,0,3.312-4.882,50.291,50.291,0,0,0,8.511,31.6,7.459,7.459,0,0,1,3.325.237,5.608,5.608,0,0,0,1.333,5.093,16.81,16.81,0,0,0,4.341,3.325,1.615,1.615,0,0,1,.9.99,1.593,1.593,0,0,1-.224.871c-1.57,2.9-5.12,5-5,8.3a6.706,6.706,0,0,0,.976,2.956,16.73,16.73,0,0,0,4.209,4.961,7.575,7.575,0,0,1,1.676,1.57c1.108,1.676.3,3.958-.924,5.542s-2.863,2.916-3.615,4.763c-1.069,2.613-.145,5.621,1.161,8.115s3.022,4.869,3.629,7.627a3,3,0,0,1,.04,1.451c-.435,1.557-2.665,1.847-3.444,3.259A100.339,100.339,0,0,0,403.4,312.717Z" transform="translate(-367.304 -239.843)" fill="#f14821"/>
          <g id="Group_4769" data-name="Group 4769" transform="translate(24.542 20.438)">
            <path id="Path_9101" data-name="Path 9101" d="M420.712,333.345c-1.016-1.808-2.507-3.4-2.89-5.436-.3-1.6.079-3.444-.95-4.7-.633-.778-1.689-1.148-2.217-1.992-.673-1.069-.264-2.481.343-3.589a9.767,9.767,0,0,0,1.583-3.4,5.038,5.038,0,0,1,.251-1.728,2.938,2.938,0,0,1,.9-.95c1.253-.99,2.507-1.979,3.747-2.956l-5.581-.04a2.068,2.068,0,0,1-.99-.172c-.475-.264-.66-.858-.884-1.359-.369-.8-.99-1.465-1.385-2.256a2.413,2.413,0,0,1-.026-2.507c.66-.858,2.1-.95,2.507-1.94.475-1.148-.884-2.2-2.058-2.6s-2.652-.924-2.771-2.164a3.289,3.289,0,0,1,.963-2.138,16.683,16.683,0,0,0,3.193-7.732c-1.227-.066-1.583,1.676-2.507,2.481-1.082.937-2.863.369-3.747-.752a9.713,9.713,0,0,1-1.438-3.985c-1.531-6.611-5.436-12.878-5.449-19.528a11.364,11.364,0,0,1-2.19,5.344,15.58,15.58,0,0,0-2.9-5.819c-1.016-1.478-2.032-2.956-3.061-4.433a22.385,22.385,0,0,1,1.61,4.922,47.344,47.344,0,0,1,.594,11.018,10.942,10.942,0,0,0,.5,4.631c1.372,3.325,5.753,4.71,6.954,8.1.712,2.006.132,4.209.066,6.333-.132,5.054,2.52,9.922.132,14.659a100.3,100.3,0,0,1,17.087,29.728,4.916,4.916,0,0,1,1.86-1.6A12.085,12.085,0,0,0,420.712,333.345Z" transform="translate(-389.836 -254.164)" fill="#f2a90e"/>
            <path id="Path_9102" data-name="Path 9102" d="M393.95,260.136a16.075,16.075,0,0,0-3.312-4.8C391.746,256.93,392.842,258.539,393.95,260.136Z" transform="translate(-390.638 -255.333)" fill="#f2a90e"/>
            <path id="Path_9103" data-name="Path 9103" d="M399.318,263.2a10.9,10.9,0,0,0,.092-2.072A15.548,15.548,0,0,0,399.318,263.2Z" transform="translate(-387.865 -253.48)" fill="#f2a90e"/>
          </g>
          <path id="Path_9104" data-name="Path 9104" d="M428.975,241.043c2.283,5.054,2.072,10.727,1.768,16.137-.317,5.634-.937,10.991-3.114,16.255a11.541,11.541,0,0,0,7.178-7.929,105.972,105.972,0,0,1-1.729,16.955,5.982,5.982,0,0,0,4-2.481,31.234,31.234,0,0,1-1.359,11.466c-.686,2.177-1.623,4.315-1.781,6.584-.145,2.019.237,4.3-1.069,5.845a7.362,7.362,0,0,0,7.178-3.907,95.57,95.57,0,0,1-5.555,18.222,2.537,2.537,0,0,0-.3,1.333,3.322,3.322,0,0,0,.3.858,12.142,12.142,0,0,1,.066,9.9,20.85,20.85,0,0,0-1,2.3,12.688,12.688,0,0,0-.2,4.183,39.093,39.093,0,0,1-1.794,13.683c-.7-3.378-1.438-6.742-2.1-10.12-.528-2.758.383-5.555-.581-8.286-.673-1.887-2.138-3.378-3.088-5.146-2.23-4.143-1.306-9.21-.185-13.788s2.335-9.487.607-13.866c-.7-1.756-1.834-3.3-2.692-4.976a17.722,17.722,0,0,1-1.636-11.242,55.4,55.4,0,0,1,1.913-6.439c1.926-6.188,1.438-11.915,1.821-18.235A74.724,74.724,0,0,1,428.975,241.043Z" transform="translate(-356.206 -239.46)" fill="#f14821"/>
          <g id="Group_4770" data-name="Group 4770" transform="translate(65.373 10.674)">
            <path id="Path_9105" data-name="Path 9105" d="M430.848,294.695A8.421,8.421,0,0,0,431.9,292C431.495,292.874,431.217,293.811,430.848,294.695Z" transform="translate(-418.623 -233.854)" fill="#f2a90e"/>
            <path id="Path_9106" data-name="Path 9106" d="M426.4,247.933c0,3.523-.158,7.046-.3,10.569A36.267,36.267,0,0,0,426.4,247.933Z" transform="translate(-420.141 -247.933)" fill="#f2a90e"/>
            <path id="Path_9107" data-name="Path 9107" d="M433.214,328.606c-1.662-2.454.792-6.03-.541-8.669-.369-.726-1-1.308-1.4-2.019-.95-1.689-.449-3.8.132-5.634.66-2.073,1.544-4.065,2.388-6.071a8.926,8.926,0,0,1-3.655,3.577c-.343-2.058.62-4.077,1.056-6.122a26.177,26.177,0,0,0,.435-3.932q.455-8.016.924-16.018a13.356,13.356,0,0,1-1.86,4.935c-.871-3.906-1.728-7.824-2.6-11.73a8.828,8.828,0,0,1-2.956,4c.369-3.628-.317-6.835.739-10.3a45.939,45.939,0,0,0,1.544-10.806c.079-1.28.053-2.573.106-3.866a14.2,14.2,0,0,1-1.623,4.328c-.185.29-.383.581-.567.858a39.864,39.864,0,0,1-1.544,10.688,61.076,61.076,0,0,0-1.913,6.439,17.636,17.636,0,0,0,1.636,11.242c.858,1.676,1.992,3.22,2.692,4.974,1.728,4.381.5,9.289-.607,13.868s-2.032,9.645.185,13.788c.95,1.768,2.428,3.259,3.088,5.146.963,2.731.053,5.529.581,8.286.633,3.259,1.346,6.505,2.019,9.751a51.414,51.414,0,0,1,1.649-7.838,37.834,37.834,0,0,0,.224-5.463,19.5,19.5,0,0,1,.053-3.167C433.359,328.764,433.267,328.7,433.214,328.606Z" transform="translate(-421.583 -245.374)" fill="#f2a90e"/>
          </g>
          <path id="Path_9108" data-name="Path 9108" d="M445.834,326.561c.792-.449,1.742-.831,2.124-1.663a3.273,3.273,0,0,0,.224-1.188c.264-4.988-.844-10.16.752-14.9,1.913-5.674,7.336-9.566,9.461-15.147a29.109,29.109,0,0,0,1.359-6.1q1.762-11.855,3.523-23.7c1.28,4.684,3.985,9.395,2.718,14.092-.435,1.61-1.319,3.074-1.623,4.71-.422,2.256.277,4.539.647,6.8a23.9,23.9,0,0,1-3.233,16.256,12.635,12.635,0,0,0-2.177,4.407c-.185,1.122.013,2.269-.106,3.4-.356,3.365-3.391,5.779-4.658,8.92a2.379,2.379,0,0,0-.2,1.61,5.92,5.92,0,0,0,.488.9c.91,1.742-.581,3.866-2.375,4.671s-3.826.8-5.674,1.478c-1.729.632-4.473,4.6-5.093,1.86C441.48,330.651,444.013,327.59,445.834,326.561Z" transform="translate(-349.711 -232.166)" fill="#f14821"/>
          <path id="Path_9109" data-name="Path 9109" d="M465.009,289.113c-.369-2.258-1.069-4.552-.647-6.8.317-1.636,1.2-3.1,1.623-4.71,1.135-4.2-.91-8.419-2.269-12.614-.937,2.072-.647,5.7-.752,7.231a202.874,202.874,0,0,0-.224,23.011c-.158-1.293-.33-2.573-.488-3.866-1.385,1.676-1.174,4.183-2.23,6.083-1.082,1.966-3.51,3.351-3.5,5.595a4.388,4.388,0,0,1-.383-2.89,14.614,14.614,0,0,1-2.665,7.231c-1.24,1.623-3.061,3.536-2.124,5.357-.409-.831-.8-1.663-1.214-2.494-.119,4.71-.237,9.408-.356,14.118a6.662,6.662,0,0,1-.739,3.523,6.116,6.116,0,0,1-3.285,2.151,10.277,10.277,0,0,0-3.6,1.689c-.053.04-.079.106-.132.145a3.608,3.608,0,0,0-.053.739c.62,2.744,3.365-1.24,5.093-1.86,1.834-.673,3.892-.673,5.674-1.478s3.272-2.929,2.375-4.671a5.906,5.906,0,0,1-.488-.9,2.361,2.361,0,0,1,.2-1.61c1.267-3.14,4.3-5.555,4.658-8.92.119-1.135-.079-2.283.106-3.4a12.635,12.635,0,0,1,2.177-4.407A23.833,23.833,0,0,0,465.009,289.113Z" transform="translate(-349.702 -231.809)" fill="#f2a90e"/>
          <path id="Path_9110" data-name="Path 9110" d="M492.338,253.363a54.984,54.984,0,0,0-6.373,10.068,37.176,37.176,0,0,0-3.536,8.115c-1.254,4.854-.528,10.119-2.2,14.844a7.623,7.623,0,0,1-2.006,3.231c-.488.424-1.056.753-1.5,1.227-1.61,1.7-1.055,4.407-.818,6.729a12.184,12.184,0,0,1-1.32,7.481c4-2.875,6.333-7.508,8.1-12.113s3.167-9.408,5.924-13.5c2.52-3.721,6.333-7.283,4.988-12.139a21.735,21.735,0,0,1-.818-5.858C492.76,260.158,491.625,254.194,492.338,253.363Z" transform="translate(-339.28 -235.524)" fill="#f14821"/>
          <path id="Path_9111" data-name="Path 9111" d="M493.154,265.387a21.734,21.734,0,0,1-.818-5.858c0-.028-.013-.079-.013-.107a26.264,26.264,0,0,1-4.315,11.019,30.623,30.623,0,0,0-2.362-5.291c-.779,3.892.356,8.009-.673,11.836-1.055,3.972-4.354,7.389-4.077,11.479a4.668,4.668,0,0,1-.066,2.138c-.277.66-1.253,1.069-1.715.526-.488-.554-.383-1.834-1.1-1.689.541,2.494-1.148,3.563-1.478,5.806-.29,1.992-.818,4.117-.488,6.149a29.525,29.525,0,0,0,6.175-10.358c1.768-4.592,3.167-9.408,5.924-13.5.752-1.122,1.623-2.23,2.441-3.365a11.264,11.264,0,0,1,.977-2.428,16.972,16.972,0,0,0,1.728-3.193A7.217,7.217,0,0,0,493.154,265.387Z" transform="translate(-338.843 -233.588)" fill="#f2a90e"/>
        </g>
      </g>
    </g>
    <g id="Group_4774" data-name="Group 4774" transform="translate(0 237.93)">
      <circle id="Ellipse_58" data-name="Ellipse 58" cx="23.064" cy="23.064" r="23.064" transform="translate(166.943 74.813)" fill="#cecece"/>
      <circle id="Ellipse_59" data-name="Ellipse 59" cx="23.064" cy="23.064" r="23.064" transform="translate(168.091 99.236)" fill="#b0b0b0"/>
      <circle id="Ellipse_60" data-name="Ellipse 60" cx="23.064" cy="23.064" r="23.064" transform="translate(179.518 96.241)" fill="#b0b0b0"/>
      <circle id="Ellipse_61" data-name="Ellipse 61" cx="23.065" cy="23.065" r="23.065" transform="translate(132.149 82.433) rotate(-67.276)" fill="#cecece"/>
      <circle id="Ellipse_62" data-name="Ellipse 62" cx="23.064" cy="23.064" r="23.064" transform="translate(104.651 73.177)" fill="#b0b0b0"/>
      <circle id="Ellipse_63" data-name="Ellipse 63" cx="23.064" cy="23.064" r="23.064" transform="translate(131.674 88.786)" fill="#b0b0b0"/>
      <path id="Path_9112" data-name="Path 9112" d="M165.224,420.376a18.433,18.433,0,1,1-18.433-18.433A18.434,18.434,0,0,1,165.224,420.376Z" transform="translate(18.173 -317.233)" fill="#cecece"/>
      <path id="Path_9113" data-name="Path 9113" d="M180.7,419.716a18.433,18.433,0,1,1-18.433-18.434A18.434,18.434,0,0,1,180.7,419.716Z" transform="translate(23.118 -317.445)" fill="#cecece"/>
      <circle id="Ellipse_64" data-name="Ellipse 64" cx="16.797" cy="16.797" r="16.797" transform="translate(73.631 29.437)" fill="#cecece"/>
      <circle id="Ellipse_65" data-name="Ellipse 65" cx="23.064" cy="23.064" r="23.064" transform="translate(113.795 60.853)" fill="#cecece"/>
      <path id="Path_9114" data-name="Path 9114" d="M58.717,351.458a6.215,6.215,0,1,1-6.215-6.215A6.217,6.217,0,0,1,58.717,351.458Z" transform="translate(-8.045 -335.347)" fill="#cecece"/>
      <circle id="Ellipse_66" data-name="Ellipse 66" cx="7.574" cy="7.574" r="7.574" transform="translate(13.186 46.629)" fill="#cecece"/>
      <path id="Path_9115" data-name="Path 9115" d="M56.593,373.46a2.8,2.8,0,1,1-2.8-2.8A2.8,2.8,0,0,1,56.593,373.46Z" transform="translate(-6.54 -327.226)" fill="#cecece"/>
      <path id="Path_9116" data-name="Path 9116" d="M52.923,340.54a2.8,2.8,0,1,1-2.8-2.8A2.8,2.8,0,0,1,52.923,340.54Z" transform="translate(-7.713 -337.743)" fill="#cecece"/>
      <path id="Path_9117" data-name="Path 9117" d="M26.4,367.386a4.714,4.714,0,1,1-2.639-6.122A4.719,4.719,0,0,1,26.4,367.386Z" transform="translate(-17.304 -330.336)" fill="#cecece"/>
      <path id="Path_9118" data-name="Path 9118" d="M107.132,350.6a7.877,7.877,0,1,1-7.877-7.877A7.872,7.872,0,0,1,107.132,350.6Z" transform="translate(6.359 -336.152)" fill="#cecece"/>
      <path id="Path_9119" data-name="Path 9119" d="M75.839,367.2a8.84,8.84,0,1,1-8.84-8.84A8.841,8.841,0,0,1,75.839,367.2Z" transform="translate(-4.253 -331.156)" fill="#cecece"/>
      <path id="Path_9120" data-name="Path 9120" d="M58.309,390.482a8.84,8.84,0,1,1-8.84-8.839A8.841,8.841,0,0,1,58.309,390.482Z" transform="translate(-9.853 -323.719)" fill="#cecece"/>
      <circle id="Ellipse_67" data-name="Ellipse 67" cx="23.064" cy="23.064" r="23.064" transform="translate(67.363 54.203)" fill="#b0b0b0"/>
      <path id="Path_9121" data-name="Path 9121" d="M110.6,392.03a18.657,18.657,0,1,1-18.657-18.657A18.656,18.656,0,0,1,110.6,392.03Z" transform="translate(0.58 -326.36)" fill="#cecece"/>
      <circle id="Ellipse_68" data-name="Ellipse 68" cx="16.916" cy="16.916" r="16.916" transform="translate(45.83 46.247)" fill="#cecece"/>
      <circle id="Ellipse_69" data-name="Ellipse 69" cx="23.064" cy="23.064" r="23.064" transform="translate(100.416 33.553)" fill="#cecece"/>
    </g>
    <g id="Group_4776" data-name="Group 4776" transform="translate(96.041)">
      <g id="Group_4775" data-name="Group 4775" transform="translate(196.146 157.404)">
        <path id="Path_9122" data-name="Path 9122" d="M304.616,312.51c-.092-.29-9.342-29.345-65.868-30.268l.092-5.529c60.959.99,70.723,32.921,71.106,34.28Z" transform="translate(-238.748 -276.713)" fill="#939393"/>
      </g>
      <path id="Path_9123" data-name="Path 9123" d="M192.528,276.243A141.939,141.939,0,0,0,177.236,291.4c-4.513,5.4-8.5,11.189-10.688,17.549a29.5,29.5,0,0,0,.079,19.554c.858,3.325,2.8,6.241,4.5,9.355,1.821,3.035,4.288,5.674,6.32,8.788a67.482,67.482,0,0,1-8.458-7.138c-2.335-2.917-4.948-5.741-6.347-9.409a30.264,30.264,0,0,1-1.293-22.932,48.875,48.875,0,0,1,12.786-18.723A62.667,62.667,0,0,1,192.528,276.243Z" transform="translate(-67.857 -119.46)" fill="#e6e6e6"/>
      <path id="Path_9124" data-name="Path 9124" d="M218.648,466.046c-6.254,3.206-16.427,3.18-22.721-.04s-6.333-8.431-.066-11.625,16.427-3.18,22.721.04S224.9,462.839,218.648,466.046Z" transform="translate(-57.797 -63.314)" fill="#b0b0b0"/>
      <path id="Path_9125" data-name="Path 9125" d="M331.821,380.4s28.1-163.429-5.555-192.655L107,234.32l70.631,94.737c27.366,37.723,46.749,83.5,46.313,128.331l-5.872,87.23,31.68,1.979s61.157-99.382,79.59-156.845C330.449,386.309,331.821,380.4,331.821,380.4Z" transform="translate(-84.691 -147.732)" fill="url(#linear-gradient)"/>
      <path id="Path_9126" data-name="Path 9126" d="M304.4,264.643c-46.326,23.7-121.681,23.579-168.3-.264S89.247,202,135.573,178.3s121.681-23.579,168.3.264S350.738,240.946,304.4,264.643Z" transform="translate(-86.613 -156.403)" fill="#919191"/>
      <path id="Path_9127" data-name="Path 9127" d="M293.391,259c-41.827,21.388-109.845,21.283-151.936-.238s-42.3-56.328-.475-77.716,109.845-21.283,151.936.238S335.218,237.616,293.391,259Z" transform="translate(-83.813 -154.973)" fill="#a4a4a4"/>
      <path id="Path_9128" data-name="Path 9128" d="M249.816,236.309c-22.207,11.361-58.32,11.308-80.672-.132s-22.457-29.912-.251-41.26,58.32-11.308,80.672.132S272.023,224.948,249.816,236.309Z" transform="translate(-70.216 -148.151)" fill="#919191"/>
      <path id="Path_9129" data-name="Path 9129" d="M309.119,185.486a33.941,33.941,0,0,1,8.1,17.087,29.737,29.737,0,0,1-3.8,19.172,50.136,50.136,0,0,1-12.574,14.91,84.273,84.273,0,0,1-16.1,10.569,143.007,143.007,0,0,1-73.837,14.158,141.375,141.375,0,0,1-36.919-7.943c-11.756-4.381-23.3-10.384-31.971-19.9-4.367-4.552-7.653-11.031-7.2-17.839.647-6.782,4.618-12.6,9.329-16.889,9.7-8.563,21.863-13.168,34.069-16.124a101.9,101.9,0,0,1,38-1.689,82.924,82.924,0,0,1,18.829,5.054,42.843,42.843,0,0,1,16.915,11.928,18.5,18.5,0,0,1,4.3,11.756,18.789,18.789,0,0,1-4.618,11.651c-5.12,5.951-11.545,9.065-17.866,11.361a68.012,68.012,0,0,1-39.65,1.491c-6.492-1.94-13.261-4.565-18.657-11.031a14.423,14.423,0,0,1-3.061-6.571,13.2,13.2,0,0,1,1.056-7.758,19.612,19.612,0,0,1,8.986-8.55,43.3,43.3,0,0,1,20.267-4.4c6.808.238,13.643,1.412,20.029,5.608a16.676,16.676,0,0,1,4.394,4.42,8.842,8.842,0,0,1,.99,7.9c-2.2,5.093-6.149,6.518-9.395,7.758a28.661,28.661,0,0,1-20.359-.9,13.213,13.213,0,0,1-4.618-3.4,6.211,6.211,0,0,1-1.544-3.338,5.494,5.494,0,0,1,.99-3.787c3-3.589,6.571-3.932,9.9-4.275a15.675,15.675,0,0,1,9.724,2.52,5.108,5.108,0,0,1,1.821,2.283,3.028,3.028,0,0,1-.7,3.1,7.7,7.7,0,0,1-4.645,1.979l-.2-1.069a6.275,6.275,0,0,0,3.47-2.032c.633-.937.026-1.531-1.122-2.283a12.942,12.942,0,0,0-8.022-1.016c-2.613.4-5.634,1.768-6.347,3.259-.185.686-.158.515.5,1.294a8.036,8.036,0,0,0,2.956,1.715,22.551,22.551,0,0,0,15.715-.713c2.335-.9,4.394-2.771,4.381-3.6.04-.344-.04-.317-.369-.859a8.807,8.807,0,0,0-2.23-1.9c-8.563-4.8-21.9-4.024-30.519.884a10.073,10.073,0,0,0-4.143,3.972c-.251,1.042-.369,1.306.818,2.837,2.573,3.088,7.732,5.5,12.957,6.782a60.1,60.1,0,0,0,33.026-1.042c5.225-1.649,10.226-4.209,13.247-7.587,3-3.5,3.167-6.452.475-10.2-6.175-7.785-17.905-12.4-29.173-14.752a103.836,103.836,0,0,0-35.348-.963c-11.664,2.058-23.711,5.41-32.775,13.063-4.526,3.708-7.838,8.84-8.471,14.4-.435,5.634,2.415,11,6.518,15.2,8.233,8.551,19.713,13.419,31.205,16.508a140.544,140.544,0,0,0,35.533,4.671,186.809,186.809,0,0,0,35.6-2.586A153.931,153.931,0,0,0,281.12,239.65c10.648-4.869,20.9-11.413,27.352-20.848a26.864,26.864,0,0,0,5.093-15.94c-.092-5.766-2.243-11.453-5.291-16.731Z" transform="translate(-75.817 -150.225)" fill="#c9c9c9"/>
      <path id="Path_9130" data-name="Path 9130" d="M337.388,232.653a37.9,37.9,0,0,1,2.7,33.594c-4.579,11.044-13.815,19.462-23.882,24.819-10.147,5.515-21.164,8.537-31.984,11.545-10.872,2.956-21.85,5.436-32.907,7.64a222.723,222.723,0,0,1-33.659,4.077,150.469,150.469,0,0,1-34.108-1.953c-11.255-2.177-22.391-6.056-32.023-12.588-9.461-6.518-17.549-16.1-19.581-27.484l.541-.092c3.708,10.529,12.047,18.565,21.336,23.961,9.342,5.581,20.029,8.511,30.757,10.437,21.652,3.681,44.044,2.665,66.237.409a191.835,191.835,0,0,0,32.921-6.07A115.108,115.108,0,0,0,313.9,287.213c9.183-5.82,17.6-13.063,22.207-22.683,4.658-9.527,4.724-21.177.792-31.575Z" transform="translate(-76.721 -133.385)" fill="#e6e6e6"/>
      <path id="Path_9131" data-name="Path 9131" d="M269.164,162.953a301.717,301.717,0,0,0-79.313,0c-25.98,3.549-52.132,11.281-72.359,27.418-9.87,7.93-18,18.565-18.684,30.334-.726,11.69,5.529,23.13,14.343,31.944,8.656,9.157,19.818,16.071,31.614,21.428a133.868,133.868,0,0,0,37.829,10.45l-.026.871c-26.825,1.412-54.718-7.666-75.526-26.587a62.573,62.573,0,0,1-12.759-17.153,39.606,39.606,0,0,1,4.011-41.985,68.535,68.535,0,0,1,14.936-14.818c22.325-16.572,49.572-23.447,76.12-26.231a304.425,304.425,0,0,1,79.973,3.47Z" transform="translate(-90.092 -157.419)" fill="#ededed"/>
      <path id="Path_9132" data-name="Path 9132" d="M307.022,190.133a54.708,54.708,0,0,1,3.088,38.317c-3.826,12.9-13.366,23.579-24.291,30.889-2.56,2.19-5.529,3.629-8.405,5.251-2.9,1.544-5.7,3.444-8.735,4.71-6.135,2.243-12.165,5.212-18.6,6.347-6.426,1.161-12.746,2.863-19.238,3.193-6.479.475-12.97.66-19.422.541l-.106-.831c6.162-2.126,12.284-3.947,18.433-5.463,3.088-.714,6.083-1.7,9.078-2.706l9-2.745a73.91,73.91,0,0,0,8.84-2.956l8.827-2.969c2.969-.937,5.647-2.441,8.5-3.642,2.784-1.319,5.713-2.454,8.167-4.275,10.582-6.122,19.766-15.174,24.027-26.7a52.272,52.272,0,0,0,.079-36.589Z" transform="translate(-51.368 -146.968)" fill="#e3e3e3"/>
      <path id="Path_9133" data-name="Path 9133" d="M311.908,302.223c2.547,9.658-.95,19.289-7.151,25.807-6.188,6.637-14.3,10.4-22.352,13.288a129.256,129.256,0,0,1-25.043,5.212c-8.431,1.135-16.929,1.267-25.373,1.6,8.431-.792,16.876-1.385,25.175-2.956a127.923,127.923,0,0,0,24.291-6.439c7.626-3.206,15.081-7.285,20.175-13.419,5.185-5.872,7.257-14.436,5.054-21.245Z" transform="translate(-44.762 -111.16)" fill="#9d9d9d"/>
      <path id="Path_9134" data-name="Path 9134" d="M195.32,385.408c-3.919,3.853-6.8,8.708-5.027,11.689,1.319,3.285,5.792,6.228,9.962,9.092,4.169,3.022,8.7,6.332,13.7,8.4a50.205,50.205,0,0,0,15.741,3.787c10.7.7,21.415,1.517,30.559-1.424a21.37,21.37,0,0,0,11.413-6.835c2.824-3.391,3.668-8.458,2.243-13.815l.712-.422a15.775,15.775,0,0,1,2.731,17.457c-2.758,6.149-8.642,10.094-14.422,12.06a41.4,41.4,0,0,1-17.72,1.491,43.193,43.193,0,0,1-8.484-1.438,53.05,53.05,0,0,1-8.075-2.652c-2.678-.831-5.212-2.045-7.811-3.008s-5.238-1.755-7.838-2.678c-5.251-1.676-10.925-2.494-16.229-4.948a28.46,28.46,0,0,1-7.481-4.842,42.548,42.548,0,0,1-3.18-3.668,14.357,14.357,0,0,1-2.072-4.908,10.653,10.653,0,0,1,3.035-9.843,16.159,16.159,0,0,1,7.838-4.262Z" transform="translate(-60.16 -84.83)" fill="#e6e6e6"/>
      <path id="Path_9135" data-name="Path 9135" d="M194.416,434.453c-2.322,2.058-4.249,4.644-4.513,7.3-.145,2.639,1.4,5.092,3.5,7.059a39.519,39.519,0,0,0,7.112,5.423c2.507,1.754,5.265,3.14,7.851,4.973a43.977,43.977,0,0,1-8.893-3.127,31.885,31.885,0,0,1-8.022-5.317c-2.19-2.322-4.407-5.661-3.642-9.354A10.531,10.531,0,0,1,194.416,434.453Z" transform="translate(-58.926 -68.917)" fill="#898989"/>
      <path id="Path_9136" data-name="Path 9136" d="M188.688,348.583a19.07,19.07,0,0,0,2.982,14.211c2.758,4.09,6.808,7.151,11.1,9.579A82.252,82.252,0,0,0,231.1,381.4a105.606,105.606,0,0,0,29.9.648,60.32,60.32,0,0,0,14.527-3.457,29.312,29.312,0,0,0,12.377-8.233c-5.924,8.6-16.718,12.047-26.587,13.787a100.558,100.558,0,0,1-30.625-.012c-10.081-1.676-20.161-4.5-29-9.936-4.341-2.758-8.458-6.175-11.149-10.688A18.916,18.916,0,0,1,188.688,348.583Z" transform="translate(-58.845 -96.35)" fill="#e6e6e6"/>
      <path id="Path_9137" data-name="Path 9137" d="M289.212,193.74a201.557,201.557,0,0,0-41.787-14.593,170.865,170.865,0,0,0-43.661-4.948,133.812,133.812,0,0,0-42.539,8.392c-13.736,4.724-26.086,12.72-37.75,21.929l-.4-.4a94.214,94.214,0,0,1,36.114-26.693c14.065-6.03,29.53-7.838,44.532-7.666a174.059,174.059,0,0,1,44.387,6.69,204.318,204.318,0,0,1,41.365,16.8Z" transform="translate(-79.554 -153.479)" fill="#848484"/>
      <path id="Path_9138" data-name="Path 9138" d="M306.194,298.145c-6.729,11.1-18.406,18.578-30.559,22.654a99.152,99.152,0,0,1-18.895,3.775c-6.36.765-12.706,1.292-19.093,1.833-12.746.951-25.769.7-38.383-2.281-12.522-2.812-24.951-8.934-32.987-19.093l.211-.185c9.263,8.867,21.2,13.788,33.422,16.493,12.284,2.718,24.977,3.5,37.684,3.563,12.68.026,25.624-1.359,37.288-6.256,11.69-4.42,22.932-10.833,31.087-20.636Z" transform="translate(-65.754 -112.505)" fill="#e6e6e6"/>
      <path id="Path_9139" data-name="Path 9139" d="M183.468,335.163c1.953,4.737,5.713,8.273,9.7,11.136a67.51,67.51,0,0,0,13.023,7.059,110.573,110.573,0,0,0,28.738,7.376,124.119,124.119,0,0,0,29.767.264,83.156,83.156,0,0,0,14.58-3.008,30.52,30.52,0,0,0,12.918-7.336c-2.639,4.486-7.3,7.468-11.9,9.856a66.567,66.567,0,0,1-14.91,4.763,98.967,98.967,0,0,1-31.126.963,90.469,90.469,0,0,1-29.873-8.959,57.8,57.8,0,0,1-12.931-8.893C187.822,344.663,184.233,340.362,183.468,335.163Z" transform="translate(-60.262 -100.637)" fill="#929292"/>
    </g>
    <g id="Group_4778" data-name="Group 4778" transform="translate(378.545 362.223)">
      <g id="Group_4777" data-name="Group 4777" transform="translate(0 0)">
        <path id="Path_9140" data-name="Path 9140" d="M324.181,469.172l-11.743-9.751,11.888-11.229,11.281,10.12Z" transform="translate(-301.566 -426.751)" fill="#969595"/>
        <path id="Path_9141" data-name="Path 9141" d="M315.07,464.612,304.2,442.657l12.667-10.714,10.661,20.913Z" transform="translate(-304.198 -431.943)" fill="#c2c1be"/>
        <path id="Path_9142" data-name="Path 9142" d="M323.892,453.384,313.8,431.943l9.619,9.236L335.173,463.5Z" transform="translate(-301.131 -431.943)" fill="#d3d1ce"/>
        <path id="Path_9143" data-name="Path 9143" d="M318.412,459.3,308.318,437.17l2.533-2.138,10.4,21.652Z" transform="translate(-302.882 -430.955)" fill="#8ac53f"/>
        <path id="Path_9144" data-name="Path 9144" d="M310.972,456.521l-1.214-2.573,12.06-11.176,1.267,2.837Z" transform="translate(-302.422 -428.483)" fill="#8ac53f"/>
      </g>
      <path id="Path_9145" data-name="Path 9145" d="M323.224,463.051l-6.676-5.542,3.431-3.259,3.325,2.863,3.272-3.061,3.14,2.824Z" transform="translate(-300.253 -424.879)" fill="#2194d2"/>
    </g>
    <g id="Group_4785" data-name="Group 4785" transform="translate(325.939 358.779)">
      <path id="Path_9146" data-name="Path 9146" d="M311.757,498.281c.7,3.061,7.877,8.735,9.276,10.292.9.99.343,3.417-.99,4.274-1.425.912-3.84.872-5.713.582-2.177-.33-4.763-2.639-7.653-4.433s-6.439-3.035-6.439-4.684c.145-2.256.765-3.972,1.227-7.218l4.156,1.122Z" transform="translate(-252.856 -407.685)" fill="#48453e" fill-rule="evenodd"/>
      <g id="Group_4784" data-name="Group 4784">
        <g id="Group_4779" data-name="Group 4779" transform="translate(14.844 76.314)">
          <path id="Path_9147" data-name="Path 9147" d="M275.578,495.193a.921.921,0,0,0,.026.185v.026a1.092,1.092,0,0,0,.092.172.028.028,0,0,0,.026.026,1.574,1.574,0,0,0,.145.157c.04.026.079.066.119.094s.066.053.106.079l14.224,8.272v2.284l-14.224-8.273c-.013,0-.013-.013-.026-.013a.567.567,0,0,1-.092-.066.937.937,0,0,1-.119-.092.013.013,0,0,1-.013-.014.928.928,0,0,1-.106-.117l-.026-.026c-.013-.013-.013-.026-.026-.026a.069.069,0,0,1-.026-.053c-.013-.04-.04-.066-.053-.106v-.04c0-.026-.013-.04-.013-.066s-.013-.066-.013-.106v-.013h0Z" transform="translate(-275.578 -484.606)" fill="#1f4351" fill-rule="evenodd"/>
          <path id="Path_9148" data-name="Path 9148" d="M287.312,504.71a.838.838,0,0,0,.092.026,3.186,3.186,0,0,0,.62.065h.026a2.671,2.671,0,0,0,.66-.079h.026a2.531,2.531,0,0,0,.581-.224l16.493-9.527a.887.887,0,0,0,.528-.739v2.283a.886.886,0,0,1-.528.739l-16.493,9.527a1.609,1.609,0,0,1-.264.119c-.066.026-.145.053-.224.079-.04.013-.079.013-.106.026H288.7c-.013,0-.04.013-.053.013a.776.776,0,0,1-.185.026c-.053.013-.119.013-.172.026s-.119.013-.172.013h-.185c-.066,0-.132-.013-.2-.013s-.158-.013-.224-.026a.31.31,0,0,1-.106-.026.334.334,0,0,1-.092-.026l-.158-.04a1.735,1.735,0,0,1-.4-.172V504.5A2.474,2.474,0,0,0,287.312,504.71Z" transform="translate(-272.006 -484.913)" fill="#294f5e" fill-rule="evenodd"/>
          <path id="Path_9149" data-name="Path 9149" d="M276.117,497a.783.783,0,0,0-.013,1.478l14.224,8.273a2.8,2.8,0,0,0,2.547,0l16.493-9.527c.7-.409.713-1.069.013-1.478l-14.224-8.273a2.8,2.8,0,0,0-2.547,0Z" transform="translate(-275.576 -487.17)" fill="#376375" fill-rule="evenodd"/>
        </g>
        <g id="Group_4780" data-name="Group 4780" transform="translate(29.094 46.116)">
          <path id="Path_9150" data-name="Path 9150" d="M288.7,465.985l-.528,11.11.554,29.675,2.942-1.7-.04-40.785Z" transform="translate(-285.806 -464.283)" fill="#041d33" fill-rule="evenodd"/>
          <path id="Path_9151" data-name="Path 9151" d="M289.268,465.978l-2.89-1.676.04,40.785,2.876,1.676Z" transform="translate(-286.378 -464.276)" fill="#08355c" fill-rule="evenodd"/>
        </g>
        <g id="Group_4781" data-name="Group 4781" transform="translate(15.609 12.351)">
          <path id="Path_9152" data-name="Path 9152" d="M297.728,476.549l2.335-1.359.013-1.808-2.349,1.372Z" transform="translate(-269.267 -427.61)" fill="#367c83" fill-rule="evenodd"/>
          <path id="Path_9153" data-name="Path 9153" d="M277.4,460.037a6.2,6.2,0,0,1-.053-.846l2.335-1.359a6.379,6.379,0,0,0,.079.99c.013.053.013.106.026.158a8.258,8.258,0,0,0,.224.95c.013.026.013.066.026.092a8.056,8.056,0,0,0,.383,1.029.041.041,0,0,0,.013.026,8.163,8.163,0,0,0,.515,1.016.046.046,0,0,0,.013.026c.185.317.4.633.607.924.026.026.04.053.066.079a8.842,8.842,0,0,0,.633.765c.053.053.092.106.145.158.172.185.356.343.541.515.079.079.172.158.251.224a6.5,6.5,0,0,0,.818.567l-2.335,1.359a6.5,6.5,0,0,1-.818-.567,2.024,2.024,0,0,1-.251-.224c-.132-.106-.251-.211-.383-.33a2.114,2.114,0,0,0-.172-.172c-.053-.053-.092-.106-.145-.158s-.106-.119-.158-.172c-.119-.145-.238-.277-.356-.435l-.119-.158c-.026-.026-.04-.053-.066-.079-.04-.053-.079-.106-.106-.145a3.836,3.836,0,0,1-.251-.383,3.436,3.436,0,0,1-.224-.37.046.046,0,0,0-.013-.026.041.041,0,0,0-.013-.025c-.053-.106-.119-.2-.172-.3s-.132-.251-.185-.369-.106-.224-.158-.343a.041.041,0,0,0-.013-.026c0-.013,0-.013-.013-.025l-.158-.4c-.053-.132-.106-.277-.145-.409-.026-.066-.04-.132-.066-.2a.844.844,0,0,1-.026-.092.744.744,0,0,0-.053-.158c-.04-.172-.092-.33-.119-.5a2.433,2.433,0,0,1-.053-.3c-.013-.053-.013-.106-.026-.158A.7.7,0,0,1,277.4,460.037Z" transform="translate(-275.778 -432.578)" fill="#041d33" fill-rule="evenodd"/>
          <path id="Path_9154" data-name="Path 9154" d="M277.348,465.089l2.335-1.359.066-24.357-2.335,1.359Z" transform="translate(-275.778 -438.475)" fill="#041d33" fill-rule="evenodd"/>
          <path id="Path_9155" data-name="Path 9155" d="M277.778,440.949l2.335-1.359-1.57-.9-2.335,1.359Z" transform="translate(-276.142 -438.693)" fill="#46aab4" fill-rule="evenodd"/>
          <path id="Path_9156" data-name="Path 9156" d="M282.963,463.513l22.576,13.023-2.349,1.372-22.563-13.036Z" transform="translate(-274.73 -430.763)" fill="#46aab4" fill-rule="evenodd"/>
          <path id="Path_9157" data-name="Path 9157" d="M276.224,439.723l1.57.91-.066,24.344a9.525,9.525,0,0,0,4.328,7.495l22.576,13.036V487.3l-22.576-13.036a13.032,13.032,0,0,1-5.9-10.2Z" transform="translate(-276.158 -438.363)" fill="#08355c" fill-rule="evenodd"/>
        </g>
        <g id="Group_4782" data-name="Group 4782" transform="translate(7.481 33.419)">
          <path id="Path_9158" data-name="Path 9158" d="M270.008,466.983a.8.8,0,0,0,.053.29c0,.013,0,.026.013.026a1.235,1.235,0,0,0,.132.264.069.069,0,0,1,.026.053,1.854,1.854,0,0,0,.224.237c.053.053.132.092.2.145s.106.078.172.117l21.89,12.721.013,3.51-21.89-12.72c-.013-.015-.026-.015-.04-.026-.053-.04-.092-.066-.145-.106a2.258,2.258,0,0,1-.185-.145l-.013-.013a1.137,1.137,0,0,1-.172-.185c-.013-.013-.026-.026-.026-.04s-.026-.026-.026-.04-.04-.053-.053-.079l-.079-.158c0-.013,0-.013-.013-.026s0-.026-.013-.026a.248.248,0,0,1-.026-.106.644.644,0,0,1-.013-.158v-.026h0Z" transform="translate(-269.995 -450.723)" fill="#1f4351" fill-rule="evenodd"/>
          <path id="Path_9159" data-name="Path 9159" d="M288.043,481.627a.468.468,0,0,0,.132.025,4.587,4.587,0,0,0,.963.106h.04a4.175,4.175,0,0,0,1-.119.048.048,0,0,0,.04-.013,3.62,3.62,0,0,0,.9-.343L316.5,466.65a1.394,1.394,0,0,0,.818-1.147l.013,3.51a1.411,1.411,0,0,1-.818,1.147L291.13,484.819c-.119.066-.264.132-.4.2-.106.04-.224.079-.33.119-.053.013-.119.026-.172.04a.048.048,0,0,0-.04.013.189.189,0,0,0-.079.026c-.092.013-.185.04-.277.053a1.975,1.975,0,0,1-.264.026,1.949,1.949,0,0,1-.277.013h-.29a2.157,2.157,0,0,1-.3-.026,3.023,3.023,0,0,1-.356-.053l-.158-.04a.467.467,0,0,0-.132-.026c-.079-.025-.158-.04-.238-.065a3.053,3.053,0,0,1-.607-.265l-.013-3.51A3.984,3.984,0,0,0,288.043,481.627Z" transform="translate(-264.503 -451.195)" fill="#294f5e" fill-rule="evenodd"/>
          <path id="Path_9160" data-name="Path 9160" d="M270.816,469.772a1.2,1.2,0,0,0-.013,2.269l21.89,12.72a4.319,4.319,0,0,0,3.919,0L322,470.114a1.2,1.2,0,0,0,.013-2.269l-21.89-12.72a4.36,4.36,0,0,0-3.919,0Z" transform="translate(-269.998 -454.66)" fill="#376375" fill-rule="evenodd"/>
        </g>
        <g id="Group_4783" data-name="Group 4783">
          <path id="Path_9161" data-name="Path 9161" d="M267.376,444.935l.04,17.694a2.087,2.087,0,0,0,.04.422v.013a1.762,1.762,0,0,0,.106.343h0a1.452,1.452,0,0,0,.119.185,1.053,1.053,0,0,0,.3.29l-3.035-1.755a.909.909,0,0,1-.3-.29l-.04-.04c-.026-.04-.053-.092-.079-.132h0a.909.909,0,0,1-.04-.106c-.013-.04-.026-.066-.04-.106s-.013-.066-.026-.106a.049.049,0,0,0-.013-.04V461.3a.049.049,0,0,0-.013-.04c0-.026-.013-.066-.013-.092s-.013-.066-.013-.092v-.185h0l-.04-17.694Z" transform="translate(-264.328 -424.904)" fill="#1f4351" fill-rule="evenodd"/>
          <path id="Path_9162" data-name="Path 9162" d="M268.554,446.592h0a3.205,3.205,0,0,0-.33.409h0a2.947,2.947,0,0,0-.277.434c0,.013-.013.013-.013.026a4.99,4.99,0,0,0-.224.462h0a3.055,3.055,0,0,0-.172.488h0a2.153,2.153,0,0,0-.106.488h0a2.885,2.885,0,0,0-.04.475l-3.035-1.755v-.185a.225.225,0,0,1,.013-.092c0-.026.013-.066.013-.092s.013-.066.013-.092h0c0-.026.013-.066.013-.092a.31.31,0,0,1,.026-.106c.013-.04.013-.066.026-.106s.013-.066.026-.106.013-.053.026-.079h0v-.013a.31.31,0,0,0,.026-.106c.013-.04.026-.066.04-.106s.026-.065.04-.092a.643.643,0,0,1,.04-.092.224.224,0,0,0,.026-.066h0a.013.013,0,0,1,.013-.013c.013-.026.026-.066.04-.092s.04-.066.053-.106.04-.079.066-.119.04-.079.066-.119c0-.013.013-.013.013-.025s.013-.014.013-.026a2.3,2.3,0,0,1,.145-.237c.04-.053.079-.119.119-.172h0a.729.729,0,0,1,.092-.119c.026-.026.053-.066.079-.092s.053-.066.079-.092l.079-.079.013-.014v-.013l.066-.066.079-.078.079-.079a.519.519,0,0,1,.092-.079l.04-.04.013-.014c.013-.013.026-.025.04-.025a.558.558,0,0,1,.092-.066c.026-.026.053-.04.079-.066a.273.273,0,0,1,.079-.053c.026-.013.053-.04.079-.053a.046.046,0,0,1,.026-.013L291.7,429.6c.026-.013.04-.025.066-.038l.079-.04.079-.04.079-.04a.171.171,0,0,1,.079-.026h.013a.079.079,0,0,1,.053-.013c.026-.014.053-.014.079-.026a.168.168,0,0,1,.079-.013c.026,0,.053-.014.079-.014a.119.119,0,0,0,.066-.013h.237c.04,0,.079.013.119.013h0c.04.014.092.026.132.04a.888.888,0,0,1,.158.079l3.035,1.755a.77.77,0,0,0-.29-.106h0a.975.975,0,0,0-.33-.013H295.5a2.064,2.064,0,0,0-.369.079h0a1.777,1.777,0,0,0-.4.185l-25.373,14.647a3.589,3.589,0,0,0-.4.276l-.013.014A.927.927,0,0,0,268.554,446.592Z" transform="translate(-264.318 -429.332)" fill="#376375" fill-rule="evenodd"/>
          <path id="Path_9163" data-name="Path 9163" d="M268.594,445.555l25.373-14.647c1.082-.633,1.966-.117,1.979,1.123l.04,17.694a4.306,4.306,0,0,1-1.966,3.391l-25.373,14.646c-1.082.633-1.966.119-1.979-1.122l-.04-17.694A4.361,4.361,0,0,1,268.594,445.555Z" transform="translate(-263.593 -428.915)" fill="#294f5e" fill-rule="evenodd"/>
        </g>
      </g>
      <path id="Path_9164" data-name="Path 9164" d="M304.3,503.3c.7,3.061,7.877,8.735,9.276,10.29.9.99.343,3.417-.99,4.275-1.425.91-3.84.871-5.713.581-2.177-.33-4.763-2.639-7.653-4.432s-6.439-3.035-6.439-4.684c.145-2.256.778-3.972,1.227-7.218l4.156,1.122Z" transform="translate(-255.239 -406.081)" fill="#615d54" fill-rule="evenodd"/>
    </g>
    <g id="Group_4792" data-name="Group 4792" transform="translate(447.237 344.371)">
      <g id="Group_4791" data-name="Group 4791" transform="translate(0 0)">
        <g id="Group_4786" data-name="Group 4786" transform="translate(11.149 76.328)">
          <path id="Path_9165" data-name="Path 9165" d="M394.286,484.273a.889.889,0,0,1-.026.185v.026a1.086,1.086,0,0,1-.092.172.028.028,0,0,1-.026.026,1.576,1.576,0,0,1-.145.158c-.04.026-.079.066-.119.092s-.066.053-.106.079l-14.224,8.273v2.283l14.224-8.273c.013,0,.013-.013.026-.013a.554.554,0,0,0,.092-.066.929.929,0,0,0,.119-.092.013.013,0,0,0,.013-.013.854.854,0,0,0,.106-.119l.026-.026c.013-.013.013-.026.026-.026a.069.069,0,0,0,.026-.053c.013-.04.04-.066.053-.106v-.04c0-.026.013-.04.013-.066s.013-.066.013-.106v-.013h0Z" transform="translate(-359.967 -473.701)" fill="#1f4351" fill-rule="evenodd"/>
          <path id="Path_9166" data-name="Path 9166" d="M383.735,493.8a.628.628,0,0,1-.092.025,3.187,3.187,0,0,1-.62.066H383a2.733,2.733,0,0,1-.66-.079h-.026a2.527,2.527,0,0,1-.581-.224l-16.493-9.526a.887.887,0,0,1-.528-.739V485.6a.886.886,0,0,0,.528.739l16.493,9.527a1.61,1.61,0,0,0,.264.119c.066.026.145.053.224.079.04.013.079.013.106.026h.026c.013,0,.04.013.053.013a.776.776,0,0,0,.185.026c.053.013.119.013.172.026s.119.013.172.013h.185c.066,0,.132-.013.2-.013s.158-.013.224-.026a.309.309,0,0,0,.106-.026.335.335,0,0,0,.092-.026l.158-.04a1.733,1.733,0,0,0,.4-.172v-2.283A2.473,2.473,0,0,1,383.735,493.8Z" transform="translate(-364.708 -474.005)" fill="#294f5e" fill-rule="evenodd"/>
          <path id="Path_9167" data-name="Path 9167" d="M398.5,486.094a.783.783,0,0,1,.013,1.478l-14.224,8.273a2.8,2.8,0,0,1-2.547,0l-16.493-9.527c-.7-.409-.712-1.069-.013-1.478l14.224-8.273a2.8,2.8,0,0,1,2.547,0Z" transform="translate(-364.706 -476.261)" fill="#376375" fill-rule="evenodd"/>
        </g>
        <g id="Group_4787" data-name="Group 4787" transform="translate(25.373 46.128)">
          <path id="Path_9168" data-name="Path 9168" d="M378.457,455.061l.528,11.123-.554,29.661-2.942-1.689.04-40.785Z" transform="translate(-375.488 -453.372)" fill="#041d33" fill-rule="evenodd"/>
          <path id="Path_9169" data-name="Path 9169" d="M377.744,455.055l2.89-1.662-.04,40.771-2.876,1.676Z" transform="translate(-374.776 -453.366)" fill="#08355c" fill-rule="evenodd"/>
        </g>
        <g id="Group_4788" data-name="Group 4788" transform="translate(13.907 12.35)">
          <path id="Path_9170" data-name="Path 9170" d="M369.147,465.639l-2.335-1.359-.013-1.808,2.349,1.359Z" transform="translate(-366.798 -416.687)" fill="#367c83" fill-rule="evenodd"/>
          <path id="Path_9171" data-name="Path 9171" d="M390.522,449.117a6.18,6.18,0,0,0,.053-.844l-2.336-1.359a6.4,6.4,0,0,1-.079.99c-.013.053-.013.1-.026.157a8.272,8.272,0,0,1-.224.951c-.013.025-.013.065-.026.092a8.208,8.208,0,0,1-.383,1.029.037.037,0,0,1-.013.025,8.079,8.079,0,0,1-.515,1.016.046.046,0,0,1-.013.026c-.185.317-.4.633-.607.924-.026.026-.04.053-.066.079a8.872,8.872,0,0,1-.633.765c-.053.053-.092.106-.145.158-.172.185-.356.343-.541.515-.079.079-.171.158-.251.224a6.506,6.506,0,0,1-.818.567l2.335,1.359a6.49,6.49,0,0,0,.818-.567A1.83,1.83,0,0,0,387.3,455c.132-.106.251-.211.383-.33a2.1,2.1,0,0,1,.172-.172c.053-.053.092-.106.145-.158s.106-.119.158-.172c.119-.145.237-.277.356-.435l.119-.158c.026-.025.04-.053.066-.079.04-.053.079-.1.106-.144a3.825,3.825,0,0,0,.251-.383,3.446,3.446,0,0,0,.224-.369.041.041,0,0,1,.013-.026.046.046,0,0,1,.013-.026c.053-.106.119-.2.172-.3s.132-.251.185-.369.106-.224.158-.343a.038.038,0,0,1,.013-.026c0-.013,0-.013.013-.026l.158-.4c.053-.132.106-.277.145-.409.026-.066.04-.132.066-.2a.834.834,0,0,0,.026-.092.742.742,0,0,1,.053-.158c.04-.172.092-.33.119-.5a2.418,2.418,0,0,0,.053-.3c.013-.053.013-.106.026-.158A.483.483,0,0,0,390.522,449.117Z" transform="translate(-361.335 -421.658)" fill="#041d33" fill-rule="evenodd"/>
          <path id="Path_9172" data-name="Path 9172" d="M389.539,454.166l-2.336-1.359-.066-24.344,2.335,1.359Z" transform="translate(-360.3 -427.552)" fill="#041d33" fill-rule="evenodd"/>
          <path id="Path_9173" data-name="Path 9173" d="M389.473,430.042l-2.335-1.359,1.57-.91,2.335,1.359Z" transform="translate(-360.3 -427.773)" fill="#46aab4" fill-rule="evenodd"/>
          <path id="Path_9174" data-name="Path 9174" d="M389.374,452.593,366.8,465.629l2.349,1.359,22.563-13.036Z" transform="translate(-366.798 -419.844)" fill="#46aab4" fill-rule="evenodd"/>
          <path id="Path_9175" data-name="Path 9175" d="M396.976,428.8l-1.57.91.066,24.344a9.525,9.525,0,0,1-4.328,7.495l-22.576,13.036v1.794l22.576-13.036a13.036,13.036,0,0,0,5.9-10.2Z" transform="translate(-366.232 -427.443)" fill="#08355c" fill-rule="evenodd"/>
        </g>
        <g id="Group_4789" data-name="Group 4789" transform="translate(0 33.419)">
          <path id="Path_9176" data-name="Path 9176" d="M401.8,456.073a.8.8,0,0,1-.053.29c0,.013,0,.025-.013.025a1.212,1.212,0,0,1-.132.265.066.066,0,0,0-.026.053,1.849,1.849,0,0,1-.224.237,2.27,2.27,0,0,1-.2.144,1.932,1.932,0,0,1-.172.119l-21.89,12.721-.013,3.51,21.89-12.721c.013-.013.026-.013.04-.025.053-.04.092-.066.145-.106a2.263,2.263,0,0,0,.185-.145l.013-.013a1.142,1.142,0,0,0,.172-.185c.013-.013.026-.026.026-.04s.026-.026.026-.04.04-.053.053-.079l.079-.158c0-.013,0-.013.013-.026s0-.026.013-.026a.248.248,0,0,0,.026-.106.641.641,0,0,0,.013-.158v-.026h0Z" transform="translate(-348.968 -439.801)" fill="#1f4351" fill-rule="evenodd"/>
          <path id="Path_9177" data-name="Path 9177" d="M385.55,470.722a.425.425,0,0,1-.132.026,4.584,4.584,0,0,1-.963.106h-.04a4.171,4.171,0,0,1-1-.119.049.049,0,0,1-.04-.013,3.618,3.618,0,0,1-.9-.343L357.089,455.72a1.4,1.4,0,0,1-.818-1.148l-.013,3.51a1.414,1.414,0,0,0,.818,1.148l25.387,14.659c.119.066.264.132.4.2.106.04.224.079.33.119.053.013.119.026.172.04a.049.049,0,0,1,.04.013.188.188,0,0,1,.079.026c.092.013.185.04.277.053a5.171,5.171,0,0,0,.541.04h.29a2.167,2.167,0,0,0,.3-.026,3.351,3.351,0,0,0,.356-.053l.158-.04a.47.47,0,0,1,.132-.026c.079-.026.158-.04.237-.066a3.122,3.122,0,0,0,.607-.264l.013-3.51A2.966,2.966,0,0,1,385.55,470.722Z" transform="translate(-356.258 -440.28)" fill="#294f5e" fill-rule="evenodd"/>
          <path id="Path_9178" data-name="Path 9178" d="M408.267,458.865a1.2,1.2,0,0,1,.013,2.269l-21.89,12.72a4.319,4.319,0,0,1-3.919,0l-25.386-14.659a1.2,1.2,0,0,1-.013-2.269l21.89-12.72a4.36,4.36,0,0,1,3.919,0Z" transform="translate(-356.254 -443.74)" fill="#376375" fill-rule="evenodd"/>
        </g>
        <g id="Group_4790" data-name="Group 4790" transform="translate(27.933)">
          <path id="Path_9179" data-name="Path 9179" d="M399.815,434.025l-.04,17.694a2.09,2.09,0,0,1-.04.422v.013a1.765,1.765,0,0,1-.106.343h0a1.451,1.451,0,0,1-.119.185,1.052,1.052,0,0,1-.3.29l3.035-1.755a.909.909,0,0,0,.3-.29l.04-.04c.026-.04.053-.092.079-.132h0a.9.9,0,0,0,.04-.106c.013-.04.026-.066.04-.106s.013-.066.026-.106a.048.048,0,0,1,.013-.04v-.013a.049.049,0,0,1,.013-.04c0-.026.013-.066.013-.092s.013-.066.013-.092v-.185h0l.04-17.694Z" transform="translate(-370.47 -413.982)" fill="#1f4351" fill-rule="evenodd"/>
          <path id="Path_9180" data-name="Path 9180" d="M405.432,435.672c.013,0,.013.013,0,0a3.187,3.187,0,0,1,.33.409h0a3.03,3.03,0,0,1,.277.435c0,.013.013.013.013.025a5.014,5.014,0,0,1,.224.463h0a3,3,0,0,1,.172.487h0a2.16,2.16,0,0,1,.106.488h0a2.887,2.887,0,0,1,.04.475l3.035-1.755v-.185a.225.225,0,0,0-.013-.092c0-.026-.013-.066-.013-.092s-.013-.066-.013-.092h0c0-.026-.013-.066-.013-.092a.31.31,0,0,0-.026-.106c-.013-.04-.013-.066-.026-.106s-.013-.066-.026-.106-.013-.053-.026-.079h0v-.013a.311.311,0,0,1-.026-.106c-.013-.04-.026-.065-.04-.1s-.026-.066-.04-.094a.719.719,0,0,0-.04-.092.22.22,0,0,1-.026-.065h0s0-.015-.013-.015c-.013-.025-.026-.065-.04-.092s-.04-.066-.053-.106-.04-.078-.066-.117-.04-.079-.066-.119c0-.015-.013-.015-.013-.026s-.013-.013-.013-.026a2.291,2.291,0,0,0-.145-.237c-.04-.053-.079-.119-.119-.172h0a.724.724,0,0,0-.092-.119c-.026-.026-.053-.066-.079-.092s-.053-.066-.079-.092l-.079-.079-.013-.013v-.013l-.066-.066-.079-.079-.079-.079a.569.569,0,0,0-.092-.079l-.04-.04-.013-.013c-.013-.013-.026-.026-.04-.026a.553.553,0,0,0-.092-.066c-.026-.026-.053-.04-.079-.066a.275.275,0,0,0-.079-.053c-.026-.013-.053-.04-.079-.053l-.013-.013L382.3,418.677c-.026-.013-.04-.026-.066-.04l-.079-.04-.079-.04-.079-.04a.188.188,0,0,0-.079-.026h-.013a.08.08,0,0,0-.053-.013c-.026-.013-.053-.013-.079-.026a.168.168,0,0,0-.079-.013c-.026,0-.053-.013-.079-.013a.119.119,0,0,1-.066-.013h-.237c-.04,0-.079.013-.119.013h0c-.04.013-.092.026-.132.04a.888.888,0,0,0-.158.079l-3.035,1.754a.746.746,0,0,1,.29-.1h0a.915.915,0,0,1,.33-.013h.013a2.06,2.06,0,0,1,.369.078h0a1.728,1.728,0,0,1,.4.186l25.373,14.646a3.6,3.6,0,0,1,.4.277l.013.013A.9.9,0,0,1,405.432,435.672Z" transform="translate(-377.287 -418.413)" fill="#376375" fill-rule="evenodd"/>
          <path id="Path_9181" data-name="Path 9181" d="M404.82,434.635l-25.373-14.646c-1.082-.633-1.966-.119-1.979,1.122l-.04,17.694a4.306,4.306,0,0,0,1.966,3.391l25.373,14.646c1.082.633,1.966.119,1.979-1.122l.04-17.694A4.382,4.382,0,0,0,404.82,434.635Z" transform="translate(-377.428 -417.996)" fill="#294f5e" fill-rule="evenodd"/>
        </g>
      </g>
    </g>
    <g id="Group_4795" data-name="Group 4795" transform="translate(415.2 377.331)">
      <g id="Group_4793" data-name="Group 4793" transform="translate(0 0)">
        <path id="Path_9182" data-name="Path 9182" d="M331.978,443.393l.106,47.474,5.172,3.008-.106-50.483Z" transform="translate(-331.978 -443.393)" fill="#828994" fill-rule="evenodd"/>
        <path id="Path_9183" data-name="Path 9183" d="M335.9,443.393,336,493.875l5.04-2.916-.106-47.567Z" transform="translate(-330.726 -443.393)" fill="#98a0ad" fill-rule="evenodd"/>
      </g>
      <g id="Group_4794" data-name="Group 4794" transform="translate(65.59 45.258)">
        <path id="Path_9184" data-name="Path 9184" d="M381.688,477.693l.092,41.246,5.172,3.008-.092-44.255Z" transform="translate(-381.688 -477.693)" fill="#828994" fill-rule="evenodd"/>
        <path id="Path_9185" data-name="Path 9185" d="M385.608,477.693l.092,44.255,5.04-2.916-.092-41.339Z" transform="translate(-380.436 -477.693)" fill="#98a0ad" fill-rule="evenodd"/>
      </g>
    </g>
    <path id="Path_9186" data-name="Path 9186" d="M314.91,430.593l-29.094,2.19-.237,8.616,37.829-6.637Z" transform="translate(68.399 -70.151)" fill="#707171"/>
    <g id="Group_4796" data-name="Group 4796" transform="translate(350.085 276.248)">
      <path id="Path_9187" data-name="Path 9187" d="M297.973,413.93,285.1,405.143l-2.467,28.223,12.627,10.846Z" transform="translate(-282.628 -354.529)" fill="#ceccc9"/>
      <path id="Path_9188" data-name="Path 9188" d="M323.693,408.433l-28.777,4.447L292.2,443.161l28.632-5.4Z" transform="translate(-279.571 -353.478)" fill="#bbbab8"/>
      <path id="Path_9189" data-name="Path 9189" d="M309.858,402.032l-25.36,4.117,12.865,8.788,28.791-4.445Q318.019,406.256,309.858,402.032Z" transform="translate(-282.03 -355.522)" fill="#6a6968"/>
      <path id="Path_9190" data-name="Path 9190" d="M383.5,366.783" transform="translate(-250.404 -366.783)" fill="#6a6968"/>
    </g>
    <path id="Path_9191" data-name="Path 9191" d="M293.906,436.594l-7.745-4.341L284.5,478.671l7.547,5.08Z" transform="translate(68.054 -69.62)" fill="#c2c1be"/>
    <path id="Path_9192" data-name="Path 9192" d="M321.925,433.753l-29.846,2.362-1.86,47.158L319,478.812Z" transform="translate(69.881 -69.141)" fill="#adadad"/>
    <path id="Path_9193" data-name="Path 9193" d="M315.837,434.083l-20.1,1.689-.963,21.52,19.95-3.206Z" transform="translate(71.338 -69.036)" fill="#d3d1ce"/>
    <g id="Group_4797" data-name="Group 4797" transform="translate(368.821 371.433)">
      <path id="Path_9194" data-name="Path 9194" d="M301.248,439.682l-3.972.356-.449,8.7,3.945-.488Z" transform="translate(-296.828 -438.68)" fill="#e43758"/>
      <path id="Path_9195" data-name="Path 9195" d="M304.159,439.423l-3.866.343-.475,8.563,3.826-.475Z" transform="translate(-295.873 -438.763)" fill="#efc917"/>
      <path id="Path_9196" data-name="Path 9196" d="M306.967,439.163l-3.734.343-.515,8.431,3.708-.462Z" transform="translate(-294.946 -438.846)" fill="#8ac53f"/>
      <path id="Path_9197" data-name="Path 9197" d="M309.7,438.923l-3.629.317-.541,8.313,3.589-.449Z" transform="translate(-294.049 -438.923)" fill="#2194d2"/>
    </g>
    <path id="Path_9198" data-name="Path 9198" d="M319.763,411.113l-22.787,3.813-2.138,23.658,22.642-4.262Z" transform="translate(71.357 -76.374)" fill="#949391"/>
    <path id="Path_9199" data-name="Path 9199" d="M290.85,459.149,286.8,461.7l-.211-7.666,4.051-2.547Z" transform="translate(68.722 -63.477)" fill="#adadad"/>
    <path id="Path_9200" data-name="Path 9200" d="M314.881,414.863l-15.134,2.56-1.4,15.6,14.923-2.81Z" transform="translate(72.479 -75.176)" fill="#878785"/>
    <g id="Group_4798" data-name="Group 4798" transform="translate(370.958 341.824)">
      <path id="Path_9201" data-name="Path 9201" d="M303.66,416.483l-4.143.633-1.069,11.77,3.958-.818Z" transform="translate(-298.448 -416.483)" fill="#fff"/>
      <path id="Path_9202" data-name="Path 9202" d="M302.985,420.842l-4.051.647-.356,3.774,4-.673Z" transform="translate(-298.406 -415.09)" fill="#1a1918"/>
    </g>
    <g id="Group_4799" data-name="Group 4799" transform="translate(381.897 339.845)">
      <path id="Path_9203" data-name="Path 9203" d="M311.963,414.983l-3.958.647-1.267,11.756,3.958-.818Z" transform="translate(-306.738 -414.983)" fill="#fff"/>
      <path id="Path_9204" data-name="Path 9204" d="M311.272,419.513l-3.945.66-.409,3.747,3.945-.66Z" transform="translate(-306.68 -413.535)" fill="#1a1918"/>
    </g>
    <path id="Path_9205" data-name="Path 9205" d="M291.386,421.615l-2.56-2.322-1.069,11.783,2.56,2.124Z" transform="translate(69.095 -73.761)" fill="#bbbab8"/>
    <path id="Path_9206" data-name="Path 9206" d="M288.66,412.735l-2.56-2.322L285.018,422.2l2.573,2.124Z" transform="translate(68.22 -76.597)" fill="#bbbab8"/>
    <path id="Path_9207" data-name="Path 9207" d="M292.611,411.667l-2.56-2.124-.3,4.1,2.56,2.138Z" transform="translate(69.731 -76.875)" fill="#bbbab8"/>
    <path id="Path_9208" data-name="Path 9208" d="M308.536,427.3l-6.6,1.121-.251,2.626,6.584-1.135Z" transform="translate(73.546 -71.202)" fill="#1a1918"/>
    <g id="Group_4800" data-name="Group 4800" transform="translate(336.666 360.89)">
      <path id="Path_9209" data-name="Path 9209" d="M294.919,439.285l-13.313,4.381-7.468-9.223,13.115-3.51Z" transform="translate(-271.921 -430.933)" fill="#b6b5b3"/>
      <path id="Path_9210" data-name="Path 9210" d="M279.029,475.644l-6.571-8.867,2.217-33.185,7.336,8.906Z" transform="translate(-272.458 -430.083)" fill="#d3d1ce"/>
      <path id="Path_9211" data-name="Path 9211" d="M291.609,469.893l-14.171,4.579,2.982-33.158,13.445-4.051Z" transform="translate(-270.867 -428.91)" fill="#969595"/>
      <path id="Path_9212" data-name="Path 9212" d="M276,471.634l-1.86-2.6,2.441-33.092,1.94,2.362Z" transform="translate(-271.921 -429.332)" fill="#8ac53f"/>
      <path id="Path_9213" data-name="Path 9213" d="M287.839,436.976l-6.149,1.847-3.312-3.84,5.977-1.781Z" transform="translate(-270.567 -430.207)" fill="#2194d2"/>
      <path id="Path_9214" data-name="Path 9214" d="M286.437,453.47l-8.009,2.322.264-3.378,8-2.322Z" transform="translate(-270.551 -424.812)" fill="#8b8b8b"/>
      <path id="Path_9215" data-name="Path 9215" d="M287.88,461.585l-2.652.831.4-6.122,2.652-.831Z" transform="translate(-268.378 -423.096)" fill="#8b8b8b"/>
      <path id="Path_9216" data-name="Path 9216" d="M279.694,461.066l-.29,3.338-6.756-7.917.238-3.286Z" transform="translate(-272.397 -423.818)" fill="#8ac53f"/>
    </g>
    <g id="Group_4803" data-name="Group 4803" transform="translate(337.127 428.447)">
      <g id="Group_4801" data-name="Group 4801">
        <path id="Path_9217" data-name="Path 9217" d="M272.808,482.133l.092,47.474,5.172,3.008-.106-50.483Z" transform="translate(-272.808 -482.133)" fill="#828994" fill-rule="evenodd"/>
        <path id="Path_9218" data-name="Path 9218" d="M276.718,482.133l.106,50.483,5.04-2.916-.092-47.567Z" transform="translate(-271.559 -482.133)" fill="#98a0ad" fill-rule="evenodd"/>
      </g>
      <g id="Group_4802" data-name="Group 4802" transform="translate(65.538 22.576)">
        <path id="Path_9219" data-name="Path 9219" d="M327.65,502.251l-5.172-3.008.145,63.928,5.172,3.008Z" transform="translate(-322.478 -499.242)" fill="#828994" fill-rule="evenodd"/>
        <path id="Path_9220" data-name="Path 9220" d="M326.4,502.225l.145,63.928,5.04-2.916-.132-63.915Z" transform="translate(-321.226 -499.217)" fill="#98a0ad" fill-rule="evenodd"/>
      </g>
    </g>
    <g id="Group_4810" data-name="Group 4810" transform="translate(448.991 334.62)">
      <g id="Group_4804" data-name="Group 4804" transform="translate(7.138 0)">
        <path id="Path_9221" data-name="Path 9221" d="M379.082,426.038l2.771-2.428-1.385-7.376-5.317-5.212-6.835.99L363,416.947l1.583,7.257,1.662,1.834Z" transform="translate(-362.998 -411.023)" fill="#58341d"/>
        <path id="Path_9222" data-name="Path 9222" d="M374.286,423.584l2.56-2.626-1.24-5.146-6.228,2.9,2.428,4.869Z" transform="translate(-360.96 -409.492)" fill="#3e2615"/>
        <path id="Path_9223" data-name="Path 9223" d="M369.228,420.082l2.626-7.31,3.721,4.209Z" transform="translate(-361.008 -410.463)" fill="#51301b"/>
        <path id="Path_9224" data-name="Path 9224" d="M372.379,412.872l-2.349,7.046-2.9-6.452Z" transform="translate(-361.678 -410.432)" fill="#4e2f1b"/>
        <path id="Path_9225" data-name="Path 9225" d="M367.985,413.323l3.127,6.215-5.726,3.008-.818-5.964Z" transform="translate(-362.496 -410.288)" fill="#53331c"/>
        <path id="Path_9226" data-name="Path 9226" d="M373.487,422.881l-2.626-4.869-5.674,3.035,1.728,1.834Z" transform="translate(-362.298 -408.789)" fill="#462918"/>
        <path id="Path_9227" data-name="Path 9227" d="M378.86,420.834l-2.969-1.122-3.523,3.615,3.721-.066Z" transform="translate(-360.005 -408.246)" fill="#2f1c11"/>
        <path id="Path_9228" data-name="Path 9228" d="M376.958,414.923l1.108,7.112-4.288-5.872Z" transform="translate(-359.554 -409.777)" fill="#4e2f1b"/>
      </g>
      <g id="Group_4805" data-name="Group 4805" transform="translate(27.577 5.726)">
        <path id="Path_9229" data-name="Path 9229" d="M380.15,428.016l-1.663-6.122,5.4-5.08,7.877-1.451,6.215,5.938.963,7.574-5.529,4.935-9.395,1.056Z" transform="translate(-378.488 -415.363)" fill="#59351d"/>
        <path id="Path_9230" data-name="Path 9230" d="M386.138,424.815l2.9,5.595,4.275-3.615-.9-5.542Z" transform="translate(-376.044 -413.481)" fill="#472b19"/>
        <path id="Path_9231" data-name="Path 9231" d="M386.78,426.39l-3.312-7.178,3.523-1.649,2.283.66Z" transform="translate(-376.897 -414.66)" fill="#51301b"/>
        <path id="Path_9232" data-name="Path 9232" d="M385.718,426.164l2.837-8.1,4,4.209Z" transform="translate(-376.178 -414.5)" fill="#4f2f1a"/>
        <path id="Path_9233" data-name="Path 9233" d="M387.841,423.6l2.7,6.056-5.872.528-3.246-4.671Z" transform="translate(-377.549 -412.73)" fill="#422715"/>
        <path id="Path_9234" data-name="Path 9234" d="M384.289,418.813l3.8,6.452-6.492,1.781-.7-5.014Z" transform="translate(-377.718 -414.26)" fill="#4d2f1a"/>
        <path id="Path_9235" data-name="Path 9235" d="M387.968,418.363l7.666,9.487-.9-7.442Z" transform="translate(-375.459 -414.404)" fill="#59351d"/>
        <path id="Path_9236" data-name="Path 9236" d="M389.148,415.463l-1.86,3.431,7.257,2.045Z" transform="translate(-375.677 -415.331)" fill="#55331d"/>
        <path id="Path_9237" data-name="Path 9237" d="M390.344,415.463l-6.624,4.42-1.042-3.365Z" transform="translate(-377.149 -415.331)" fill="#56351d"/>
      </g>
      <g id="Group_4806" data-name="Group 4806" transform="translate(31.443 31.747)">
        <path id="Path_9238" data-name="Path 9238" d="M381.431,453.265l9.949-14.026,1.583-3.3,1.86-.858,1.24.792-.488,2.111s-8.22,17.061-14.158,21.534v-6.254Z" transform="translate(-381.418 -435.083)" fill="#ce7973"/>
        <path id="Path_9239" data-name="Path 9239" d="M391.738,437.709s9.461,9.025,14.514,10.674l.343-.33s-12.3-9.157-13.881-12.311Z" transform="translate(-378.121 -434.872)" fill="#ce7973"/>
      </g>
      <path id="Path_9240" data-name="Path 9240" d="M357.6,445.494c.224,1.015,3.246,1.161,5.634.685s4.156-1.689,3.932-2.7-2.349-1.453-4.75-.965C360.029,442.972,357.377,444.478,357.6,445.494Z" transform="translate(-357.588 -401.027)" fill="#ce7973"/>
      <path id="Path_9241" data-name="Path 9241" d="M391.389,433.805V458.03l-3.655,10.411-9.883,2.243-4.842-1.056-5.66-2.111-5.661-8.959V441.181l7.6-10.938Z" transform="translate(-356.278 -404.882)" fill="#633d20"/>
      <path id="Path_9242" data-name="Path 9242" d="M370.594,443.172l.488,3.879-9.329-1.5-.066-6.914,8.906,4.539" transform="translate(-356.278 -402.202)" fill="#53331c"/>
      <path id="Path_9243" data-name="Path 9243" d="M386.572,451.3l-8.009,2.375-1.794,6.782,6.149,1.188Z" transform="translate(-351.461 -398.155)" fill="#5f3a1e"/>
      <path id="Path_9244" data-name="Path 9244" d="M381.144,443.882l.422,13.1-1.794,7.9-2.837,1.253-4.354.264-2.072-.594-2.072-9.421V441.573Z" transform="translate(-354.122 -401.263)" fill="#4e2f1a"/>
      <path id="Path_9245" data-name="Path 9245" d="M370.482,445.443l.343,11.268-9.2-2.045.145-10.793,8.629,1.188" transform="translate(-356.297 -400.528)" fill="#694428"/>
      <path id="Path_9246" data-name="Path 9246" d="M370.957,453.108l1.794,9.487-6.281-2.7-4.842-7.838Z" transform="translate(-356.297 -397.915)" fill="#5c3c21"/>
      <path id="Path_9247" data-name="Path 9247" d="M370.7,460.871a5.375,5.375,0,0,0-6.215-4.209L362.9,459.5s-.132,1.781.488,2.375C363.376,461.861,364.959,464.567,370.7,460.871Z" transform="translate(-355.894 -396.456)" fill="#ce7973"/>
      <path id="Path_9248" data-name="Path 9248" d="M381.078,443.524v2.428l-12.64-.646v-3.233Z" transform="translate(-354.122 -401.103)" fill="#322113"/>
      <path id="Path_9249" data-name="Path 9249" d="M369.3,459.245c4.235,0,7.349-4.328,7.349-8.365s-3.958-7.508-8.194-7.508" transform="translate(-354.115 -400.688)" fill="#c7c4c1"/>
      <path id="Path_9250" data-name="Path 9250" d="M370.161,443.372c-4.262,0-7.323,4.224-7.059,8.326.251,3.84,4.156,7.429,7.917,7.547" transform="translate(-355.831 -400.688)" fill="#b19d8e"/>
      <path id="Path_9251" data-name="Path 9251" d="M386.156,439.373v2.837l-8.088,2.375Z" transform="translate(-351.045 -401.966)" fill="#54321d"/>
      <path id="Path_9252" data-name="Path 9252" d="M383.252,459.622l-5.951-1.979-1.583,3.021v.607Z" transform="translate(-351.796 -396.129)" fill="#3b2615"/>
      <path id="Path_9253" data-name="Path 9253" d="M372.668,458.109l-1.24,3.1.963,1.781,1.451.66h1.94l2.969-1.056s4.763-2.111,4.354-4.209A10.221,10.221,0,0,0,372.668,458.109Z" transform="translate(-353.167 -396.397)" fill="#ce7973"/>
      <ellipse id="Ellipse_70" data-name="Ellipse 70" cx="1.874" cy="4.433" rx="1.874" ry="4.433" transform="matrix(0.081, -0.997, 0.997, 0.081, 17.216, 47.919)" fill="#ce7973"/>
      <g id="Group_4809" data-name="Group 4809" transform="translate(2.23 13.775)">
        <path id="Path_9254" data-name="Path 9254" d="M383.353,450.393l8.154-5.344L392,433.2l-1.385-6.452-6.426-4.354-12.64-.792-4.631,3.035-2.626,4.473-2.969,6.729Z" transform="translate(-358.626 -421.418)" fill="#59351d"/>
        <path id="Path_9255" data-name="Path 9255" d="M364.529,426.7l1.583,2.23-5.806,6.135-1.029-1.319Z" transform="translate(-359.278 -419.789)" fill="#5e381e"/>
        <path id="Path_9256" data-name="Path 9256" d="M383.793,439.333l2.494-7.442-4.565-6.518-9.434-2.006-4.724-.765-3.945,8.3Z" transform="translate(-357.891 -421.098)" fill="#412614"/>
        <g id="Group_4807" data-name="Group 4807" transform="translate(16.506 4.077)">
          <ellipse id="Ellipse_71" data-name="Ellipse 71" cx="5.938" cy="5.661" rx="5.938" ry="5.661" fill="#f2f1ef"/>
          <ellipse id="Ellipse_72" data-name="Ellipse 72" cx="3.734" cy="3.563" rx="3.734" ry="3.563" transform="translate(0.554 2.956)" fill="#010101"/>
          <rect id="Rectangle_412" data-name="Rectangle 412" width="0.831" height="0.792" transform="translate(4.022 1.18)" fill="#f2f1ef"/>
        </g>
        <path id="Path_9257" data-name="Path 9257" d="M379.908,434.553l-15.622-5.66-2.758,2.9,1.451,4.539,1.663,1.649,8.7,2.771,5.251-4.222Z" transform="translate(-358.559 -419.089)" fill="#53331b"/>
        <path id="Path_9258" data-name="Path 9258" d="M370.524,437.682l2.006,4.143L368.6,440.77Z" transform="translate(-356.301 -416.281)" fill="#4e2f1b"/>
        <path id="Path_9259" data-name="Path 9259" d="M370.549,443.449l-.343-3.022-5.885-2.045-.963,2.626Z" transform="translate(-357.974 -416.057)" fill="#59351d"/>
        <path id="Path_9260" data-name="Path 9260" d="M364.9,438.968l-2.481-2.045-.37,3.1,1.729,1.451Z" transform="translate(-358.393 -416.524)" fill="#603b1f"/>
        <path id="Path_9261" data-name="Path 9261" d="M363.2,437.69l-2.626-3.127-.409,3.589,2.481,2.626Z" transform="translate(-358.994 -417.278)" fill="#633e21"/>
        <path id="Path_9262" data-name="Path 9262" d="M364.168,439.474l1.042-4.011,7.112,2.428-2.283,3.563Z" transform="translate(-357.716 -416.99)" fill="#4b2d1a"/>
        <path id="Path_9263" data-name="Path 9263" d="M365.863,435.624c-.066.066-2.415-.792-2.415-.792l-1.24,2.9,2.626,2.177Z" transform="translate(-358.342 -417.191)" fill="#59361e"/>
        <path id="Path_9264" data-name="Path 9264" d="M363.381,432.343l.792,3.351L363,438.729l-2.52-3.3Z" transform="translate(-358.895 -417.987)" fill="#5d381e"/>
        <path id="Path_9265" data-name="Path 9265" d="M360.452,432.9l.62,2.956-.62,3.167-.976-.594-.2-6.386Z" transform="translate(-359.278 -418.083)" fill="#6a472b"/>
        <path id="Path_9266" data-name="Path 9266" d="M360.8,436.782l2.692-3.417.831-4.222-4.209,4.552Z" transform="translate(-359.01 -419.009)" fill="#61412b"/>
        <path id="Path_9267" data-name="Path 9267" d="M382.715,436.547l-5.449-3.365-7.468,5.476,3.18,1.385Z" transform="translate(-355.917 -417.718)" fill="#4f2f1a"/>
        <path id="Path_9268" data-name="Path 9268" d="M383.123,441.047l-11.545,1.385.831-3.747,9.738-2.9Z" transform="translate(-355.349 -416.888)" fill="#643d20"/>
        <path id="Path_9269" data-name="Path 9269" d="M381.224,444.351l-4.077.132-4.974-.726-3.246-.752-.488-2.969,15.688-.264Z" transform="translate(-356.352 -415.613)" fill="#53331b"/>
        <path id="Path_9270" data-name="Path 9270" d="M372.962,438.4l-.831,3.945-2.283-5,.422-.264Z" transform="translate(-355.901 -416.473)" fill="#55331d"/>
        <g id="Group_4808" data-name="Group 4808" transform="translate(5.185)">
          <ellipse id="Ellipse_73" data-name="Ellipse 73" cx="5.938" cy="5.661" rx="5.938" ry="5.661" fill="#f2f1ef"/>
          <ellipse id="Ellipse_74" data-name="Ellipse 74" cx="3.734" cy="3.563" rx="3.734" ry="3.563" transform="translate(0.475 3.351)" fill="#010101"/>
          <rect id="Rectangle_413" data-name="Rectangle 413" width="0.831" height="0.792" transform="translate(3.796 1.529)" fill="#f2f1ef"/>
        </g>
        <ellipse id="Ellipse_75" data-name="Ellipse 75" cx="3.417" cy="3.259" rx="3.417" ry="3.259" transform="translate(8.22 13.564)" fill="#e86255"/>
      </g>
    </g>
    <g id="Group_4811" data-name="Group 4811" transform="translate(319.777 366.987)">
      <path id="Path_9271" data-name="Path 9271" d="M259.658,481.993l.013,7.112q37.763,21.949,75.5,43.885l-.026-7.112Q297.421,503.929,259.658,481.993Z" transform="translate(-259.658 -420.717)" fill="#bac2d1" fill-rule="evenodd"/>
      <path id="Path_9272" data-name="Path 9272" d="M363.368,435.553l-103.71,61.276q37.743,21.949,75.5,43.885l103.71-61.276Q401.1,457.489,363.368,435.553Z" transform="translate(-259.658 -435.553)" fill="#d4ddec" fill-rule="evenodd"/>
      <path id="Path_9273" data-name="Path 9273" d="M316.878,530.089c.013,2.374.013,4.736.026,7.112q51.855-31.054,103.7-62.122l-.013-6.267Z" transform="translate(-241.378 -424.928)" fill="#c8d1e0" fill-rule="evenodd"/>
    </g>
    <path id="Path_9274" data-name="Path 9274" d="M345.519,466.372c-1.6-2.283-6.017-3.919-11.229-3.919s-9.645,1.649-11.229,3.919h-.633v1.86c0,3.193,5.317,5.792,11.875,5.792s11.875-2.586,11.875-5.792v-1.86Z" transform="translate(80.171 -59.972)" fill="#545658"/>
    <ellipse id="Ellipse_76" data-name="Ellipse 76" cx="11.875" cy="5.792" rx="11.875" ry="5.792" transform="translate(402.586 400.606)" fill="#717375"/>
    <g id="Group_4818" data-name="Group 4818" transform="translate(405.027 390.895)">
      <g id="Group_4813" data-name="Group 4813" transform="translate(1.728)">
        <g id="Group_4812" data-name="Group 4812">
          <ellipse id="Ellipse_77" data-name="Ellipse 77" cx="7.666" cy="3.734" rx="7.666" ry="3.734" fill="#bf2025"/>
        </g>
      </g>
      <g id="Group_4815" data-name="Group 4815" transform="translate(0 10.068)">
        <g id="Group_4814" data-name="Group 4814">
          <path id="Path_9275" data-name="Path 9275" d="M333.663,461.3c-5.185,0-9.395,2.045-9.395,4.579s4.209,4.579,9.395,4.579,9.395-2.045,9.395-4.579S338.848,461.3,333.663,461.3Z" transform="translate(-324.268 -461.303)" fill="#bf2025"/>
        </g>
      </g>
      <g id="Group_4817" data-name="Group 4817" transform="translate(0.013 3.734)">
        <g id="Group_4816" data-name="Group 4816">
          <path id="Path_9276" data-name="Path 9276" d="M341.325,456.5H325.993l-1.715,10.912h18.776Z" transform="translate(-324.278 -456.503)" fill="#bf2025"/>
        </g>
      </g>
    </g>
    <ellipse id="Ellipse_78" data-name="Ellipse 78" cx="7.666" cy="3.734" rx="7.666" ry="3.734" transform="translate(406.755 390.895)" fill="#ed2224"/>
    <g id="Group_4827" data-name="Group 4827" transform="translate(362.158 399.405)">
      <path id="Path_9277" data-name="Path 9277" d="M293.769,491.474a1.625,1.625,0,0,1-.264-.026,1.662,1.662,0,0,1-1.372-1.913c.567-3.457,2.824-5.253,4.75-5.253a1.663,1.663,0,0,1,0,3.326c-.277.026-1.174.673-1.478,2.467A1.647,1.647,0,0,1,293.769,491.474Z" transform="translate(-291.671 -452.404)" fill="#9d9d9c"/>
      <g id="Group_4824" data-name="Group 4824" transform="translate(0 12.696)">
        <g id="Group_4823" data-name="Group 4823" style="isolation: isolate">
          <path id="Path_9278" data-name="Path 9278" d="M311.571,471.405c-3.351-1.941-6.4-2.124-8.59-.846l-8.524,4.961c2.19-1.28,5.238-1.094,8.59.846,6.663,3.853,12.06,13.181,12.034,20.846-.013,3.815-1.359,6.493-3.523,7.745L320.082,500c2.164-1.253,3.51-3.945,3.523-7.745C323.618,484.587,318.235,475.258,311.571,471.405Z" transform="translate(-290.922 -469.744)" fill="#706f6f"/>
          <g id="Group_4822" data-name="Group 4822" transform="translate(0 4.963)">
            <path id="Path_9279" data-name="Path 9279" d="M303.891,475.165c6.663,3.853,12.06,13.181,12.034,20.846s-5.449,10.754-12.113,6.9-12.06-13.181-12.033-20.847S297.227,471.311,303.891,475.165Z" transform="translate(-291.778 -473.505)" fill="#b2b2b2"/>
            <g id="Group_4821" data-name="Group 4821" transform="translate(1.663 2.342)">
              <path id="Path_9280" data-name="Path 9280" d="M296.482,475.771c1.847-.856,4.288-.62,6.967.937,5.753,3.312,10.411,11.387,10.411,18.024,0,3.088-1.016,5.331-2.678,6.5-1.9,1.346-4.658,1.28-7.732-.488-5.753-3.325-10.411-11.387-10.411-18.024C293.038,479.176,294.371,476.749,296.482,475.771Z" transform="translate(-293.038 -475.28)" fill="#9d9d9c"/>
              <path id="Path_9281" data-name="Path 9281" d="M296.3,475.771c1.847-.856,4.288-.62,6.967.937,5.753,3.312,10.411,11.387,10.411,18.024,0,3.088-1.016,5.331-2.679,6.5-1.847.858-4.288.62-6.967-.937-5.753-3.324-10.411-11.387-10.411-18.024C293.618,479.176,294.634,476.932,296.3,475.771Z" transform="translate(-292.853 -475.28)" fill="#fff"/>
              <g id="Group_4820" data-name="Group 4820" transform="translate(1.095 1.028)">
                <path id="Path_9282" data-name="Path 9282" d="M300.648,492.933c0-.488.343-.673.752-.435a1.658,1.658,0,0,1,.752,1.319c0,.488-.343.673-.752.435A1.7,1.7,0,0,1,300.648,492.933Z" transform="translate(-291.702 -470.841)" fill="#1d1d1b"/>
                <g id="Group_4819" data-name="Group 4819">
                  <path id="Path_9283" data-name="Path 9283" d="M301.513,486.217l-.475-1.24,6.677-.594.475,1.24Z" transform="translate(-291.577 -473.4)" fill="#1d1d1b"/>
                  <path id="Path_9284" data-name="Path 9284" d="M308.18,490.333a1.658,1.658,0,0,1-.752-1.32c0-.488.343-.674.752-.435a1.693,1.693,0,0,1,.752,1.319C308.945,490.373,308.6,490.569,308.18,490.333Z" transform="translate(-289.536 -472.093)" fill="#1d1d1b"/>
                  <path id="Path_9285" data-name="Path 9285" d="M294.62,480.748a1.656,1.656,0,0,1,.752,1.319c0,.487-.343.673-.752.434a1.693,1.693,0,0,1-.752-1.319C293.868,480.694,294.2,480.511,294.62,480.748Z" transform="translate(-293.868 -474.595)" fill="#1d1d1b"/>
                  <path id="Path_9286" data-name="Path 9286" d="M301.556,487.23l-3.008-7.745,1.029-.092,3.008,7.745Z" transform="translate(-292.373 -474.995)" fill="#1d1d1b"/>
                  <path id="Path_9287" data-name="Path 9287" d="M302.162,478.148c0,.488-.343.673-.752.435a1.658,1.658,0,0,1-.752-1.319c0-.488.343-.674.752-.435A1.712,1.712,0,0,1,302.162,478.148Z" transform="translate(-291.699 -475.847)" fill="#1d1d1b"/>
                  <path id="Path_9288" data-name="Path 9288" d="M302.562,486.262c0,.686-.488.963-1.082.62a2.384,2.384,0,0,1-1.082-1.874c0-.686.488-.965,1.082-.62A2.423,2.423,0,0,1,302.562,486.262Z" transform="translate(-291.782 -473.446)" fill="#575756"/>
                  <path id="Path_9289" data-name="Path 9289" d="M295.971,478.444c0,.33-.224.449-.5.29a1.118,1.118,0,0,1-.5-.884c0-.33.224-.449.5-.29A1.16,1.16,0,0,1,295.971,478.444Z" transform="translate(-293.517 -475.602)" fill="#1d1d1b"/>
                  <path id="Path_9290" data-name="Path 9290" d="M298.451,477.013c0,.33-.224.449-.5.292a1.121,1.121,0,0,1-.5-.885c0-.33.224-.449.5-.29A1.165,1.165,0,0,1,298.451,477.013Z" transform="translate(-292.724 -476.059)" fill="#1d1d1b"/>
                  <path id="Path_9291" data-name="Path 9291" d="M305.241,480.934c0,.33-.224.449-.5.29a1.118,1.118,0,0,1-.5-.884c0-.33.224-.449.5-.292A1.157,1.157,0,0,1,305.241,480.934Z" transform="translate(-290.555 -474.807)" fill="#1d1d1b"/>
                  <path id="Path_9292" data-name="Path 9292" d="M307.721,485.234c0,.33-.224.447-.5.29a1.121,1.121,0,0,1-.5-.885c0-.33.224-.449.5-.29A1.123,1.123,0,0,1,307.721,485.234Z" transform="translate(-289.763 -473.433)" fill="#1d1d1b"/>
                  <path id="Path_9293" data-name="Path 9293" d="M307.721,493.064c0,.33-.224.449-.5.29a1.118,1.118,0,0,1-.5-.884c0-.33.224-.449.5-.29A1.116,1.116,0,0,1,307.721,493.064Z" transform="translate(-289.763 -470.932)" fill="#1d1d1b"/>
                  <path id="Path_9294" data-name="Path 9294" d="M305.241,494.494c0,.33-.224.449-.5.29a1.121,1.121,0,0,1-.5-.885c0-.33.224-.447.5-.29A1.141,1.141,0,0,1,305.241,494.494Z" transform="translate(-290.555 -470.475)" fill="#1d1d1b"/>
                  <path id="Path_9295" data-name="Path 9295" d="M298.451,490.584c0,.33-.224.449-.5.29a1.121,1.121,0,0,1-.5-.885c0-.33.224-.449.5-.29A1.123,1.123,0,0,1,298.451,490.584Z" transform="translate(-292.724 -471.724)" fill="#1d1d1b"/>
                  <path id="Path_9296" data-name="Path 9296" d="M295.971,486.284c0,.33-.224.449-.5.29a1.118,1.118,0,0,1-.5-.884c0-.33.224-.449.5-.29A1.118,1.118,0,0,1,295.971,486.284Z" transform="translate(-293.517 -473.098)" fill="#1d1d1b"/>
                  <path id="Path_9297" data-name="Path 9297" d="M301.956,485.827c0,.384-.264.528-.594.344a1.292,1.292,0,0,1-.594-1.016c0-.383.264-.528.594-.343A1.27,1.27,0,0,1,301.956,485.827Z" transform="translate(-291.664 -473.289)" fill="#1d1d1b"/>
                </g>
              </g>
            </g>
          </g>
        </g>
        <path id="Path_9298" data-name="Path 9298" d="M312.208,476.62l-1.319,1.028a21.864,21.864,0,0,0-4.117-3.589c-.29-.2-.594-.383-.884-.554-.053-.026-.092-.053-.145-.079-3.3-1.86-6.281-2.019-8.445-.764l1.465-.872c2.032-1.186,4.79-1.107,7.864.435.251.119.488.251.739.4.106.066.224.132.33.2A22,22,0,0,1,312.208,476.62Z" transform="translate(-290.014 -469.351)" fill="#1d1d1b"/>
      </g>
      <path id="Path_9299" data-name="Path 9299" d="M319.321,479.6a8.138,8.138,0,0,0-8.141-8.142,8.257,8.257,0,0,0-3.431.752c-9.038,4.684.383,18.789,8.774,13.524A8.115,8.115,0,0,0,319.321,479.6Z" transform="translate(-287.852 -456.5)" fill="#dadada"/>
      <path id="Path_9300" data-name="Path 9300" d="M300.551,465.122a7.985,7.985,0,0,0-7.983,7.983,7.85,7.85,0,0,0,.924,3.721,31.948,31.948,0,0,0,14.514-6.6A8.014,8.014,0,0,0,300.551,465.122Z" transform="translate(-291.526 -458.525)" fill="#dadada"/>
      <path id="Path_9301" data-name="Path 9301" d="M298.152,465.774a1.412,1.412,0,1,1-1.412-1.412A1.414,1.414,0,0,1,298.152,465.774Z" transform="translate(-290.644 -458.768)" fill="#b2b2b2"/>
      <circle id="Ellipse_79" data-name="Ellipse 79" cx="1.412" cy="1.412" r="1.412" transform="translate(24.476 17.404)" fill="#b2b2b2"/>
      <path id="Path_9302" data-name="Path 9302" d="M316.3,478.594a.616.616,0,0,1-.607-.566c-.4-5.806-4.5-12.535-9.342-15.332-2.547-1.465-5-1.781-6.729-.858-1.465.778-2.309,2.362-2.454,4.592a.616.616,0,0,1-.647.567.624.624,0,0,1-.567-.647c.172-2.626,1.267-4.6,3.1-5.568,2.111-1.122,4.988-.8,7.9.871,5.238,3.022,9.513,10.041,9.949,16.3a.606.606,0,0,1-.567.646Z" transform="translate(-290.443 -460.122)" fill="#878787"/>
      <g id="Group_4826" data-name="Group 4826" transform="translate(15.728 12.44)">
        <path id="Path_9303" data-name="Path 9303" d="M307.1,471.1l-1.465,2.006-.91,1.226c-.29-.2-.594-.383-.884-.554-.053-.026-.092-.053-.145-.079l.871-1.187,1.557-2.123a.6.6,0,1,1,.976.713Z" transform="translate(-303.698 -469.364)" fill="#878787"/>
        <g id="Group_4825" data-name="Group 4825" transform="translate(1.541)">
          <path id="Path_9304" data-name="Path 9304" d="M307.336,471.731a1.368,1.368,0,1,0-1.913.29A1.37,1.37,0,0,0,307.336,471.731Z" transform="translate(-304.866 -469.551)" fill="#c6c6c6"/>
        </g>
      </g>
      <ellipse id="Ellipse_80" data-name="Ellipse 80" cx="2.428" cy="1.676" rx="2.428" ry="1.676" transform="translate(1.347 16.195) rotate(-89.095)" fill="#fff"/>
      <path id="Path_9305" data-name="Path 9305" d="M311.95,480.71a2.658,2.658,0,0,1-2.982,1.926c-1.135-.33-1.636-1.742-1.122-3.14a2.658,2.658,0,0,1,2.982-1.926C311.95,477.9,312.465,479.312,311.95,480.71Z" transform="translate(-286.709 -454.572)" fill="#fff"/>
      <path id="Path_9306" data-name="Path 9306" d="M311.724,476.7a.976.976,0,0,1-.8,1.054.842.842,0,0,1-.95-.8.978.978,0,0,1,.8-1.056A.848.848,0,0,1,311.724,476.7Z" transform="translate(-285.968 -455.086)" fill="#fff"/>
      <path id="Path_9307" data-name="Path 9307" d="M295.591,468.387a.889.889,0,0,1-1.1.554.879.879,0,0,1-.237-1.2.889.889,0,0,1,1.1-.554A.879.879,0,0,1,295.591,468.387Z" transform="translate(-291.026 -457.883)" fill="#fff"/>
      <path id="Path_9308" data-name="Path 9308" d="M315.024,504.086a1.673,1.673,0,0,1-1.649-1.438,14.581,14.581,0,0,0-2.718-6.6,1.665,1.665,0,0,1,2.52-2.177,17.84,17.84,0,0,1,3.51,8.326,1.667,1.667,0,0,1-1.425,1.874A1.6,1.6,0,0,1,315.024,504.086Z" transform="translate(-285.877 -449.525)" fill="#9d9d9c"/>
    </g>
  </g>
</svg>
