<svg xmlns="http://www.w3.org/2000/svg" xmlns:xlink="http://www.w3.org/1999/xlink" width="1919" height="160" viewBox="0 0 1919 160">
  <defs>
    <clipPath id="clip-path">
      <rect id="Rectangle_711" data-name="Rectangle 711" width="1919" height="160" fill="#fff"/>
    </clipPath>
  </defs>
  <g id="Mask_Group_2" data-name="Mask Group 2" clip-path="url(#clip-path)">
    <text id="LANGUAGE_SETTINGS_SIGN_IN_" data-name="LANGUAGE             SETTINGS            SIGN IN " transform="translate(1329.311 41.292)" font-size="12.016" font-family="Helvetica"><tspan x="141.98" y="9" xml:space="preserve">LANGUAGE             SETTINGS            SIGN IN </tspan></text>
    <line id="Line_13" data-name="Line 13" y1="120.093" x2="39.1" transform="translate(1513.639 -10.241)" fill="#94a8b8"/>
    <line id="Line_14" data-name="Line 14" y1="120.093" x2="39.1" transform="translate(1680.104 2.65)" fill="#94a8b8"/>
    <g id="Group_3968" data-name="Group 3968" transform="translate(0 -223.217)">
      <rect id="Rectangle_117" data-name="Rectangle 117" width="751.874" height="107.053" transform="translate(583.41 210.376)" fill="#2b3840"/>
      <rect id="Rectangle_118" data-name="Rectangle 118" width="751.874" height="59.694" transform="translate(583.41 210.376)" fill="#e6e7e8" style="mix-blend-mode: multiply;isolation: isolate"/>
      <path id="Path_7934" data-name="Path 7934" d="M-2,270.577H509.271L647.689,132.159H957.347v-244.6H-2Z" transform="translate(2 112.441)" fill="#32434b"/>
      <path id="Path_7935" data-name="Path 7935" d="M-2,245.69V-112.441H932.46V107.272H637.38L498.964,245.69Z" transform="translate(2 112.441)" fill="#2b3840"/>
      <rect id="Rectangle_119" data-name="Rectangle 119" width="156.517" height="89.873" transform="translate(934.46 200.192) rotate(180)" fill="#e6e7e8" style="mix-blend-mode: multiply;isolation: isolate"/>
      <path id="Path_7936" data-name="Path 7936" d="M1641.347,270.577H1130.076L991.657,132.159H682v-244.6h959.347Z" transform="translate(277.347 112.441)" fill="#32434b"/>
      <path id="Path_7937" data-name="Path 7937" d="M1133.241,245.69,994.823,107.272H699.744V-112.441H1634.2V245.69Z" transform="translate(284.49 112.441)" fill="#2b3840"/>
      <rect id="Rectangle_120" data-name="Rectangle 120" width="445.154" height="218.936" transform="translate(1473.539 139.195)" fill="#51616a"/>
      <rect id="Rectangle_121" data-name="Rectangle 121" width="156.517" height="89.873" transform="translate(984.233 110.319)" fill="#e6e7e8" style="mix-blend-mode: multiply;isolation: isolate"/>
      <g id="Group_3948" data-name="Group 3948" transform="translate(1016.547 119.002)">
        <g id="Group_3944" data-name="Group 3944" transform="translate(0 0)">
          <path id="Path_7938" data-name="Path 7938" d="M737.421,1.683a14.655,14.655,0,0,1-14.639-14.637,14.655,14.655,0,0,1,14.639-14.64,14.655,14.655,0,0,1,14.638,14.64A14.655,14.655,0,0,1,737.421,1.683Z" transform="translate(-722.783 27.594)" fill="#e6e7e8" style="mix-blend-mode: multiply;isolation: isolate"/>
          <path id="Path_7939" data-name="Path 7939" d="M747.751-13.916A11.29,11.29,0,0,1,736.461-2.626,11.29,11.29,0,0,1,725.17-13.916a11.29,11.29,0,0,1,11.291-11.291A11.29,11.29,0,0,1,747.751-13.916Z" transform="translate(-721.822 28.555)" fill="#ff7d6c"/>
          <path id="Path_7940" data-name="Path 7940" d="M742.359-23.737a11.222,11.222,0,0,1,2.062,6.49A11.291,11.291,0,0,1,733.13-5.957a11.23,11.23,0,0,1-6.491-2.062,11.271,11.271,0,0,0,9.23,4.8A11.29,11.29,0,0,0,747.16-14.508,11.266,11.266,0,0,0,742.359-23.737Z" transform="translate(-721.231 29.147)" fill="#e6e7e8" style="mix-blend-mode: multiply;isolation: isolate"/>
        </g>
        <g id="Group_3945" data-name="Group 3945" transform="translate(40.816 0)">
          <path id="Path_7941" data-name="Path 7941" d="M766.522,1.683a14.655,14.655,0,0,1-14.639-14.637,14.655,14.655,0,0,1,14.639-14.64,14.655,14.655,0,0,1,14.637,14.64A14.654,14.654,0,0,1,766.522,1.683Z" transform="translate(-751.884 27.594)" fill="#e6e7e8" style="mix-blend-mode: multiply;isolation: isolate"/>
          <path id="Path_7942" data-name="Path 7942" d="M776.852-13.916A11.291,11.291,0,0,1,765.562-2.626a11.29,11.29,0,0,1-11.291-11.291,11.29,11.29,0,0,1,11.291-11.291A11.291,11.291,0,0,1,776.852-13.916Z" transform="translate(-750.923 28.555)" fill="#3ebfb4"/>
          <path id="Path_7943" data-name="Path 7943" d="M771.46-23.737a11.221,11.221,0,0,1,2.06,6.49A11.29,11.29,0,0,1,762.23-5.957a11.225,11.225,0,0,1-6.49-2.062,11.271,11.271,0,0,0,9.23,4.8,11.291,11.291,0,0,0,11.291-11.291A11.266,11.266,0,0,0,771.46-23.737Z" transform="translate(-750.332 29.147)" fill="#e6e7e8" style="mix-blend-mode: multiply;isolation: isolate"/>
        </g>
        <g id="Group_3946" data-name="Group 3946" transform="translate(0 43.231)">
          <path id="Path_7944" data-name="Path 7944" d="M737.421,32.5A14.638,14.638,0,1,1,752.06,17.867,14.655,14.655,0,0,1,737.421,32.5Z" transform="translate(-722.783 -3.229)" fill="#e6e7e8" style="mix-blend-mode: multiply;isolation: isolate"/>
          <path id="Path_7945" data-name="Path 7945" d="M747.751,16.907A11.291,11.291,0,1,1,736.461,5.616,11.29,11.29,0,0,1,747.751,16.907Z" transform="translate(-721.822 -2.268)" fill="#feca7a"/>
          <path id="Path_7946" data-name="Path 7946" d="M742.359,7.085a11.281,11.281,0,0,1-15.72,15.72,11.285,11.285,0,1,0,15.72-15.72Z" transform="translate(-721.231 -1.677)" fill="#e6e7e8" style="mix-blend-mode: multiply;isolation: isolate"/>
        </g>
        <g id="Group_3947" data-name="Group 3947" transform="translate(40.816 43.231)">
          <path id="Path_7947" data-name="Path 7947" d="M766.522,32.5a14.638,14.638,0,1,1,14.637-14.637A14.655,14.655,0,0,1,766.522,32.5Z" transform="translate(-751.884 -3.229)" fill="#e6e7e8" style="mix-blend-mode: multiply;isolation: isolate"/>
          <path id="Path_7948" data-name="Path 7948" d="M776.852,16.907A11.291,11.291,0,1,1,765.562,5.616,11.291,11.291,0,0,1,776.852,16.907Z" transform="translate(-750.923 -2.268)" fill="#f9f8f7"/>
          <path id="Path_7949" data-name="Path 7949" d="M771.46,7.085A11.281,11.281,0,0,1,755.74,22.8a11.285,11.285,0,1,0,15.72-15.72Z" transform="translate(-750.332 -1.677)" fill="#e6e7e8" style="mix-blend-mode: multiply;isolation: isolate"/>
        </g>
      </g>
      <g id="Group_3953" data-name="Group 3953" transform="translate(832.055 119.002)">
        <g id="Group_3949" data-name="Group 3949" transform="translate(0 0)">
          <path id="Path_7950" data-name="Path 7950" d="M605.88,1.683a14.654,14.654,0,0,1-14.637-14.637,14.654,14.654,0,0,1,14.637-14.64,14.655,14.655,0,0,1,14.638,14.64A14.655,14.655,0,0,1,605.88,1.683Z" transform="translate(-591.243 27.594)" fill="#e6e7e8" style="mix-blend-mode: multiply;isolation: isolate"/>
          <path id="Path_7951" data-name="Path 7951" d="M616.21-13.916A11.29,11.29,0,0,1,604.92-2.626a11.291,11.291,0,0,1-11.291-11.291A11.291,11.291,0,0,1,604.92-25.207,11.29,11.29,0,0,1,616.21-13.916Z" transform="translate(-590.283 28.555)" fill="#ff7d6c"/>
          <path id="Path_7952" data-name="Path 7952" d="M610.819-23.737a11.231,11.231,0,0,1,2.06,6.49,11.29,11.29,0,0,1-11.29,11.291,11.222,11.222,0,0,1-6.49-2.062,11.268,11.268,0,0,0,9.229,4.8,11.29,11.29,0,0,0,11.291-11.291A11.265,11.265,0,0,0,610.819-23.737Z" transform="translate(-589.691 29.147)" fill="#e6e7e8" style="mix-blend-mode: multiply;isolation: isolate"/>
        </g>
        <g id="Group_3950" data-name="Group 3950" transform="translate(40.814 0)">
          <path id="Path_7953" data-name="Path 7953" d="M634.981,1.683a14.655,14.655,0,0,1-14.638-14.637,14.655,14.655,0,0,1,14.638-14.64,14.655,14.655,0,0,1,14.638,14.64A14.655,14.655,0,0,1,634.981,1.683Z" transform="translate(-620.343 27.594)" fill="#e6e7e8" style="mix-blend-mode: multiply;isolation: isolate"/>
          <path id="Path_7954" data-name="Path 7954" d="M645.311-13.916A11.29,11.29,0,0,1,634.021-2.626,11.29,11.29,0,0,1,622.73-13.916a11.29,11.29,0,0,1,11.291-11.291A11.29,11.29,0,0,1,645.311-13.916Z" transform="translate(-619.382 28.555)" fill="#3ebfb4"/>
          <path id="Path_7955" data-name="Path 7955" d="M639.919-23.737a11.22,11.22,0,0,1,2.06,6.49A11.29,11.29,0,0,1,630.69-5.957,11.23,11.23,0,0,1,624.2-8.019a11.271,11.271,0,0,0,9.23,4.8A11.29,11.29,0,0,0,644.72-14.508,11.267,11.267,0,0,0,639.919-23.737Z" transform="translate(-618.791 29.147)" fill="#e6e7e8" style="mix-blend-mode: multiply;isolation: isolate"/>
        </g>
        <g id="Group_3951" data-name="Group 3951" transform="translate(0 43.231)">
          <path id="Path_7956" data-name="Path 7956" d="M605.88,32.5a14.638,14.638,0,1,1,14.638-14.637A14.654,14.654,0,0,1,605.88,32.5Z" transform="translate(-591.243 -3.229)" fill="#e6e7e8" style="mix-blend-mode: multiply;isolation: isolate"/>
          <path id="Path_7957" data-name="Path 7957" d="M616.21,16.907A11.291,11.291,0,1,1,604.92,5.616,11.29,11.29,0,0,1,616.21,16.907Z" transform="translate(-590.283 -2.268)" fill="#feca7a"/>
          <path id="Path_7958" data-name="Path 7958" d="M610.819,7.085A11.281,11.281,0,0,1,595.1,22.8a11.284,11.284,0,1,0,15.72-15.72Z" transform="translate(-589.691 -1.677)" fill="#e6e7e8" style="mix-blend-mode: multiply;isolation: isolate"/>
        </g>
        <g id="Group_3952" data-name="Group 3952" transform="translate(40.814 43.231)">
          <path id="Path_7959" data-name="Path 7959" d="M634.981,32.5A14.638,14.638,0,1,1,649.62,17.867,14.655,14.655,0,0,1,634.981,32.5Z" transform="translate(-620.343 -3.229)" fill="#e6e7e8" style="mix-blend-mode: multiply;isolation: isolate"/>
          <path id="Path_7960" data-name="Path 7960" d="M645.311,16.907A11.291,11.291,0,1,1,634.021,5.616,11.29,11.29,0,0,1,645.311,16.907Z" transform="translate(-619.382 -2.268)" fill="#f9f8f7"/>
          <path id="Path_7961" data-name="Path 7961" d="M639.919,7.085A11.281,11.281,0,0,1,624.2,22.8a11.285,11.285,0,1,0,15.72-15.72Z" transform="translate(-618.791 -1.677)" fill="#e6e7e8" style="mix-blend-mode: multiply;isolation: isolate"/>
        </g>
      </g>
      <rect id="Rectangle_127" data-name="Rectangle 127" width="698.787" height="65.834" transform="translate(206.523)" fill="#e6e7e8" style="mix-blend-mode: multiply;isolation: isolate"/>
      <rect id="Rectangle_128" data-name="Rectangle 128" width="698.787" height="65.834" transform="translate(1712.171 65.834) rotate(180)" fill="#e6e7e8" style="mix-blend-mode: multiply;isolation: isolate"/>
      <g id="Group_3956" data-name="Group 3956" transform="translate(1195.214 105.528)">
        <g id="Group_3954" data-name="Group 3954" style="mix-blend-mode: multiply;isolation: isolate">
          <path id="Path_7962" data-name="Path 7962" d="M899.9,62.255a49.728,49.728,0,1,1,49.726-49.729A49.784,49.784,0,0,1,899.9,62.255Zm0-94.34a44.612,44.612,0,1,0,44.61,44.611A44.662,44.662,0,0,0,899.9-32.084Z" transform="translate(-850.17 37.201)" fill="#e6e7e8"/>
        </g>
        <g id="Group_3955" data-name="Group 3955" transform="translate(12.441 12.445)" style="mix-blend-mode: multiply;isolation: isolate">
          <path id="Path_7963" data-name="Path 7963" d="M896.325,46.239A37.283,37.283,0,1,1,933.612,8.956,37.326,37.326,0,0,1,896.325,46.239Zm0-69.45A32.167,32.167,0,1,0,928.5,8.956,32.2,32.2,0,0,0,896.325-23.211Z" transform="translate(-859.04 28.328)" fill="#e6e7e8"/>
        </g>
        <path id="Path_7964" data-name="Path 7964" d="M892.019,26.932A22.307,22.307,0,0,1,869.737,4.651a22.283,22.283,0,1,1,44.566,0A22.307,22.307,0,0,1,892.019,26.932Z" transform="translate(-842.293 45.078)" fill="#e6e7e8" style="mix-blend-mode: multiply;isolation: isolate"/>
      </g>
      <g id="Group_3959" data-name="Group 3959" transform="translate(464.46 263.903)">
        <g id="Group_3957" data-name="Group 3957" style="mix-blend-mode: multiply;isolation: isolate">
          <path id="Path_7965" data-name="Path 7965" d="M473.976,24.912A31.091,31.091,0,0,1,442.921-6.145,31.091,31.091,0,0,1,473.976-37.2,31.091,31.091,0,0,1,505.033-6.145,31.092,31.092,0,0,1,473.976,24.912Zm0-58.918a27.892,27.892,0,0,0-27.86,27.861,27.892,27.892,0,0,0,27.86,27.862A27.893,27.893,0,0,0,501.837-6.145,27.893,27.893,0,0,0,473.976-34.006Z" transform="translate(-442.921 37.201)" fill="#e6e7e8"/>
        </g>
        <g id="Group_3958" data-name="Group 3958" transform="translate(7.77 7.772)" style="mix-blend-mode: multiply;isolation: isolate">
          <path id="Path_7966" data-name="Path 7966" d="M475.078,18.241A23.311,23.311,0,0,1,451.791-5.043a23.312,23.312,0,0,1,23.287-23.285A23.312,23.312,0,0,1,498.364-5.043,23.311,23.311,0,0,1,475.078,18.241Zm0-43.374a20.114,20.114,0,0,0-20.091,20.09,20.114,20.114,0,0,0,20.091,20.089A20.112,20.112,0,0,0,495.168-5.043,20.112,20.112,0,0,0,475.078-25.133Z" transform="translate(-451.791 28.328)" fill="#e6e7e8"/>
        </g>
        <path id="Path_7967" data-name="Path 7967" d="M476.4,10.2A13.931,13.931,0,0,0,490.321-3.716,13.932,13.932,0,0,0,476.4-17.633,13.932,13.932,0,0,0,462.488-3.716,13.931,13.931,0,0,0,476.4,10.2Z" transform="translate(-445.349 34.773)" fill="#e6e7e8" style="mix-blend-mode: multiply;isolation: isolate"/>
      </g>
      <path id="Path_7968" data-name="Path 7968" d="M1088.2-4.585V-65.5h-12.443V-4.585H962.715V-65.5H950.272V7.859h125.483V226.795H1088.2V7.859h445.154V-4.585Z" transform="translate(385.341 131.337)" fill="#e6e7e8" style="mix-blend-mode: multiply;isolation: isolate"/>
      <g id="Group_3963" data-name="Group 3963" transform="translate(1371.699 167.641)">
        <g id="Group_3960" data-name="Group 3960" transform="translate(0 0)">
          <path id="Path_7969" data-name="Path 7969" d="M990.245,35.575a14.245,14.245,0,0,1,0-28.49h54.044a14.245,14.245,0,1,1,0,28.49Z" transform="translate(-976.001 -7.085)" fill="#e6e7e8" style="mix-blend-mode: multiply;isolation: isolate"/>
          <path id="Path_7970" data-name="Path 7970" d="M1042.5,27.568H988.46a8.025,8.025,0,0,1-8.024-8.024h0a8.025,8.025,0,0,1,8.024-8.024H1042.5a8.024,8.024,0,0,1,8.023,8.024h0A8.024,8.024,0,0,1,1042.5,27.568Z" transform="translate(-974.216 -5.3)" fill="#ff7d6c"/>
          <path id="Path_7971" data-name="Path 7971" d="M1045.456,11.975a8.022,8.022,0,0,1-7.386,11.157H984.026a7.993,7.993,0,0,1-3.135-.637,8.023,8.023,0,0,0,7.386,4.889h54.044a8.024,8.024,0,0,0,3.135-15.41Z" transform="translate(-974.032 -5.117)" fill="#e6e7e8" style="mix-blend-mode: multiply;isolation: isolate"/>
        </g>
        <g id="Group_3961" data-name="Group 3961" transform="translate(0 28.49)">
          <path id="Path_7972" data-name="Path 7972" d="M990.245,55.888a14.245,14.245,0,0,1,0-28.49h54.044a14.245,14.245,0,1,1,0,28.49Z" transform="translate(-976.001 -27.398)" fill="#e6e7e8" style="mix-blend-mode: multiply;isolation: isolate"/>
          <path id="Path_7973" data-name="Path 7973" d="M1042.5,47.88H988.46a8.024,8.024,0,0,1-8.024-8.023h0a8.024,8.024,0,0,1,8.024-8.024H1042.5a8.023,8.023,0,0,1,8.023,8.024h0A8.023,8.023,0,0,1,1042.5,47.88Z" transform="translate(-974.216 -25.613)" fill="#3ebfb4"/>
          <path id="Path_7974" data-name="Path 7974" d="M1045.456,32.287a8.023,8.023,0,0,1-7.386,11.159H984.026a7.993,7.993,0,0,1-3.135-.637,8.023,8.023,0,0,0,7.386,4.888h54.044a8.024,8.024,0,0,0,3.135-15.41Z" transform="translate(-974.032 -25.43)" fill="#e6e7e8" style="mix-blend-mode: multiply;isolation: isolate"/>
        </g>
        <g id="Group_3962" data-name="Group 3962" transform="translate(0 56.98)">
          <path id="Path_7975" data-name="Path 7975" d="M990.245,76.2a14.244,14.244,0,0,1,0-28.489h54.044a14.244,14.244,0,1,1,0,28.489Z" transform="translate(-976.001 -47.711)" fill="#e6e7e8" style="mix-blend-mode: multiply;isolation: isolate"/>
          <path id="Path_7976" data-name="Path 7976" d="M1042.5,68.193H988.46a8.024,8.024,0,0,1-8.024-8.024h0a8.024,8.024,0,0,1,8.024-8.023H1042.5a8.023,8.023,0,0,1,8.023,8.023h0A8.023,8.023,0,0,1,1042.5,68.193Z" transform="translate(-974.216 -45.926)" fill="#51616a"/>
          <path id="Path_7977" data-name="Path 7977" d="M1045.456,52.6a8.023,8.023,0,0,1-7.386,11.159H984.026a7.993,7.993,0,0,1-3.135-.637,8.023,8.023,0,0,0,7.386,4.888h54.044a8.024,8.024,0,0,0,3.135-15.41Z" transform="translate(-974.032 -45.743)" fill="#e6e7e8" style="mix-blend-mode: multiply;isolation: isolate"/>
        </g>
      </g>
      <g id="Group_3967" data-name="Group 3967" transform="translate(464.46 167.641)">
        <g id="Group_3964" data-name="Group 3964" transform="translate(0 0)">
          <path id="Path_7978" data-name="Path 7978" d="M343.4,35.575a14.245,14.245,0,1,1,0-28.49h54.045a14.245,14.245,0,0,1,0,28.49Z" transform="translate(-329.153 -7.085)" fill="#e6e7e8" style="mix-blend-mode: multiply;isolation: isolate"/>
          <path id="Path_7979" data-name="Path 7979" d="M395.656,27.568H341.613a8.024,8.024,0,0,1-8.024-8.024h0a8.024,8.024,0,0,1,8.024-8.024h54.043a8.024,8.024,0,0,1,8.024,8.024h0A8.024,8.024,0,0,1,395.656,27.568Z" transform="translate(-327.367 -5.3)" fill="#ff7d6c"/>
          <path id="Path_7980" data-name="Path 7980" d="M398.61,11.975a8.025,8.025,0,0,1-7.387,11.157H337.179a8,8,0,0,1-3.136-.637,8.025,8.025,0,0,0,7.387,4.889h54.043a8.024,8.024,0,0,0,3.136-15.41Z" transform="translate(-327.185 -5.117)" fill="#e6e7e8" style="mix-blend-mode: multiply;isolation: isolate"/>
        </g>
        <g id="Group_3965" data-name="Group 3965" transform="translate(0 28.49)">
          <path id="Path_7981" data-name="Path 7981" d="M343.4,55.888a14.245,14.245,0,1,1,0-28.49h54.045a14.245,14.245,0,0,1,0,28.49Z" transform="translate(-329.153 -27.398)" fill="#e6e7e8" style="mix-blend-mode: multiply;isolation: isolate"/>
          <path id="Path_7982" data-name="Path 7982" d="M395.656,47.88H341.613a8.023,8.023,0,0,1-8.024-8.023h0a8.023,8.023,0,0,1,8.024-8.024h54.043a8.023,8.023,0,0,1,8.024,8.024h0A8.023,8.023,0,0,1,395.656,47.88Z" transform="translate(-327.367 -25.613)" fill="#3ebfb4"/>
          <path id="Path_7983" data-name="Path 7983" d="M398.61,32.287a8.026,8.026,0,0,1-7.387,11.159H337.179a8,8,0,0,1-3.136-.637A8.026,8.026,0,0,0,341.43,47.7h54.043a8.024,8.024,0,0,0,3.136-15.41Z" transform="translate(-327.185 -25.43)" fill="#e6e7e8" style="mix-blend-mode: multiply;isolation: isolate"/>
        </g>
        <g id="Group_3966" data-name="Group 3966" transform="translate(0 56.98)">
          <path id="Path_7984" data-name="Path 7984" d="M343.4,76.2a14.244,14.244,0,1,1,0-28.489h54.045a14.244,14.244,0,1,1,0,28.489Z" transform="translate(-329.153 -47.711)" fill="#e6e7e8" style="mix-blend-mode: multiply;isolation: isolate"/>
          <path id="Path_7985" data-name="Path 7985" d="M395.656,68.193H341.613a8.023,8.023,0,0,1-8.024-8.024h0a8.023,8.023,0,0,1,8.024-8.023h54.043a8.023,8.023,0,0,1,8.024,8.023h0A8.023,8.023,0,0,1,395.656,68.193Z" transform="translate(-327.367 -45.926)" fill="#4b5a62"/>
          <path id="Path_7986" data-name="Path 7986" d="M398.61,52.6a8.026,8.026,0,0,1-7.387,11.159H337.179a8,8,0,0,1-3.136-.637,8.026,8.026,0,0,0,7.387,4.888h54.043A8.024,8.024,0,0,0,398.61,52.6Z" transform="translate(-327.185 -45.743)" fill="#e6e7e8" style="mix-blend-mode: multiply;isolation: isolate"/>
        </g>
      </g>
      <rect id="Rectangle_129" data-name="Rectangle 129" width="113.04" height="60.917" transform="translate(1348.056 65.835)" fill="#32434b"/>
      <rect id="Rectangle_130" data-name="Rectangle 130" width="445.154" height="218.936" transform="translate(445.154 358.131) rotate(180)" fill="#51616a"/>
      <path id="Path_7987" data-name="Path 7987" d="M443.154-4.585V-65.5H455.6V-4.585h113.04V-65.5h12.443V7.859H455.6V226.795H443.154V7.859H-2V-4.585Z" transform="translate(2 131.337)" fill="#e6e7e8" style="mix-blend-mode: multiply;isolation: isolate"/>
      <rect id="Rectangle_131" data-name="Rectangle 131" width="113.04" height="60.917" transform="translate(570.638 126.752) rotate(180)" fill="#32434b"/>
      <g id="Group_4727" data-name="Group 4727" transform="translate(1392.122 263.903)">
        <g id="Group_3957-2" data-name="Group 3957" style="mix-blend-mode: multiply;isolation: isolate">
          <path id="Path_7965-2" data-name="Path 7965" d="M473.976,24.912A31.091,31.091,0,0,1,442.921-6.145,31.091,31.091,0,0,1,473.976-37.2,31.091,31.091,0,0,1,505.033-6.145,31.092,31.092,0,0,1,473.976,24.912Zm0-58.918a27.892,27.892,0,0,0-27.86,27.861,27.892,27.892,0,0,0,27.86,27.862A27.893,27.893,0,0,0,501.837-6.145,27.893,27.893,0,0,0,473.976-34.006Z" transform="translate(-442.921 37.201)" fill="#e6e7e8"/>
        </g>
        <g id="Group_3958-2" data-name="Group 3958" transform="translate(7.77 7.772)" style="mix-blend-mode: multiply;isolation: isolate">
          <path id="Path_7966-2" data-name="Path 7966" d="M475.078,18.241A23.311,23.311,0,0,1,451.791-5.043a23.312,23.312,0,0,1,23.287-23.285A23.312,23.312,0,0,1,498.364-5.043,23.311,23.311,0,0,1,475.078,18.241Zm0-43.374a20.114,20.114,0,0,0-20.091,20.09,20.114,20.114,0,0,0,20.091,20.089A20.112,20.112,0,0,0,495.168-5.043,20.112,20.112,0,0,0,475.078-25.133Z" transform="translate(-451.791 28.328)" fill="#e6e7e8"/>
        </g>
        <path id="Path_7967-2" data-name="Path 7967" d="M476.4,10.2A13.931,13.931,0,0,0,490.321-3.716,13.932,13.932,0,0,0,476.4-17.633,13.932,13.932,0,0,0,462.488-3.716,13.931,13.931,0,0,0,476.4,10.2Z" transform="translate(-445.349 34.773)" fill="#e6e7e8" style="mix-blend-mode: multiply;isolation: isolate"/>
      </g>
    </g>
    <rect id="Rectangle_221" data-name="Rectangle 221" width="377.817" height="169.354" transform="translate(27.838 16.291)" fill="none"/>
    <g id="Group_4704" data-name="Group 4704" transform="translate(-1172.155 -200.386)">
      <path id="Path_9023" data-name="Path 9023" d="M1478.935,222.98a2.715,2.715,0,0,1-2.707,2.707h-.167a2.716,2.716,0,0,1-2.707-2.707v-7.086h-6.984v7.088a2.715,2.715,0,0,1-2.707,2.707h-.167a2.715,2.715,0,0,1-2.707-2.707v-7.088h-6.984v7.088a2.715,2.715,0,0,1-2.707,2.707h-.167a2.716,2.716,0,0,1-2.707-2.707v-7.088h-6.983v7.088a2.716,2.716,0,0,1-2.707,2.707h-.167a2.716,2.716,0,0,1-2.707-2.707v-7.088h-6.987v7.088a2.715,2.715,0,0,1-2.707,2.707h-.167a2.716,2.716,0,0,1-2.707-2.707v-7.088h-6.984v7.088a2.715,2.715,0,0,1-2.707,2.707h-.167a2.716,2.716,0,0,1-2.707-2.707v-7.088h-6.984v7.088a2.716,2.716,0,0,1-2.707,2.707h-.167a2.715,2.715,0,0,1-2.707-2.707v-7.088h-6.984v7.088a2.715,2.715,0,0,1-2.707,2.707h-.167a2.715,2.715,0,0,1-2.707-2.707v-7.088h-6.984v7.088a2.715,2.715,0,0,1-2.707,2.707h-.167a2.715,2.715,0,0,1-2.707-2.707v-7.088h-6.984v7.088a2.716,2.716,0,0,1-2.707,2.707h-.167a2.716,2.716,0,0,1-2.707-2.707v-7.088h-6.983v7.088a2.715,2.715,0,0,1-2.707,2.707h-.167a2.716,2.716,0,0,1-2.707-2.707v-7.088h-6.984v7.088a2.716,2.716,0,0,1-2.707,2.707h-.167a2.715,2.715,0,0,1-2.707-2.707v-7.088h-6.984v7.088a2.716,2.716,0,0,1-2.707,2.707h-.167a2.716,2.716,0,0,1-2.707-2.707v-7.088H1315.6v7.088a2.715,2.715,0,0,1-2.707,2.707h-.167a2.716,2.716,0,0,1-2.707-2.707v-7.088h-6.984v7.088a2.715,2.715,0,0,1-2.707,2.707h-.167a2.715,2.715,0,0,1-2.707-2.707v-7.088h-6.984v7.088a2.715,2.715,0,0,1-2.706,2.707h-.167a2.716,2.716,0,0,1-2.707-2.707v-7.088H1277.9v7.088a2.716,2.716,0,0,1-2.707,2.707h-.167a2.716,2.716,0,0,1-2.707-2.707v-7.088h-6.986v7.088a2.715,2.715,0,0,1-2.707,2.707h-.167a2.715,2.715,0,0,1-2.707-2.707v-7.088h-6.984v7.088a2.715,2.715,0,0,1-2.707,2.707h-.167a2.716,2.716,0,0,1-2.707-2.707v-7.088h-6.983v7.088a2.715,2.715,0,0,1-2.707,2.707h-.167a2.716,2.716,0,0,1-2.707-2.707v-7.088h-.329a3.951,3.951,0,0,0-3.94,3.94v96.214a3.949,3.949,0,0,0,3.755,3.931V312.3a2.716,2.716,0,0,1,2.707-2.707h.167a2.715,2.715,0,0,1,2.707,2.707v7.689h6.984V312.3a2.716,2.716,0,0,1,2.707-2.707h.167a2.715,2.715,0,0,1,2.707,2.707v7.689h6.984V312.3a2.716,2.716,0,0,1,2.707-2.707h.167a2.715,2.715,0,0,1,2.707,2.707v7.689h6.984V312.3a2.716,2.716,0,0,1,2.707-2.707h.167a2.715,2.715,0,0,1,2.707,2.707v7.689h6.984V312.3a2.716,2.716,0,0,1,2.707-2.707h.167a2.715,2.715,0,0,1,2.707,2.707v7.689h6.984V312.3a2.715,2.715,0,0,1,2.707-2.707h.167a2.716,2.716,0,0,1,2.707,2.707v7.689h6.984V312.3a2.715,2.715,0,0,1,2.707-2.707h.167a2.716,2.716,0,0,1,2.707,2.707v7.689h6.984V312.3a2.716,2.716,0,0,1,2.707-2.707h.167a2.716,2.716,0,0,1,2.707,2.707v7.689h6.984V312.3a2.715,2.715,0,0,1,2.707-2.707h.167a2.716,2.716,0,0,1,2.707,2.707v7.689h6.984V312.3a2.716,2.716,0,0,1,2.707-2.707h.167a2.716,2.716,0,0,1,2.707,2.707v7.689h6.984V312.3a2.716,2.716,0,0,1,2.706-2.707h.167a2.716,2.716,0,0,1,2.707,2.707v7.689h6.984V312.3a2.715,2.715,0,0,1,2.707-2.707h.167a2.715,2.715,0,0,1,2.707,2.707v7.689h6.984V312.3a2.716,2.716,0,0,1,2.707-2.707h.167a2.715,2.715,0,0,1,2.707,2.707v7.689h6.984V312.3a2.716,2.716,0,0,1,2.707-2.707h.167a2.715,2.715,0,0,1,2.707,2.707v7.689h6.984V312.3a2.715,2.715,0,0,1,2.707-2.707h.167a2.716,2.716,0,0,1,2.707,2.707v7.689h6.984V312.3a2.716,2.716,0,0,1,2.707-2.707h.167a2.716,2.716,0,0,1,2.707,2.707v7.689h6.984V312.3a2.716,2.716,0,0,1,2.707-2.707h.167a2.715,2.715,0,0,1,2.707,2.707v7.689h6.984V312.3a2.716,2.716,0,0,1,2.707-2.707h.167a2.715,2.715,0,0,1,2.707,2.707v7.689h6.984V312.3a2.716,2.716,0,0,1,2.707-2.707h.167a2.716,2.716,0,0,1,2.707,2.707v7.689h6.984V312.3a2.716,2.716,0,0,1,2.707-2.707h.167a2.715,2.715,0,0,1,2.707,2.707v7.689h.184a3.951,3.951,0,0,0,3.939-3.94V283.431h-7.576a2.716,2.716,0,0,1-2.707-2.707v-.167a2.716,2.716,0,0,1,2.707-2.707h7.576v-6.984h-7.576a2.716,2.716,0,0,1-2.707-2.707v-.167a2.716,2.716,0,0,1,2.707-2.707h7.576V258.3h-7.576a2.716,2.716,0,0,1-2.707-2.707v-.167a2.716,2.716,0,0,1,2.707-2.707h7.576V219.834a3.949,3.949,0,0,0-3.611-3.923v7.069Zm-244.967,73.146a6.4,6.4,0,1,1,6.4,6.4,6.4,6.4,0,0,1-6.4-6.4Zm244.967-.329a6.4,6.4,0,1,1-6.4-6.4A6.4,6.4,0,0,1,1478.935,295.8Zm-.329-55.823a6.4,6.4,0,1,1-6.4-6.4,6.4,6.4,0,0,1,6.4,6.4Zm-231.833-.329a6.4,6.4,0,1,1-6.4-6.4h0A6.4,6.4,0,0,1,1246.773,239.645Z" transform="translate(-26.58 -1.082)" fill="#3e9a44"/>
      <path id="Path_9024" data-name="Path 9024" d="M1241.54,549.225v6.567a3.554,3.554,0,0,0,.142.986h1.173a2.3,2.3,0,0,1,4.6,0h1.173a3.544,3.544,0,0,0,.142-.986v-6.567a3.62,3.62,0,0,0-3.611-3.611h0A3.622,3.622,0,0,0,1241.54,549.225Zm5.912,0a2.3,2.3,0,1,1-2.3-2.3h0a2.3,2.3,0,0,1,2.3,2.3Z" transform="translate(-34.591 -237.351)" fill="#9a926a"/>
      <path id="Path_9025" data-name="Path 9025" d="M1285.96,549.225v6.567a3.558,3.558,0,0,0,.142.986h1.173a2.3,2.3,0,1,1,4.6,0h1.173a3.535,3.535,0,0,0,.142-.986v-6.567a3.62,3.62,0,0,0-3.611-3.611h0A3.619,3.619,0,0,0,1285.96,549.225Zm5.909,0a2.3,2.3,0,1,1-2.3-2.3h0a2.3,2.3,0,0,1,2.3,2.3Z" transform="translate(-66.421 -237.351)" fill="#9a926a"/>
      <path id="Path_9026" data-name="Path 9026" d="M1329.98,549.225v6.567a3.549,3.549,0,0,0,.142.986h1.173a2.3,2.3,0,1,1,4.6,0h1.174a3.549,3.549,0,0,0,.142-.986V545.614h-7.222v3.611Zm5.912,0a2.3,2.3,0,1,1-2.3-2.3h0a2.3,2.3,0,0,1,2.3,2.3Z" transform="translate(-97.965 -237.351)" fill="#9a926a"/>
      <path id="Path_9027" data-name="Path 9027" d="M1374.19,549.225v6.567a3.558,3.558,0,0,0,.142.986h1.173a2.3,2.3,0,1,1,4.6,0h1.173a3.549,3.549,0,0,0,.142-.986v-6.567a3.62,3.62,0,0,0-3.611-3.611h0A3.62,3.62,0,0,0,1374.19,549.225Zm5.909,0a2.3,2.3,0,1,1-2.3-2.3h0a2.3,2.3,0,0,1,2.3,2.3Z" transform="translate(-129.645 -237.351)" fill="#9a926a"/>
      <path id="Path_9028" data-name="Path 9028" d="M1418.6,549.225v6.567a3.563,3.563,0,0,0,.142.986h1.173a2.3,2.3,0,1,1,4.6,0h1.173a3.531,3.531,0,0,0,.142-.986v-6.567a3.62,3.62,0,0,0-3.611-3.611h0A3.622,3.622,0,0,0,1418.6,549.225Zm5.912,0a2.3,2.3,0,1,1-2.3-2.3h0a2.3,2.3,0,0,1,2.3,2.3Z" transform="translate(-161.468 -237.351)" fill="#9a926a"/>
      <path id="Path_9029" data-name="Path 9029" d="M1463.45,549.225v6.567a3.563,3.563,0,0,0,.142.986h1.173a2.3,2.3,0,1,1,4.6,0h1.173a3.535,3.535,0,0,0,.142-.986v-6.567a3.62,3.62,0,0,0-3.611-3.611h0A3.622,3.622,0,0,0,1463.45,549.225Zm5.912,0a2.3,2.3,0,1,1-2.3-2.3h0a2.3,2.3,0,0,1,2.3,2.3Z" transform="translate(-193.606 -237.351)" fill="#9a926a"/>
      <path id="Path_9030" data-name="Path 9030" d="M1507.86,549.225v6.567a3.567,3.567,0,0,0,.142.986h1.174a2.3,2.3,0,1,1,4.6,0h1.173a3.531,3.531,0,0,0,.142-.986v-6.567a3.62,3.62,0,0,0-3.611-3.611h0A3.622,3.622,0,0,0,1507.86,549.225Zm5.912,0a2.3,2.3,0,1,1-2.3-2.3h0a2.3,2.3,0,0,1,2.3,2.3Z" transform="translate(-225.429 -237.351)" fill="#9a926a"/>
      <path id="Path_9031" data-name="Path 9031" d="M1551.28,549.225v6.567a3.531,3.531,0,0,0,.142.986h1.173a2.3,2.3,0,1,1,4.6,0h1.171a3.54,3.54,0,0,0,.142-.986V545.614h-7.222v3.611Zm5.909,0a2.3,2.3,0,1,1-2.3-2.3h0a2.3,2.3,0,0,1,2.3,2.3Z" transform="translate(-256.543 -237.351)" fill="#9a926a"/>
      <path id="Path_9032" data-name="Path 9032" d="M1595.33,549.225v6.567a3.558,3.558,0,0,0,.141.986h1.173a2.3,2.3,0,1,1,4.6,0h1.173a3.531,3.531,0,0,0,.142-.986v-6.567a3.62,3.62,0,0,0-3.611-3.611h0A3.621,3.621,0,0,0,1595.33,549.225Zm5.912,0a2.3,2.3,0,1,1-2.3-2.3h0a2.3,2.3,0,0,1,2.3,2.3Z" transform="translate(-288.108 -237.351)" fill="#9a926a"/>
      <path id="Path_9033" data-name="Path 9033" d="M1639.75,549.225v6.567a3.554,3.554,0,0,0,.142.986h1.173a2.3,2.3,0,1,1,4.6,0h1.174a3.544,3.544,0,0,0,.142-.986v-6.567a3.62,3.62,0,0,0-3.611-3.611h0A3.619,3.619,0,0,0,1639.75,549.225Zm5.909,0a2.3,2.3,0,1,1-2.3-2.3h0a2.3,2.3,0,0,1,2.3,2.3Z" transform="translate(-319.939 -237.351)" fill="#9a926a"/>
      <path id="Path_9034" data-name="Path 9034" d="M1684.6,549.225v6.567a3.558,3.558,0,0,0,.142.986h1.173a2.3,2.3,0,0,1,4.6,0h1.173a3.554,3.554,0,0,0,.142-.986v-6.567a3.62,3.62,0,0,0-3.611-3.611h0A3.619,3.619,0,0,0,1684.6,549.225Zm5.909,0a2.3,2.3,0,1,1-2.3-2.3h0a2.3,2.3,0,0,1,2.3,2.3Z" transform="translate(-352.077 -237.351)" fill="#9a926a"/>
      <path id="Path_9035" data-name="Path 9035" d="M1729.01,549.225v6.567a3.545,3.545,0,0,0,.142.986h1.173a2.3,2.3,0,0,1,4.6,0h1.173a3.554,3.554,0,0,0,.142-.986v-6.567a3.621,3.621,0,0,0-3.611-3.611h0A3.62,3.62,0,0,0,1729.01,549.225Zm5.909,0a2.3,2.3,0,1,1-2.3-2.3h0a2.3,2.3,0,0,1,2.3,2.3Z" transform="translate(-383.9 -237.351)" fill="#9a926a"/>
      <path id="Path_9036" data-name="Path 9036" d="M1772.42,549.225v6.567a3.535,3.535,0,0,0,.142.986h1.173a2.3,2.3,0,0,1,4.6,0h1.173a3.545,3.545,0,0,0,.142-.986V545.614h-7.225v3.611Zm5.912,0a2.3,2.3,0,1,1-2.3-2.3h0a2.3,2.3,0,0,1,2.3,2.3Z" transform="translate(-415.007 -237.351)" fill="#9a926a"/>
      <path id="Path_9037" data-name="Path 9037" d="M1817.7,549.225v6.567a3.553,3.553,0,0,0,.142.986h1.173a2.3,2.3,0,0,1,4.6,0h1.173a3.549,3.549,0,0,0,.142-.986v-6.567a3.62,3.62,0,0,0-3.611-3.611h0A3.619,3.619,0,0,0,1817.7,549.225Zm5.91,0a2.3,2.3,0,1,1-2.3-2.3h0a2.3,2.3,0,0,1,2.3,2.3Z" transform="translate(-447.453 -237.351)" fill="#9a926a"/>
      <path id="Path_9038" data-name="Path 9038" d="M1862.11,549.225v6.567a3.54,3.54,0,0,0,.142.986h1.173a2.3,2.3,0,0,1,4.6,0h1.174a3.549,3.549,0,0,0,.141-.986v-6.567a3.62,3.62,0,0,0-3.611-3.611h0A3.619,3.619,0,0,0,1862.11,549.225Zm5.909,0a2.3,2.3,0,1,1-2.3-2.3h0a2.3,2.3,0,0,1,2.3,2.3Z" transform="translate(-479.276 -237.351)" fill="#9a926a"/>
      <path id="Path_9039" data-name="Path 9039" d="M1906.96,549.225v6.567a3.567,3.567,0,0,0,.142.986h1.174a2.3,2.3,0,0,1,4.6,0h1.174a3.54,3.54,0,0,0,.142-.986v-6.567a3.62,3.62,0,0,0-3.611-3.611h0A3.62,3.62,0,0,0,1906.96,549.225Zm5.909,0a2.3,2.3,0,1,1-2.3-2.3h0a2.3,2.3,0,0,1,2.3,2.3Z" transform="translate(-511.414 -237.351)" fill="#9a926a"/>
      <path id="Path_9040" data-name="Path 9040" d="M1951.37,549.225v6.567a3.54,3.54,0,0,0,.142.986h1.173a2.3,2.3,0,0,1,4.6,0h1.174a3.54,3.54,0,0,0,.141-.986v-6.567a3.62,3.62,0,0,0-3.611-3.611h0A3.622,3.622,0,0,0,1951.37,549.225Zm5.912,0a2.3,2.3,0,1,1-2.3-2.3h0a2.3,2.3,0,0,1,2.3,2.3Z" transform="translate(-543.237 -237.351)" fill="#9a926a"/>
      <path id="Path_9041" data-name="Path 9041" d="M1994.78,549.225v6.567a3.558,3.558,0,0,0,.142.986h1.173a2.3,2.3,0,0,1,4.6,0h1.174a3.558,3.558,0,0,0,.142-.986V545.614h-7.222v3.611Zm5.912,0a2.3,2.3,0,1,1-2.3-2.3h0a2.3,2.3,0,0,1,2.3,2.3Z" transform="translate(-574.344 -237.351)" fill="#9a926a"/>
      <path id="Path_9042" data-name="Path 9042" d="M2038.79,549.225v6.567a3.558,3.558,0,0,0,.142.986h1.173a2.3,2.3,0,0,1,4.6,0h1.174a3.558,3.558,0,0,0,.142-.986v-6.567a3.62,3.62,0,0,0-3.611-3.611h0A3.619,3.619,0,0,0,2038.79,549.225Zm5.909,0a2.3,2.3,0,1,1-2.3-2.3h0a2.3,2.3,0,0,1,2.3,2.3Z" transform="translate(-605.88 -237.351)" fill="#9a926a"/>
      <path id="Path_9043" data-name="Path 9043" d="M2083.2,549.225v6.567a3.558,3.558,0,0,0,.142.986h1.173a2.3,2.3,0,0,1,4.6,0h1.173a3.549,3.549,0,0,0,.142-.986v-6.567a3.62,3.62,0,0,0-3.611-3.611h0A3.622,3.622,0,0,0,2083.2,549.225Zm5.912,0a2.3,2.3,0,1,1-2.3-2.3h0a2.3,2.3,0,0,1,2.3,2.3Z" transform="translate(-637.704 -237.351)" fill="#9a926a"/>
      <path id="Path_9044" data-name="Path 9044" d="M2085.451,438.141h6.567A3.556,3.556,0,0,0,2093,438v-1.173a2.3,2.3,0,0,1,0-4.6h0v-1.173a3.541,3.541,0,0,0-.987-.142h-6.567a3.62,3.62,0,0,0-3.611,3.611h0A3.62,3.62,0,0,0,2085.451,438.141Zm0-5.909a2.3,2.3,0,1,1-2.3,2.3h0a2.3,2.3,0,0,1,2.3-2.3Z" transform="translate(-636.729 -155.16)" fill="#9a926a"/>
      <path id="Path_9045" data-name="Path 9045" d="M2085.451,394.731h6.567a3.554,3.554,0,0,0,.987-.142v-1.173a2.3,2.3,0,0,1,0-4.6h0v-1.173a3.545,3.545,0,0,0-.987-.142H2081.84v3.611h0v3.611h3.611Zm0-5.909a2.3,2.3,0,1,1-2.3,2.3h0a2.3,2.3,0,0,1,2.3-2.3Z" transform="translate(-636.729 -124.053)" fill="#9a926a"/>
      <path id="Path_9046" data-name="Path 9046" d="M2085.451,350.731h6.567a3.554,3.554,0,0,0,.987-.142v-1.173a2.3,2.3,0,0,1,0-4.6h0v-1.173a3.544,3.544,0,0,0-.987-.142h-6.567a3.62,3.62,0,0,0-3.611,3.611h0A3.622,3.622,0,0,0,2085.451,350.731Zm0-5.912a2.3,2.3,0,1,1-2.3,2.3h0a2.3,2.3,0,0,1,2.3-2.3Z" transform="translate(-636.729 -92.524)" fill="#9a926a"/>
      <path id="Path_9047" data-name="Path 9047" d="M1242.2,221.937V215.37a3.557,3.557,0,0,1,.142-.986h1.174a2.3,2.3,0,0,0,4.6,0h1.173a3.543,3.543,0,0,1,.142.986v6.567a3.62,3.62,0,0,1-3.611,3.611h0A3.622,3.622,0,0,1,1242.2,221.937Zm5.909,0a2.3,2.3,0,1,0-2.3,2.3,2.3,2.3,0,0,0,2.3-2.3Z" transform="translate(-35.064 0)" fill="#9a926a"/>
      <path id="Path_9048" data-name="Path 9048" d="M1286.61,221.937V215.37a3.547,3.547,0,0,1,.142-.986h1.173a2.3,2.3,0,1,0,4.6,0h1.173a3.521,3.521,0,0,1,.142.986v6.567a3.62,3.62,0,0,1-3.611,3.611h0A3.622,3.622,0,0,1,1286.61,221.937Zm5.909,0a2.3,2.3,0,1,0-2.3,2.3,2.3,2.3,0,0,0,2.3-2.3Z" transform="translate(-66.887 0)" fill="#9a926a"/>
      <path id="Path_9049" data-name="Path 9049" d="M1330.64,221.937V215.37a3.543,3.543,0,0,1,.141-.986h1.171a2.3,2.3,0,1,0,4.6,0h1.173a3.534,3.534,0,0,1,.142.986v10.178h-7.222v-3.611Zm5.909,0a2.3,2.3,0,1,0-2.3,2.3,2.3,2.3,0,0,0,2.3-2.3Z" transform="translate(-98.438 0)" fill="#9a926a"/>
      <path id="Path_9050" data-name="Path 9050" d="M1374.84,221.937V215.37a3.538,3.538,0,0,1,.142-.986h1.173a2.3,2.3,0,0,0,4.6,0h1.173a3.543,3.543,0,0,1,.141.986v6.567a3.62,3.62,0,0,1-3.611,3.611h0A3.623,3.623,0,0,1,1374.84,221.937Zm5.909,0a2.3,2.3,0,1,0-2.3,2.3,2.3,2.3,0,0,0,2.3-2.3Z" transform="translate(-130.111 0)" fill="#9a926a"/>
      <path id="Path_9051" data-name="Path 9051" d="M1419.25,221.937V215.37a3.552,3.552,0,0,1,.142-.986h1.173a2.3,2.3,0,0,0,4.6,0h1.173a3.534,3.534,0,0,1,.142.986v6.567a3.62,3.62,0,0,1-3.611,3.611h0A3.623,3.623,0,0,1,1419.25,221.937Zm5.912,0a2.3,2.3,0,1,0-2.3,2.3h0a2.3,2.3,0,0,0,2.3-2.3Z" transform="translate(-161.934 0)" fill="#9a926a"/>
      <path id="Path_9052" data-name="Path 9052" d="M1464.1,221.937V215.37a3.557,3.557,0,0,1,.142-.986h1.173a2.3,2.3,0,0,0,4.6,0h1.173a3.53,3.53,0,0,1,.142.986v6.567a3.62,3.62,0,0,1-3.611,3.611h0A3.623,3.623,0,0,1,1464.1,221.937Zm5.912,0a2.3,2.3,0,1,0-2.3,2.3h0a2.3,2.3,0,0,0,2.3-2.3Z" transform="translate(-194.072 0)" fill="#9a926a"/>
      <path id="Path_9053" data-name="Path 9053" d="M1508.52,221.937V215.37a3.552,3.552,0,0,1,.142-.986h1.173a2.3,2.3,0,1,0,4.6,0h1.173a3.539,3.539,0,0,1,.142.986v6.567a3.62,3.62,0,0,1-3.611,3.611h0A3.622,3.622,0,0,1,1508.52,221.937Zm5.909,0a2.3,2.3,0,1,0-2.3,2.3h0a2.3,2.3,0,0,0,2.3-2.3Z" transform="translate(-225.902 0)" fill="#9a926a"/>
      <path id="Path_9054" data-name="Path 9054" d="M1551.93,221.937V215.37a3.552,3.552,0,0,1,.142-.986h1.173a2.3,2.3,0,0,0,4.6,0h1.173a3.543,3.543,0,0,1,.142.986v10.178h-7.227Zm5.91,0a2.3,2.3,0,1,0-2.3,2.3h0a2.3,2.3,0,0,0,2.3-2.3Z" transform="translate(-257.009 0)" fill="#9a926a"/>
      <path id="Path_9055" data-name="Path 9055" d="M1595.99,221.937V215.37a3.543,3.543,0,0,1,.142-.986h1.173a2.3,2.3,0,1,0,4.6,0h1.173a3.543,3.543,0,0,1,.142.986v6.567a3.62,3.62,0,0,1-3.611,3.611h0A3.622,3.622,0,0,1,1595.99,221.937Zm5.909,0a2.3,2.3,0,1,0-2.3,2.3h0a2.3,2.3,0,0,0,2.3-2.3Z" transform="translate(-288.581 0)" fill="#9a926a"/>
      <path id="Path_9056" data-name="Path 9056" d="M1640.4,221.937V215.37a3.561,3.561,0,0,1,.142-.986h1.173a2.3,2.3,0,0,0,4.6,0h1.173a3.543,3.543,0,0,1,.142.986v6.567a3.621,3.621,0,0,1-3.611,3.611h0A3.622,3.622,0,0,1,1640.4,221.937Zm5.909,0a2.3,2.3,0,1,0-2.3,2.3h0a2.3,2.3,0,0,0,2.3-2.3Z" transform="translate(-320.404 0)" fill="#9a926a"/>
      <path id="Path_9057" data-name="Path 9057" d="M1685.25,221.937V215.37a3.543,3.543,0,0,1,.142-.986h1.173a2.3,2.3,0,0,0,4.6,0h1.173a3.548,3.548,0,0,1,.142.986v6.567a3.621,3.621,0,0,1-3.611,3.611h0A3.622,3.622,0,0,1,1685.25,221.937Zm5.909,0a2.3,2.3,0,1,0-2.3,2.3h0a2.3,2.3,0,0,0,2.3-2.3Z" transform="translate(-352.543 0)" fill="#9a926a"/>
      <path id="Path_9058" data-name="Path 9058" d="M1729.66,221.937V215.37a3.543,3.543,0,0,1,.142-.986h1.174a2.3,2.3,0,1,0,4.6.009v-.009h1.173a3.525,3.525,0,0,1,.142.986v6.567a3.62,3.62,0,0,1-3.611,3.611h0A3.623,3.623,0,0,1,1729.66,221.937Zm5.912,0a2.3,2.3,0,1,0-2.3,2.3h0a2.3,2.3,0,0,0,2.3-2.3Z" transform="translate(-384.366 0)" fill="#9a926a"/>
      <path id="Path_9059" data-name="Path 9059" d="M1773.07,221.937V215.37a3.557,3.557,0,0,1,.142-.986h1.174a2.3,2.3,0,1,0,4.6.009v-.009h1.173a3.539,3.539,0,0,1,.142.986v10.178h-7.227Zm5.912,0a2.3,2.3,0,1,0-2.3,2.3h0a2.3,2.3,0,0,0,2.3-2.3Z" transform="translate(-415.472 0)" fill="#9a926a"/>
      <path id="Path_9060" data-name="Path 9060" d="M1818.35,221.937V215.37a3.548,3.548,0,0,1,.142-.986h1.173a2.3,2.3,0,0,0,4.6,0h1.173a3.529,3.529,0,0,1,.141.986v6.567a3.62,3.62,0,0,1-3.611,3.611h0A3.622,3.622,0,0,1,1818.35,221.937Zm5.909,0a2.3,2.3,0,1,0-2.3,2.3h0a2.3,2.3,0,0,0,2.3-2.3Z" transform="translate(-447.919 0)" fill="#9a926a"/>
      <path id="Path_9061" data-name="Path 9061" d="M1862.76,221.937V215.37a3.538,3.538,0,0,1,.142-.986h1.173a2.3,2.3,0,0,0,4.6.009v-.009h1.173a3.521,3.521,0,0,1,.142.986v6.567a3.62,3.62,0,0,1-3.611,3.611h0A3.623,3.623,0,0,1,1862.76,221.937Zm5.912,0a2.3,2.3,0,1,0-2.3,2.3h0a2.3,2.3,0,0,0,2.3-2.3Z" transform="translate(-479.742 0)" fill="#9a926a"/>
      <path id="Path_9062" data-name="Path 9062" d="M1907.61,221.937V215.37a3.557,3.557,0,0,1,.142-.986h1.173a2.3,2.3,0,0,0,4.6,0h1.173a3.548,3.548,0,0,1,.142.986v6.567a3.62,3.62,0,0,1-3.611,3.611h0A3.623,3.623,0,0,1,1907.61,221.937Zm5.912,0a2.3,2.3,0,1,0-2.3,2.3h0a2.3,2.3,0,0,0,2.3-2.3Z" transform="translate(-511.88 0)" fill="#9a926a"/>
      <path id="Path_9063" data-name="Path 9063" d="M1952.02,221.937V215.37a3.548,3.548,0,0,1,.142-.986h1.173a2.3,2.3,0,1,0,4.6.009v-.009h1.174a3.557,3.557,0,0,1,.142.986v6.567a3.621,3.621,0,0,1-3.611,3.611h0A3.623,3.623,0,0,1,1952.02,221.937Zm5.912,0a2.3,2.3,0,1,0-2.3,2.3h0a2.3,2.3,0,0,0,2.3-2.3Z" transform="translate(-543.703 0)" fill="#9a926a"/>
      <g id="Group_4702" data-name="Group 4702" transform="translate(1256.124 265.276)">
        <g id="Group_4702-2" data-name="Group 4702" transform="translate(0 3.525)">
          <path id="Path_9064" data-name="Path 9064" d="M1462.639,424.883a.829.829,0,0,0-.619.28h-2.5a.555.555,0,0,0-.462.247l-5.648,8.474a.556.556,0,0,0-.093.308v4.62l-3.375,4.58-10.014-15.154a.555.555,0,0,0-1.017.305V452h-3.976v-4.774a.834.834,0,1,0-1.178-.069.819.819,0,0,0,.069.069v5.328a.555.555,0,0,0,.554.555h5.085a.555.555,0,0,0,.555-.555h0V430.388l9.434,14.277a.554.554,0,0,0,.448.249.536.536,0,0,0,.46-.225l3.954-5.366a.553.553,0,0,0,.108-.329V434.36l5.391-8.087h2.206a.833.833,0,1,0,.619-1.389Z" transform="translate(-1428.299 -419.64)" fill="#e4d46b"/>
          <path id="Path_9023-2" data-name="Path 9023" d="M1426.205,445.1h-5.086a5.8,5.8,0,0,1-5.8-5.8v-4.117a6.085,6.085,0,0,1,5.086-7.873V415.286a5.8,5.8,0,0,1,10.633-3.2l4.279,6.476a5.852,5.852,0,0,1,.465-.84l5.65-8.477a5.783,5.783,0,0,1,4.825-2.582h1.3a6.068,6.068,0,0,1,1.807-.28c.07,0,.144,0,.214,0a6.075,6.075,0,1,1-.4,12.143l-2.774,4.16v3.048a5.759,5.759,0,0,1-1.129,3.438l-3.942,5.349a5.8,5.8,0,0,1-9.333.039V439.3A5.8,5.8,0,0,1,1426.205,445.1Zm-8.016-15.043,0,0Zm31.975-15-.006.009Z" transform="translate(-1415.042 -406.383)" fill="#00672e"/>
        </g>
        <g id="Group_4703" data-name="Group 4703" transform="translate(0.421 1.268)">
          <path id="Path_9065" data-name="Path 9065" d="M1467.078,417.2h-7.908a.553.553,0,0,0-.451.232l-8,11.2-7.465-11.464a.554.554,0,0,0-.464-.252h-7.205a.555.555,0,0,0-.555.555h0v19.35a.555.555,0,0,0,.163.392l2.239,2.239v3.119a.835.835,0,1,0,1.179.069.906.906,0,0,0-.069-.069v-3.349a.554.554,0,0,0-.163-.392l-2.239-2.239V418.029h6.349l7.745,11.892a.554.554,0,0,0,.453.252.572.572,0,0,0,.463-.232l8.308-11.63h7.068v2.322l-2.239,2.239a.559.559,0,0,0-.162.392v8.577a.835.835,0,1,0,1.18.066.957.957,0,0,0-.07-.069v-8.344l2.239-2.239a.555.555,0,0,0,.163-.392v-3.105a.555.555,0,0,0-.555-.555Z" transform="translate(-1429.785 -411.676)" fill="#e4d46b"/>
          <path id="Path_9024-2" data-name="Path 9024" d="M1424.736,436.019q-.181,0-.364-.01a6.075,6.075,0,0,1-5.5-7.695l-.647-.648a5.756,5.756,0,0,1-1.7-4.089v-19.36a5.8,5.8,0,0,1,5.8-5.8h7.205a5.777,5.777,0,0,1,4.862,2.639l3.268,5.019,3.535-4.948a5.806,5.806,0,0,1,4.717-2.428h7.91a5.8,5.8,0,0,1,5.8,5.8v3.1a5.76,5.76,0,0,1-1.7,4.1l-.7.7v4.958a6.08,6.08,0,1,1-11.6.027v-2.511l-3.466,4.851-.051.07a5.837,5.837,0,0,1-4.677,2.358h-.1a5.793,5.793,0,0,1-4.745-2.634l-4.457-6.843v8.482l.7.7a5.767,5.767,0,0,1,1.7,4.1V428.1a6.083,6.083,0,0,1-5.79,7.915Zm2.926-2.787,0,0Zm26.7-10.74,0,0Z" transform="translate(-1416.528 -398.419)" fill="#00672e"/>
        </g>
        <g id="Group_4704-2" data-name="Group 4704" transform="translate(2.543 3.528)">
          <path id="Path_9066" data-name="Path 9066" d="M1448.55,426.643a.83.83,0,0,0-.556-.488l-.478-.956a.555.555,0,0,0-.5-.306h-3.671a.555.555,0,0,0-.555.555h0V440.1a.835.835,0,1,0,1.178.069.775.775,0,0,0-.069-.069V426h2.774l.325.648a.834.834,0,1,0,1.548-.008Z" transform="translate(-1437.27 -419.65)" fill="#e4d46b"/>
          <path id="Path_9025-2" data-name="Path 9025" d="M1430.094,433.539a6.074,6.074,0,0,1-6.071-6.431,6.134,6.134,0,0,1,.269-1.476V412.191a5.8,5.8,0,0,1,5.8-5.8h3.672a5.769,5.769,0,0,1,5.126,3.089,6.066,6.066,0,0,1,1.256,1.916l0,.011a6.077,6.077,0,0,1-3.218,7.87,6.142,6.142,0,0,1-1.042.344v6a6.078,6.078,0,0,1-5.795,7.911Zm2.929-2.783,0,0Zm5.6-15.431v0Z" transform="translate(-1424.012 -406.393)" fill="#00672e"/>
        </g>
        <g id="Group_4705" data-name="Group 4705" transform="translate(9.207 7.896)">
          <path id="Path_9067" data-name="Path 9067" d="M1474.886,448.638a.831.831,0,0,0-1.315.831l-.346.461-5.558-8.565a.835.835,0,1,0-1.028.581.887.887,0,0,0,.1.021l5.991,9.233a.555.555,0,0,0,.446.252h.019a.555.555,0,0,0,.444-.222l.824-1.1a.823.823,0,0,0,.593-.327.833.833,0,0,0-.165-1.166Z" transform="translate(-1460.784 -435.063)" fill="#e4d46b"/>
          <path id="Path_9026-2" data-name="Path 9026" d="M1459.935,443.438c-.059,0-.137,0-.2,0a5.8,5.8,0,0,1-4.667-2.636l-5.338-8.226a6.079,6.079,0,1,1,9.727-6.314l2.437,3.756a6.081,6.081,0,0,1,2.777,10.967l-.1.139A5.829,5.829,0,0,1,1459.935,443.438ZM1449.358,426.7v0Zm4.917-3.177h0Z" transform="translate(-1447.527 -421.805)" fill="#00672e"/>
        </g>
        <g id="Group_4706" data-name="Group 4706" transform="translate(21.665 6.353)">
          <path id="Path_9068" data-name="Path 9068" d="M1519.082,456.557v-6.483a.553.553,0,0,0-.147-.376l-2.676-2.894V435.416a.554.554,0,0,0-1.008-.319l-4.531,6.445a.834.834,0,1,0,.924.733.844.844,0,0,0-.017-.094l3.524-5.012v9.852a.555.555,0,0,0,.147.376l2.676,2.894v6.271a.835.835,0,1,0,1.109,0Z" transform="translate(-1504.738 -429.617)" fill="#e4d46b"/>
          <path id="Path_9027-2" data-name="Path 9027" d="M1505.274,450h-.037a6.087,6.087,0,0,1-6.042-6.115,5.976,5.976,0,0,1,.277-1.786v-3.017l-1.282-1.387a5.775,5.775,0,0,1-1.375-2.555,6.076,6.076,0,0,1-2.956-10.853l3.844-5.468a5.8,5.8,0,0,1,4.743-2.464h.009a5.8,5.8,0,0,1,5.789,5.808v9.326l1.282,1.387a5.776,5.776,0,0,1,1.541,3.936v5.274a6.078,6.078,0,0,1-5.794,7.913Zm-2.912-2.767h0Z" transform="translate(-1491.48 -416.36)" fill="#00672e"/>
        </g>
        <g id="Group_4707" data-name="Group 4707" transform="translate(26.553 8.88)">
          <path id="Path_9069" data-name="Path 9069" d="M1533.958,444.616a.835.835,0,1,0-1.389.619v20.306h-3.951v-6.749a.835.835,0,1,0-1.178-.069.863.863,0,0,0,.069.069v7.3a.555.555,0,0,0,.555.554h5.058a.555.555,0,0,0,.555-.554v-20.86A.828.828,0,0,0,1533.958,444.616Z" transform="translate(-1521.986 -438.532)" fill="#e4d46b"/>
          <path id="Path_9028-2" data-name="Path 9028" d="M1519.865,458.637h-5.057a5.8,5.8,0,0,1-5.8-5.8v-6.092a6.084,6.084,0,0,1,5.059-7.87v-5.7a6.077,6.077,0,0,1,5.8-7.9h.037a6.079,6.079,0,0,1,5.76,7.907v19.656A5.807,5.807,0,0,1,1519.865,458.637Zm-7.988-17.019,0,0Zm3.58-10.284h0v0Zm1.5-3.292,0,0Z" transform="translate(-1508.729 -425.276)" fill="#00672e"/>
        </g>
        <g id="Group_4708" data-name="Group 4708" transform="translate(42.124 0.705)">
          <path id="Path_9070" data-name="Path 9070" d="M1601.225,432.4a.847.847,0,0,0-.635.289h-4.43a.567.567,0,0,0-.4.166l-2,2h-6.405a.567.567,0,0,0-.567.567v9.248H1583.3v-23.74l4.577-4.574h6.941a.853.853,0,1,0,.071-1.2.9.9,0,0,0-.071.071h-7.176a.565.565,0,0,0-.4.166l-4.91,4.906a.568.568,0,0,0-.166.4v24.542a.567.567,0,0,0,.567.567h4.619a.567.567,0,0,0,.567-.567v-9.248H1594a.566.566,0,0,0,.4-.166l2-2h4.2a.852.852,0,1,0,.634-1.423h0Z" transform="translate(-1576.925 -409.691)" fill="#e4d46b"/>
          <path id="Path_9029-2" data-name="Path 9029" d="M1574.1,437.789h-4.62a5.817,5.817,0,0,1-5.81-5.81V407.437a5.772,5.772,0,0,1,1.7-4.109l4.91-4.908a5.773,5.773,0,0,1,4.1-1.7h5.967a6.1,6.1,0,1,1,0,11.62h-3.552l-1.505,1.5v6.509h3.043l.464-.464a5.773,5.773,0,0,1,4.108-1.7h3.213a6.1,6.1,0,0,1,1.642-.286c.07,0,.14,0,.211,0a6.1,6.1,0,1,1,0,12.193h-.011a6.088,6.088,0,0,1-1.823-.283h-.827l-.464.465a5.774,5.774,0,0,1-4.108,1.7h-.83v4A5.817,5.817,0,0,1,1574.1,437.789Zm17.179-14.9,0,0Zm-3.309-3.745h0Zm-2.488-19.53,0,0Z" transform="translate(-1563.668 -396.433)" fill="#00672e"/>
        </g>
        <g id="Group_4709" data-name="Group 4709" transform="translate(44.139 1.063)">
          <path id="Path_9071" data-name="Path 9071" d="M1611.914,421.387l-4.8-5.017a.566.566,0,0,0-.41-.175h-2.143a.566.566,0,0,0-.41.175l-2.111,2.206h-8.182a.568.568,0,0,0-.409.175l-3.73,3.9a.567.567,0,0,0-.157.392V425.6a.853.853,0,1,0,1.2.071.812.812,0,0,0-.071-.071V423.27l3.405-3.56h8.182a.566.566,0,0,0,.409-.175l2.112-2.206h1.658l4.474,4.677v7.737l-2.106,2.2a.567.567,0,0,0-.157.392v10.009a.854.854,0,1,0,1.2.071.811.811,0,0,0-.072-.071v-9.781l2.1-2.2a.566.566,0,0,0,.157-.392v-8.194A.568.568,0,0,0,1611.914,421.387Z" transform="translate(-1584.035 -410.951)" fill="#e4d46b"/>
          <path id="Path_9030-2" data-name="Path 9030" d="M1595.992,435.823q-.183,0-.368-.011a6.1,6.1,0,0,1-5.45-7.929v-8.8a5.784,5.784,0,0,1,1.614-4.019l.649-.678v-3.529l-.15-.158a5.84,5.84,0,0,1-3.259,1h-5.941l-.211.22a6.095,6.095,0,1,1-11.812-.792v-1.339a5.787,5.787,0,0,1,1.614-4.019l3.727-3.9a5.839,5.839,0,0,1,4.2-1.794h5.942l.563-.588a5.839,5.839,0,0,1,4.188-1.793h2.152a5.845,5.845,0,0,1,4.2,1.8l4.8,5.015.012.012a5.787,5.787,0,0,1,1.6,4.014v8.184a5.786,5.786,0,0,1-1.609,4.014l-.653.682v6.471a6.1,6.1,0,0,1-5.8,7.942ZM1598.9,433l0,0Zm-19.109-16.748,0,0Zm.466-3.246-.005.006Z" transform="translate(-1570.777 -397.694)" fill="#00672e"/>
        </g>
        <g id="Group_4710" data-name="Group 4710" transform="translate(44.144 5.971)">
          <path id="Path_9072" data-name="Path 9072" d="M1606.821,436.1l-2.378-2.418a.567.567,0,0,0-.4-.17h-8.725a.568.568,0,0,0-.4.17l-2.486,2.525a.567.567,0,0,0-.163.4v3.379l-2.533,2.575a.566.566,0,0,0-.162.4v12.086a.856.856,0,1,0,1.133,0V443.189l2.533-2.575a.565.565,0,0,0,.163-.4v-3.379l2.156-2.191h8.251l2.049,2.083v6.528h-11.963a.853.853,0,1,0-.071,1.2.837.837,0,0,0,.071-.07h12.529a.567.567,0,0,0,.567-.567V436.5A.564.564,0,0,0,1606.821,436.1Z" transform="translate(-1584.04 -428.27)" fill="#e4d46b"/>
          <path id="Path_9031-2" data-name="Path 9031" d="M1576.893,448.52c-.121,0-.243,0-.364-.011a6.094,6.094,0,0,1-5.454-7.927V429.7a5.785,5.785,0,0,1,1.665-4.07l1.031-1.049v-1.232a5.776,5.776,0,0,1,1.664-4.07l2.491-2.531a5.83,5.83,0,0,1,4.13-1.735h8.734a5.849,5.849,0,0,1,4.15,1.744l2.367,2.406a5.776,5.776,0,0,1,1.673,4.069v7.336a5.817,5.817,0,0,1-5.81,5.81H1582.7v4.187a6.1,6.1,0,0,1-5.8,7.954Zm2.912-2.818,0,0Z" transform="translate(-1570.792 -415.013)" fill="#00672e"/>
        </g>
        <g id="Group_4711" data-name="Group 4711" transform="translate(59.761 3.615)">
          <path id="Path_9073" data-name="Path 9073" d="M1648.967,434.361v-5.152a.567.567,0,0,0-.166-.4l-2.7-2.7a.852.852,0,1,0-.9.8.95.95,0,0,0,.1,0l2.538,2.538v4.922a.853.853,0,1,0,1.205.066.785.785,0,0,0-.071-.071Z" transform="translate(-1639.152 -419.959)" fill="#e4d46b"/>
          <path id="Path_9032-2" data-name="Path 9032" d="M1635.154,427.84c-.114,0-.228,0-.343-.009a6.1,6.1,0,0,1-5.752-6.423,6.149,6.149,0,0,1,.275-1.512v-1.539l-.141-.141a6.1,6.1,0,0,1-1.259-9.968,6.094,6.094,0,0,1,9.464,1.74l1.854,1.855a5.771,5.771,0,0,1,1.7,4.108v3.928a6.1,6.1,0,0,1-5.8,7.961Zm-2.905-2.8h0Zm5.83-.03,0,0Zm-10.473-12.464v0Z" transform="translate(-1625.895 -406.7)" fill="#00672e"/>
        </g>
        <g id="Group_4712" data-name="Group 4712" transform="translate(46.884 17.927)">
          <path id="Path_9074" data-name="Path 9074" d="M1604.886,475.7a.847.847,0,0,0-.635.289h-3.8a.852.852,0,1,0-.073,1.2.819.819,0,0,0,.07-.069h3.807a.852.852,0,1,0,.632-1.423Z" transform="translate(-1593.717 -470.452)" fill="#e4d46b"/>
          <path id="Path_9033-2" data-name="Path 9033" d="M1586.564,469.389c-.126,0-.253,0-.379-.012a6.1,6.1,0,0,1,.741-12.169,6.143,6.143,0,0,1,1.488.276h1.365a6.093,6.093,0,0,1,1.833-.289h.019a6.095,6.095,0,1,1-1.826,11.91h-1.4A6.092,6.092,0,0,1,1586.564,469.389Zm8.374-3.206,0,0Zm-7.648-2.232,1.809,1.624,1.8-1.623c.02-.13.034-.261.042-.393a4.366,4.366,0,0,0-.042-.918l-1.812-1.587-1.8,1.589A4.408,4.408,0,0,0,1587.29,463.951Zm-4-3.595,0,0Z" transform="translate(-1580.46 -457.195)" fill="#00672e"/>
        </g>
        <g id="Group_4713" data-name="Group 4713" transform="translate(57.133 18.869)">
          <path id="Path_9075" data-name="Path 9075" d="M1645.5,479.82a.855.855,0,0,0-1.706,0,.77.77,0,0,0,.286.591v10.481h-4.038v-9.442a.549.549,0,0,0-.567-.529h-2.867a.862.862,0,0,0-.5-.257.848.848,0,0,0-.979.658.8.8,0,0,0,.682.91l.024,0a.885.885,0,0,0,.772-.257h2.3v9.442a.549.549,0,0,0,.567.529h5.173a.549.549,0,0,0,.567-.529v-11.01A.769.769,0,0,0,1645.5,479.82Z" transform="translate(-1629.88 -473.779)" fill="#e4d46b"/>
          <path id="Path_9034-2" data-name="Path 9034" d="M1626.194,483.935a5.8,5.8,0,0,1-5.787-5.586q0-.094,0-.187v-4.378a6.057,6.057,0,0,1-3.72-6.466q.025-.174.062-.346a6.111,6.111,0,0,1,7.761-4.554h1.666a5.643,5.643,0,0,1,.764.042,6.091,6.091,0,0,1,10.535,3.744q.014.21.012.42a6.04,6.04,0,0,1-.287,1.77v9.767q0,.091,0,.182a5.8,5.8,0,0,1-5.787,5.591h-5.212Zm-6.635-12.649,0,0Zm14.553-8.215,0,0Z" transform="translate(-1616.623 -460.521)" fill="#00672e"/>
        </g>
        <g id="Group_4714" data-name="Group 4714" transform="translate(76.483 0.703)">
          <path id="Path_9076" data-name="Path 9076" d="M1732.053,415.53a.567.567,0,0,0-.5-.3h-6.372a.567.567,0,0,0-.463.239l-8.628,12.2h-5.812V415.491a.567.567,0,0,0-.567-.567h-5.462a.567.567,0,0,0-.567.567v2.76a.854.854,0,1,0,1.205.071.863.863,0,0,0-.072-.071v-2.194h4.328v12.174a.567.567,0,0,0,.567.567h6.672a.567.567,0,0,0,.463-.24l8.628-12.2h5.007l-3.72,5.468a.856.856,0,1,0,.938.637l4.321-6.353A.567.567,0,0,0,1732.053,415.53Z" transform="translate(-1698.153 -409.681)" fill="#e4d46b"/>
          <path id="Path_9035-2" data-name="Path 9035" d="M1703.126,420.784h-6.672a5.817,5.817,0,0,1-5.81-5.81v-3.258a6.1,6.1,0,0,1-5.462-7.941v-1.542a5.817,5.817,0,0,1,5.81-5.81h5.462a5.817,5.817,0,0,1,5.81,5.81v3.9l4.915-6.949a5.819,5.819,0,0,1,4.744-2.455h6.371a5.81,5.81,0,0,1,4.809,9.07l-3.639,5.35a6.1,6.1,0,0,1-8.989,3.5l-2.606,3.685A5.819,5.819,0,0,1,1703.126,420.784Zm11.058-7.013h0Z" transform="translate(-1684.895 -396.424)" fill="#00672e"/>
        </g>
        <g id="Group_4715" data-name="Group 4715" transform="translate(93.753 3.206)">
          <path id="Path_9077" data-name="Path 9077" d="M1775.993,451.523,1765.617,437l2.481-3.307a.567.567,0,0,0,.113-.34v-4.962l2.3-2.925a.853.853,0,1,0-.9-.8.916.916,0,0,0,.012.1l-2.421,3.079a.567.567,0,0,0-.121.351v4.969l-2.616,3.488a.567.567,0,0,0-.008.67l9.977,13.969h-5.269l-2.647-3.974a.85.85,0,1,0-1.034.613.887.887,0,0,0,.093.018l2.813,4.223a.567.567,0,0,0,.472.253h6.674a.567.567,0,0,0,.461-.9Z" transform="translate(-1759.099 -418.514)" fill="#e4d46b"/>
          <path id="Path_9036-2" data-name="Path 9036" d="M1762.262,444.407h-6.675a5.8,5.8,0,0,1-4.838-2.593l-2.137-3.207a6.094,6.094,0,0,1-.176-9.37l-1.52-2.129a5.789,5.789,0,0,1,.079-6.862l1.568-2.091v-3.221a5.835,5.835,0,0,1,1.244-3.592l1.674-2.129a6.1,6.1,0,1,1,9.139,7.178l-.435.554v3.148a5.849,5.849,0,0,1-1.161,3.484l-.179.239,8.145,11.4,0,.007a5.81,5.81,0,0,1-4.733,9.18Zm-14.1-11.648v0Zm13.346-22.181v0Zm-4.593-3.607h0Z" transform="translate(-1745.829 -405.258)" fill="#00672e"/>
        </g>
        <g id="Group_4716" data-name="Group 4716" transform="translate(76.736 3.388)">
          <path id="Path_9078" data-name="Path 9078" d="M1710.594,446.493a.853.853,0,1,0-1.417.635v4.62h-3.755V430.114l2.427-2.261a.566.566,0,0,0,.18-.415v-1.547a.853.853,0,1,0-1.2-.07.978.978,0,0,0,.07.07v1.3l-2.427,2.261a.567.567,0,0,0-.18.415v22.447a.567.567,0,0,0,.567.567h4.889a.567.567,0,0,0,.567-.567v-5.19A.847.847,0,0,0,1710.594,446.493Z" transform="translate(-1699.045 -419.158)" fill="#e4d46b"/>
          <path id="Path_9037-2" data-name="Path 9037" d="M1696.487,444.866H1691.6a5.817,5.817,0,0,1-5.81-5.81V416.609a5.828,5.828,0,0,1,1.852-4.254l.476-.444a6.093,6.093,0,1,1,11.9,1.938v.331a5.831,5.831,0,0,1-1.847,4.249l-.761.708V427.2a6.1,6.1,0,0,1,4.889,7.865v3.988A5.817,5.817,0,0,1,1696.487,444.866Zm.635-36.152,0,0Z" transform="translate(-1685.788 -405.899)" fill="#00672e"/>
        </g>
        <g id="Group_4717" data-name="Group 4717" transform="translate(78.913 9.455)">
          <path id="Path_9079" data-name="Path 9079" d="M1713.387,455.849V447.3a.853.853,0,1,0-1.2-.074.872.872,0,0,0,.07.07v8.562a.853.853,0,1,0,1.2.065.813.813,0,0,0-.071-.07Z" transform="translate(-1706.726 -440.561)" fill="#e4d46b"/>
          <path id="Path_9038-2" data-name="Path 9038" d="M1699.573,449.329c-.112,0-.224,0-.336-.009a6.1,6.1,0,0,1-5.759-6.418,6.134,6.134,0,0,1,.274-1.515v-6.135a6.1,6.1,0,1,1,11.621.008v6.1a6.1,6.1,0,0,1-5.8,7.966Zm-2.9-2.8,0,0Zm5.832-.033,0,0Zm0-16.362,0,0Zm-5.844-.025,0,0Z" transform="translate(-1693.469 -427.305)" fill="#00672e"/>
        </g>
        <g id="Group_4718" data-name="Group 4718" transform="translate(78.91 18.298)">
          <path id="Path_9080" data-name="Path 9080" d="M1733.029,486.393a.843.843,0,0,0-.6-.346l-3.074-4.257a.566.566,0,0,0-.459-.235h-2.729l-2.864-4.3a.567.567,0,0,0-.472-.253h-7.434a.567.567,0,0,0-.567.567v2.038l-2.413,2.413a.567.567,0,0,0-.166.4V486.4a.853.853,0,1,0,1.2.071.911.911,0,0,0-.071-.071v-3.741l2.413-2.413a.567.567,0,0,0,.166-.4v-1.706h6.564l2.865,4.3a.568.568,0,0,0,.472.252h2.743l2.9,4.023a.847.847,0,1,0,1.523-.318Z" transform="translate(-1706.717 -471.763)" fill="#e4d46b"/>
          <path id="Path_9039-2" data-name="Path 9039" d="M1699.563,479.878c-.121,0-.243,0-.365-.011a6.1,6.1,0,0,1-5.728-6.443,6.142,6.142,0,0,1,.276-1.5v-2.758a5.771,5.771,0,0,1,1.7-4.108l.879-.879a5.817,5.817,0,0,1,5.808-5.675h7.434a5.8,5.8,0,0,1,4.838,2.592l1.3,1.957a5.825,5.825,0,0,1,4.632,2.407l2.364,3.273a6.083,6.083,0,0,1,1.265,1.262c.036.048.071.1.1.145a6.1,6.1,0,0,1-9.885,7.134l-.049-.067a6.079,6.079,0,0,1-.852-1.667l-.627-.869h-.062a5.8,5.8,0,0,1-4.834-2.587l-1.179-1.768q-.163.195-.346.377l-.877.878v.362a6.1,6.1,0,0,1-5.8,7.942Zm2.911-2.816,0,0Z" transform="translate(-1693.459 -458.506)" fill="#00672e"/>
        </g>
        <g id="Group_4719" data-name="Group 4719" transform="translate(81.881 11.396)">
          <path id="Path_9081" data-name="Path 9081" d="M1735.492,452.814a.85.85,0,0,0-1.345.848l-2.579,3.437h-7.636a.852.852,0,1,0,0,1.134h7.921a.567.567,0,0,0,.454-.227l2.749-3.664a.849.849,0,0,0,.44-1.525Z" transform="translate(-1717.198 -447.402)" fill="#e4d46b"/>
          <path id="Path_9040-2" data-name="Path 9040" d="M1710.048,450.512a6.1,6.1,0,1,1,1.845-11.907h3.8l.283-.377a6.093,6.093,0,0,1,9.409-2.859l0,0a6.1,6.1,0,0,1-.12,9.837l-2.021,2.694a5.837,5.837,0,0,1-4.647,2.323h-6.7A6.1,6.1,0,0,1,1710.048,450.512Zm-3.292-3.181,0,0Zm12.331-3.575Zm-12.328-2.26,0,0Zm19.271-2.124v0Zm-4.645-3.508h0Z" transform="translate(-1703.941 -434.152)" fill="#00672e"/>
        </g>
        <g id="Group_4720" data-name="Group 4720" transform="translate(91.567 17.457)">
          <path id="Path_9082" data-name="Path 9082" d="M1760.138,476.955a.84.84,0,0,0-.611-.327l-1.222-1.589a.843.843,0,0,0-.158-.674.853.853,0,1,0-.739,1.367l1.221,1.586a.85.85,0,1,0,1.51-.362Z" transform="translate(-1751.374 -468.79)" fill="#e4d46b"/>
          <path id="Path_9041-2" data-name="Path 9041" d="M1746.207,470.315a6.1,6.1,0,0,1-5.024-2.642,6.179,6.179,0,0,1-.628-1.161,6.095,6.095,0,0,1,10.323-6.2q.085.1.165.2a6.094,6.094,0,0,1-4.836,9.8Zm-2.235-5.174-.055.831,2.963-2.268v1.416l.009-.007a4.423,4.423,0,0,0,1.633-2.647l-.024,0-1.619,1.243v-.8l-.611.47.09-1.333-1.312-.256,1.4-1.078.059-.871a4.4,4.4,0,0,0-4.621,3.58v0l.839.155,1.423-1.1-.089,1.343,1.31.242Zm6.553-.124v0Z" transform="translate(-1738.114 -455.538)" fill="#00672e"/>
        </g>
        <g id="Group_4721" data-name="Group 4721" transform="translate(112.022 0)">
          <path id="Path_9083" data-name="Path 9083" d="M1842.153,440.369a.846.846,0,0,0-.633.286h-7.171l-2.207-2.207V424.4a.565.565,0,0,0-.166-.4l-2.055-2.057v-8.086H1832a.853.853,0,1,0,.071-1.2.863.863,0,0,0-.071.071h-2.643a.567.567,0,0,0-.567.567v8.889a.568.568,0,0,0,.166.4l2.056,2.056v14.05a.568.568,0,0,0,.166.4l2.54,2.54a.568.568,0,0,0,.4.166h7.405a.852.852,0,1,0,.633-1.42Z" transform="translate(-1823.544 -407.194)" fill="#e4d46b"/>
          <path id="Path_9042-2" data-name="Path 9042" d="M1828.906,434.067c-.114,0-.228,0-.342-.009a6.134,6.134,0,0,1-1.511-.274h-6.194a5.772,5.772,0,0,1-4.108-1.7l-2.54-2.539a5.777,5.777,0,0,1-1.7-4.1V413.555l-.52-.52a5.771,5.771,0,0,1-1.7-4.108v-8.889a5.817,5.817,0,0,1,5.81-5.81h1.437a6.1,6.1,0,0,1,4.374,11.361v.932l.521.521a5.774,5.774,0,0,1,1.7,4.108v11.014h2.925a6.089,6.089,0,0,1,1.837-.286h.008a6.1,6.1,0,0,1,.007,12.19Zm3.286-3.188,0,0Zm-3.295-3.759h0Zm3.27-2.081,0,0Zm-9.509-27.919,0,0Z" transform="translate(-1810.287 -393.944)" fill="#00672e"/>
        </g>
        <g id="Group_4722" data-name="Group 4722" transform="translate(114.276 0.125)">
          <path id="Path_9084" data-name="Path 9084" d="M1859.814,412.886h-17.3a.567.567,0,0,0-.4.166l-2.215,2.215h-2.305a.567.567,0,0,0-.567.567v4.545a.853.853,0,1,0,1.2.071.829.829,0,0,0-.071-.071V416.4h1.973a.567.567,0,0,0,.4-.166l2.215-2.215h16.5v4.1H1840.13a.567.567,0,0,0-.567.567v7.618a.567.567,0,0,0,.567.567h15.625V430.5h-8.407l-2.373-2.373a.567.567,0,0,0-.4-.166h-3.592a.853.853,0,1,0-.071,1.2.809.809,0,0,0,.071-.071h3.358l2.373,2.373a.567.567,0,0,0,.4.166h9.209a.567.567,0,0,0,.567-.567v-4.762a.567.567,0,0,0-.567-.567H1840.7v-6.485h19.117a.567.567,0,0,0,.567-.567v-5.238a.567.567,0,0,0-.567-.567Z" transform="translate(-1831.495 -407.643)" fill="#e4d46b"/>
          <path id="Path_9043-2" data-name="Path 9043" d="M1843.065,423.624h-9.208a5.772,5.772,0,0,1-4.108-1.7l-.829-.829a6.1,6.1,0,0,1-7.918-6.178,6.176,6.176,0,0,1,.132-.959,5.838,5.838,0,0,1-.07-.9v-.145a6.126,6.126,0,0,1-1.285-1.1,6.056,6.056,0,0,1-1.53-4.408,6.153,6.153,0,0,1,.276-1.5v-3.329a5.817,5.817,0,0,1,5.81-5.81h.133l.679-.679a5.772,5.772,0,0,1,4.108-1.7h17.3a5.816,5.816,0,0,1,5.81,5.81v5.238a5.82,5.82,0,0,1-3.9,5.487,5.783,5.783,0,0,1,.405,2.132v4.762A5.817,5.817,0,0,1,1843.065,423.624Zm-19.26-5.434,0,0Z" transform="translate(-1818.237 -394.386)" fill="#00672e"/>
        </g>
        <g id="Group_4723" data-name="Group 4723" transform="translate(125.282 15.234)">
          <path id="Path_9085" data-name="Path 9085" d="M1881.074,466.2a.849.849,0,0,0-.633.286h-3.378a.853.853,0,1,0-.071,1.2.865.865,0,0,0,.071-.071h3.379a.852.852,0,1,0,.634-1.42Z" transform="translate(-1870.328 -460.951)" fill="#e4d46b"/>
          <path id="Path_9044-2" data-name="Path 9044" d="M1863.175,459.888q-.183,0-.367-.011a6.1,6.1,0,0,1,.719-12.173,6.148,6.148,0,0,1,1.5.276h.952a6.1,6.1,0,0,1,1.824-.287h.019a6.095,6.095,0,1,1-1.845,11.907h-.948A6.068,6.068,0,0,1,1863.175,459.888Zm-3.29-3.181,0,0Zm11.221,0,0,0Zm-7.3-2.346,1.7,1.508,1.683-1.508v1.2a4.362,4.362,0,0,0,0-3.533v1.2l-1.691-1.5-1.688,1.5v-1.216a4.422,4.422,0,0,0-.365,2.089l.295.332-.294-.327a4.386,4.386,0,0,0,.365,1.471Zm7.282-3.5,0,0Z" transform="translate(-1857.071 -447.694)" fill="#00672e"/>
        </g>
        <g id="Group_4724" data-name="Group 4724" transform="translate(120.521 2.219)">
          <path id="Path_9086" data-name="Path 9086" d="M1872.528,420.273a.85.85,0,0,0-.633.286h-11.632a.856.856,0,1,0,0,1.134h11.631a.852.852,0,1,0,.633-1.42Z" transform="translate(-1853.528 -415.029)" fill="#e4d46b"/>
          <path id="Path_9045-2" data-name="Path 9045" d="M1846.376,413.967c-.122,0-.244,0-.366-.011a6.1,6.1,0,1,1,.717-12.172,6.126,6.126,0,0,1,1.5.276h9.207a6.086,6.086,0,0,1,1.788-.286h.063a6.095,6.095,0,1,1-1.842,11.907h-9.214A6.077,6.077,0,0,1,1846.376,413.967Z" transform="translate(-1840.271 -401.773)" fill="#00672e"/>
        </g>
        <g id="Group_4725" data-name="Group 4725" transform="translate(116.784 17.459)">
          <path id="Path_9087" data-name="Path 9087" d="M1862.763,484.511a.849.849,0,0,0-.633.286h-3.361l-2.374-2.373a.566.566,0,0,0-.4-.166h-8.018L1846.722,481v-5.547h2.076a.854.854,0,1,0,0-1.134h-2.643a.567.567,0,0,0-.567.567v6.349a.567.567,0,0,0,.166.4l1.587,1.587a.567.567,0,0,0,.4.166h8.018l2.374,2.373a.566.566,0,0,0,.4.166h3.6a.85.85,0,1,0,.633-1.42Z" transform="translate(-1840.345 -468.795)" fill="#e4d46b"/>
          <path id="Path_9046-2" data-name="Path 9046" d="M1849.508,478.2a6.134,6.134,0,0,1-1.825-.277h-2.4a5.772,5.772,0,0,1-4.109-1.7l-.838-.837h-5.847a5.772,5.772,0,0,1-4.108-1.7l-1.587-1.587a5.771,5.771,0,0,1-1.7-4.1v-6.358a5.817,5.817,0,0,1,5.81-5.81h1.435a6.1,6.1,0,0,1,7.559,7.936h.847a5.772,5.772,0,0,1,4.108,1.7l.833.833a6.089,6.089,0,0,1,1.815-.281h.018a6.092,6.092,0,0,1-.005,12.184Zm3.292-3.178,0,0Zm-13.342-16.3,0,0Z" transform="translate(-1827.088 -455.544)" fill="#00672e"/>
        </g>
        <g id="Group_4726" data-name="Group 4726" transform="translate(111.422 12.908)">
          <path id="Path_9088" data-name="Path 9088" d="M1852.6,470.122h-4.866a.853.853,0,1,0-.071,1.2.828.828,0,0,0,.071-.071h4.3v4.263h-20.469l-3.476-3.478V459.479a.852.852,0,1,0-1.134,0v12.8a.567.567,0,0,0,.166.4l3.809,3.809a.566.566,0,0,0,.4.166H1852.6a.567.567,0,0,0,.567-.567v-5.4A.567.567,0,0,0,1852.6,470.122Z" transform="translate(-1821.426 -452.742)" fill="#e4d46b"/>
          <path id="Path_9047-2" data-name="Path 9047" d="M1839.343,468.638h-21.271a5.773,5.773,0,0,1-4.108-1.7l-3.809-3.81a5.774,5.774,0,0,1-1.7-4.1v-11.6a6.1,6.1,0,1,1,11.9-1.462,6.135,6.135,0,0,1-.277,1.479v9.167l.406.406h7.278a6.1,6.1,0,0,1,7.925-5.4h3.662a5.818,5.818,0,0,1,5.81,5.8v5.405A5.817,5.817,0,0,1,1839.343,468.638Zm-27.981-26.349,0,0Z" transform="translate(-1808.168 -439.485)" fill="#00672e"/>
        </g>
        <path id="Path_9089" data-name="Path 9089" d="M1462.2,424.5a.829.829,0,0,0-.619.28h-2.5a.555.555,0,0,0-.461.247l-5.648,8.474a.556.556,0,0,0-.093.308v4.62l-3.375,4.58-10.013-15.154a.555.555,0,0,0-1.017.306V451.62h-3.977v-4.773a.834.834,0,1,0-1.178-.069.854.854,0,0,0,.069.069v5.328a.555.555,0,0,0,.554.555h5.086a.555.555,0,0,0,.555-.555h0V430.01l9.434,14.278a.555.555,0,0,0,.448.249.537.537,0,0,0,.46-.227l3.954-5.366a.553.553,0,0,0,.108-.329v-4.633l5.391-8.087h2.207a.833.833,0,1,0,.619-1.389Z" transform="translate(-1427.985 -415.843)" fill="#e4d46b"/>
        <path id="Path_9090" data-name="Path 9090" d="M1466.64,416.82h-7.908a.554.554,0,0,0-.451.232l-8,11.2-7.465-11.464a.554.554,0,0,0-.465-.252h-7.2a.555.555,0,0,0-.555.555h0V436.44a.557.557,0,0,0,.163.392l2.239,2.239v3.119a.835.835,0,1,0,1.179.069.781.781,0,0,0-.069-.069v-3.348a.554.554,0,0,0-.163-.392l-2.239-2.239V417.648h6.349l7.745,11.893a.554.554,0,0,0,.453.252.573.573,0,0,0,.463-.232l8.306-11.631h7.068v2.322l-2.239,2.239a.558.558,0,0,0-.162.392v8.577a.838.838,0,1,0,1.109,0v-8.344l2.239-2.239a.554.554,0,0,0,.163-.392v-3.106A.555.555,0,0,0,1466.64,416.82Z" transform="translate(-1429.049 -410.133)" fill="#e4d46b"/>
        <path id="Path_9091" data-name="Path 9091" d="M1448.111,426.265a.83.83,0,0,0-.556-.488l-.479-.956a.553.553,0,0,0-.5-.306h-3.671a.555.555,0,0,0-.555.555h0v14.649a.835.835,0,1,0,1.178.069.786.786,0,0,0-.069-.069V425.624h2.776l.324.648a.834.834,0,1,0,1.548-.008Z" transform="translate(-1434.413 -415.85)" fill="#e4d46b"/>
        <path id="Path_9092" data-name="Path 9092" d="M1474.445,448.26a.831.831,0,0,0-1.315.831l-.346.461-5.559-8.564a.835.835,0,1,0-1.028.581.884.884,0,0,0,.1.021l5.991,9.233a.554.554,0,0,0,.446.252h.019a.555.555,0,0,0,.443-.222l.825-1.1a.823.823,0,0,0,.593-.327.833.833,0,0,0-.164-1.166Z" transform="translate(-1451.26 -426.895)" fill="#e4d46b"/>
        <path id="Path_9093" data-name="Path 9093" d="M1518.644,456.179V449.7a.553.553,0,0,0-.147-.376l-2.676-2.894V435.038a.555.555,0,0,0-1.008-.319l-4.531,6.445a.833.833,0,1,0,.923.733.792.792,0,0,0-.016-.094l3.524-5.012v9.852a.554.554,0,0,0,.147.376l2.676,2.894v6.27a.835.835,0,1,0,1.109,0Z" transform="translate(-1482.759 -422.993)" fill="#e4d46b"/>
        <path id="Path_9094" data-name="Path 9094" d="M1533.519,444.238a.835.835,0,1,0-1.389.619v20.306h-3.949v-6.75a.835.835,0,1,0-1.178-.069.851.851,0,0,0,.069.069v7.3a.555.555,0,0,0,.555.555h5.058a.555.555,0,0,0,.555-.555h0v-20.86A.829.829,0,0,0,1533.519,444.238Z" transform="translate(-1495.119 -429.381)" fill="#e4d46b"/>
        <path id="Path_9095" data-name="Path 9095" d="M1600.778,432.018a.849.849,0,0,0-.635.289h-4.43a.567.567,0,0,0-.4.166l-2,2h-6.405a.567.567,0,0,0-.567.567v9.248h-3.486v-23.74l4.577-4.575h6.941a.854.854,0,1,0,.071-1.2.891.891,0,0,0-.071.071H1587.2a.566.566,0,0,0-.4.166l-4.909,4.906a.567.567,0,0,0-.167.4v24.542a.567.567,0,0,0,.567.567h4.62a.567.567,0,0,0,.567-.567v-9.248h6.074a.567.567,0,0,0,.4-.166l2-2h4.2a.852.852,0,1,0,.634-1.423h0Z" transform="translate(-1534.479 -408.712)" fill="#e4d46b"/>
        <path id="Path_9096" data-name="Path 9096" d="M1611.466,421l-4.8-5.017a.565.565,0,0,0-.41-.175h-2.143a.568.568,0,0,0-.41.175l-2.111,2.206h-8.182a.567.567,0,0,0-.409.175l-3.73,3.9a.567.567,0,0,0-.157.392v2.556a.853.853,0,1,0,1.2.071.869.869,0,0,0-.071-.071v-2.328l3.405-3.561h8.181a.567.567,0,0,0,.409-.175l2.111-2.206h1.66l4.474,4.677v7.737l-2.1,2.2a.568.568,0,0,0-.157.392v10.011a.854.854,0,1,0,1.2.071.874.874,0,0,0-.071-.071v-9.782l2.1-2.2a.566.566,0,0,0,.157-.392v-8.194A.565.565,0,0,0,1611.466,421Z" transform="translate(-1539.574 -409.612)" fill="#e4d46b"/>
        <path id="Path_9097" data-name="Path 9097" d="M1606.373,435.715l-2.378-2.418a.566.566,0,0,0-.4-.17h-8.727a.567.567,0,0,0-.4.17l-2.486,2.525a.568.568,0,0,0-.163.4V439.6l-2.532,2.575a.568.568,0,0,0-.163.4v12.084a.853.853,0,1,0,1.2.071.889.889,0,0,0-.071-.071V442.8l2.533-2.575a.565.565,0,0,0,.163-.4v-3.379l2.156-2.191h8.251l2.049,2.083v6.528h-11.962a.853.853,0,1,0,0,1.134h12.529a.567.567,0,0,0,.567-.567v-7.327A.566.566,0,0,0,1606.373,435.715Z" transform="translate(-1539.574 -422.022)" fill="#e4d46b"/>
        <path id="Path_9098" data-name="Path 9098" d="M1648.52,433.975v-5.152a.567.567,0,0,0-.166-.4l-2.7-2.7a.852.852,0,1,0-.9.8.924.924,0,0,0,.1,0l2.539,2.538v4.922a.855.855,0,1,0,1.134,0Z" transform="translate(-1579.07 -416.067)" fill="#e4d46b"/>
        <path id="Path_9099" data-name="Path 9099" d="M1604.437,475.309a.849.849,0,0,0-.635.289H1600a.852.852,0,1,0-.073,1.2.793.793,0,0,0,.07-.069h3.808a.852.852,0,1,0,.631-1.423Z" transform="translate(-1546.511 -452.248)" fill="#e4d46b"/>
        <path id="Path_9100" data-name="Path 9100" d="M1645.05,479.434a.855.855,0,0,0-1.706,0,.77.77,0,0,0,.286.591v10.48h-4.039v-9.442a.549.549,0,0,0-.567-.529h-2.866a.862.862,0,0,0-.5-.257.848.848,0,0,0-.979.659.805.805,0,0,0,.682.911l.024,0a.885.885,0,0,0,.771-.257h2.3v9.44a.549.549,0,0,0,.567.529h5.173a.549.549,0,0,0,.567-.529V480.025A.77.77,0,0,0,1645.05,479.434Z" transform="translate(-1572.426 -454.633)" fill="#e4d46b"/>
        <path id="Path_9101" data-name="Path 9101" d="M1731.6,415.144a.567.567,0,0,0-.5-.3h-6.371a.567.567,0,0,0-.463.239l-8.628,12.2h-5.812V415.106a.567.567,0,0,0-.567-.567H1703.8a.567.567,0,0,0-.567.567v2.759a.854.854,0,1,0,1.205.073.758.758,0,0,0-.072-.072v-2.194h4.328v12.173a.567.567,0,0,0,.567.567h6.672a.567.567,0,0,0,.463-.239l8.628-12.2h5.007l-3.72,5.469a.842.842,0,0,0-.591.364.853.853,0,1,0,1.53.272l4.321-6.353A.566.566,0,0,0,1731.6,415.144Z" transform="translate(-1621.345 -408.702)" fill="#e4d46b"/>
        <path id="Path_9102" data-name="Path 9102" d="M1775.545,451.136l-10.376-14.529,2.481-3.307a.566.566,0,0,0,.113-.34V428l2.3-2.925a.853.853,0,1,0-.9-.8c0,.033.006.066.012.1l-2.421,3.079a.568.568,0,0,0-.121.35v4.969l-2.616,3.488a.567.567,0,0,0-.008.669l9.977,13.969h-5.269l-2.647-3.973a.849.849,0,1,0-.941.632l2.813,4.223a.568.568,0,0,0,.472.253h6.675a.567.567,0,0,0,.462-.9Z" transform="translate(-1665.025 -415.029)" fill="#e4d46b"/>
        <path id="Path_9103" data-name="Path 9103" d="M1710.146,446.106a.853.853,0,1,0-1.417.635v4.62h-3.756V429.728l2.427-2.26a.567.567,0,0,0,.18-.415V425.5a.853.853,0,1,0-1.2-.071.781.781,0,0,0,.071.071v1.3l-2.427,2.26a.567.567,0,0,0-.18.415v22.447a.567.567,0,0,0,.567.567h4.889a.567.567,0,0,0,.567-.567v-5.191A.846.846,0,0,0,1710.146,446.106Z" transform="translate(-1621.987 -415.492)" fill="#e4d46b"/>
        <path id="Path_9104" data-name="Path 9104" d="M1712.936,455.463V446.91a.853.853,0,1,0-1.2-.074.869.869,0,0,0,.07.07v8.561a.854.854,0,1,0,1.134,0Z" transform="translate(-1627.49 -430.83)" fill="#e4d46b"/>
        <path id="Path_9105" data-name="Path 9105" d="M1732.581,486.006a.843.843,0,0,0-.6-.346L1728.9,481.4a.567.567,0,0,0-.46-.235h-2.729l-2.865-4.3a.566.566,0,0,0-.472-.253h-7.434a.567.567,0,0,0-.567.567v2.038l-2.413,2.413a.567.567,0,0,0-.166.4v3.976a.853.853,0,1,0,1.2.07.749.749,0,0,0-.07-.07v-3.741l2.414-2.413a.568.568,0,0,0,.166-.4v-1.706h6.564l2.864,4.3a.567.567,0,0,0,.472.252h2.743l2.9,4.023a.844.844,0,0,0,.14.68.853.853,0,0,0,1.383-1Z" transform="translate(-1627.484 -453.187)" fill="#e4d46b"/>
        <path id="Path_9106" data-name="Path 9106" d="M1735.045,452.427a.85.85,0,0,0-1.344.848l-2.578,3.437h-7.637a.853.853,0,1,0-.071,1.2.819.819,0,0,0,.071-.071h7.921a.567.567,0,0,0,.453-.227l2.749-3.664a.85.85,0,0,0,.439-1.526Z" transform="translate(-1634.997 -435.729)" fill="#e4d46b"/>
        <path id="Path_9107" data-name="Path 9107" d="M1759.687,476.568a.842.842,0,0,0-.611-.327l-1.223-1.589a.842.842,0,0,0-.158-.674.853.853,0,1,0-1.352,1.04.843.843,0,0,0,.613.327l1.219,1.585a.85.85,0,1,0,1.511-.362Z" transform="translate(-1659.483 -451.055)" fill="#e4d46b"/>
        <path id="Path_9108" data-name="Path 9108" d="M1841.706,439.983a.847.847,0,0,0-.633.286h-7.17l-2.207-2.207v-14.05a.567.567,0,0,0-.166-.4l-2.056-2.056v-8.087h2.077a.853.853,0,1,0,.071-1.2.984.984,0,0,0-.071.071h-2.644a.567.567,0,0,0-.567.567v8.888a.567.567,0,0,0,.166.4l2.056,2.056V438.3a.568.568,0,0,0,.166.4l2.54,2.539a.567.567,0,0,0,.4.166h7.406a.852.852,0,1,0,.633-1.42Z" transform="translate(-1711.201 -406.917)" fill="#e4d46b"/>
        <path id="Path_9109" data-name="Path 9109" d="M1859.366,412.5h-17.3a.567.567,0,0,0-.4.166l-2.215,2.215h-2.3a.567.567,0,0,0-.567.567v4.545a.855.855,0,1,0,1.134,0v-3.978h1.973a.567.567,0,0,0,.4-.166l2.215-2.215h16.5v4.1h-19.117a.567.567,0,0,0-.567.567v7.618a.567.567,0,0,0,.567.567h15.625v3.628H1846.9l-2.373-2.373a.568.568,0,0,0-.4-.166h-3.592a.853.853,0,1,0-.07,1.2.822.822,0,0,0,.07-.071h3.358l2.373,2.373a.566.566,0,0,0,.4.166h9.209a.567.567,0,0,0,.567-.567v-4.762a.567.567,0,0,0-.567-.567H1840.25v-6.485h19.117a.567.567,0,0,0,.567-.567v-5.238A.567.567,0,0,0,1859.366,412.5Z" transform="translate(-1716.898 -407.24)" fill="#e4d46b"/>
        <path id="Path_9110" data-name="Path 9110" d="M1880.628,465.809a.847.847,0,0,0-.633.286h-3.379a.854.854,0,1,0,0,1.134H1880a.852.852,0,1,0,.633-1.42Z" transform="translate(-1744.726 -445.441)" fill="#e4d46b"/>
        <path id="Path_9111" data-name="Path 9111" d="M1872.081,419.889a.847.847,0,0,0-.633.287h-11.632a.853.853,0,1,0-.071,1.2.892.892,0,0,0,.071-.071h11.632a.852.852,0,1,0,.633-1.42Z" transform="translate(-1732.688 -412.536)" fill="#e4d46b"/>
        <path id="Path_9112" data-name="Path 9112" d="M1862.315,484.124a.849.849,0,0,0-.633.286h-3.361l-2.375-2.373a.566.566,0,0,0-.4-.166h-8.017l-1.255-1.255v-5.547h2.077a.853.853,0,1,0,.071-1.2.819.819,0,0,0-.071.071h-2.644a.567.567,0,0,0-.567.567v6.349a.567.567,0,0,0,.166.4l1.587,1.587a.566.566,0,0,0,.4.166h8.018l2.374,2.373a.566.566,0,0,0,.4.166h3.6a.85.85,0,1,0,.633-1.42Z" transform="translate(-1723.24 -451.058)" fill="#e4d46b"/>
        <path id="Path_9113" data-name="Path 9113" d="M1852.15,469.742h-4.865a.853.853,0,1,0-.071,1.2.8.8,0,0,0,.071-.071h4.3v4.263h-20.469l-3.477-3.477V459.1a.853.853,0,1,0-1.2-.075.815.815,0,0,0,.07.071v12.8a.568.568,0,0,0,.166.4l3.809,3.809a.567.567,0,0,0,.4.166h21.271a.567.567,0,0,0,.567-.567v-5.4a.567.567,0,0,0-.566-.568Z" transform="translate(-1709.682 -439.565)" fill="#e4d46b"/>
      </g>
      <path id="Path_9114" data-name="Path 9114" d="M1995.44,221.937V215.37a3.53,3.53,0,0,1,.142-.986h1.173a2.3,2.3,0,0,0,4.6,0h1.174a3.547,3.547,0,0,1,.142.986v10.178h-7.222v-3.611Zm5.909,0a2.3,2.3,0,1,0-2.3,2.3h0a2.3,2.3,0,0,0,2.3-2.3Z" transform="translate(-574.817 0)" fill="#9a926a"/>
      <path id="Path_9115" data-name="Path 9115" d="M2039.44,221.937V215.37a3.539,3.539,0,0,1,.142-.986h1.173a2.3,2.3,0,0,0,4.6,0h1.174a3.538,3.538,0,0,1,.142.986v6.567a3.62,3.62,0,0,1-3.611,3.611h0A3.623,3.623,0,0,1,2039.44,221.937Zm5.909,0a2.3,2.3,0,1,0-2.3,2.3h0a2.3,2.3,0,0,0,2.3-2.3Z" transform="translate(-606.346 0)" fill="#9a926a"/>
      <path id="Path_9116" data-name="Path 9116" d="M2083.85,221.937V215.37a3.566,3.566,0,0,1,.142-.986h1.173a2.3,2.3,0,0,0,4.6,0h1.173a3.547,3.547,0,0,1,.142.986v6.567a3.621,3.621,0,0,1-3.611,3.611h0A3.623,3.623,0,0,1,2083.85,221.937Zm5.913,0a2.3,2.3,0,1,0-2.3,2.3h0a2.3,2.3,0,0,0,2.3-2.3Z" transform="translate(-638.169 0)" fill="#9a926a"/>
      <path id="Path_9117" data-name="Path 9117" d="M1223.149,338.328v30.9a1.794,1.794,0,0,1-1.788,1.788H1197.21q-1.314.655-2.627,1.312a.79.79,0,0,1-.987-.329.8.8,0,0,1,.658-.986c1.074-.326,1.329-.527,1.312-.658-.031-.278-1.292-.142-1.97-.986a1.8,1.8,0,0,1-.328-.658V339.159a1.491,1.491,0,0,1,.328-.986c.547-.609,1.567-.374,1.641-.658.037-.136-.142-.4-1.312-.986a.624.624,0,1,1,.658-.986l2.3.986h24.479C1221.48,336.54,1222.112,336.554,1223.149,338.328Z" transform="translate(0 -86.648)" fill="#dbddda"/>
      <path id="Path_9118" data-name="Path 9118" d="M1270.221,380.644v-2.3h-1.641v-3.282h1.641v-1.97h3.94l.3-.3.354-.354v-1.97h-1.97v-7.882h1.97v-1.97l-.4-.4-.422-.422h-3.778v-1.805h-1.641V354.7h1.641v-2.3h1.97l.419.777,1.446,2.684.434.811h2.3l.493-.493V376.7l-.411-.411h-2.052l-.445.658-2.007,2.953-.5.74Z" transform="translate(-53.967 -98.902)" fill="#30312e"/>
      <path id="Path_9048-2" data-name="Path 9048" d="M1245.841,486.806a7.961,7.961,0,1,1,7.962-7.961A7.97,7.97,0,0,1,1245.841,486.806Zm0-12.8a4.844,4.844,0,1,0,4.844,4.844A4.849,4.849,0,0,0,1245.841,474Z" transform="translate(-31.968 -183.801)" fill="#e4d46b"/>
      <g id="Group_4703-2" data-name="Group 4703" transform="translate(1245.509 230.902)">
        <rect id="Rectangle_251" data-name="Rectangle 251" width="32.838" height="1.134" transform="translate(70.819 29.34)" fill="#d5dcdc"/>
        <rect id="Rectangle_252" data-name="Rectangle 252" width="32.838" height="1.134" transform="translate(70.819 5.773)" fill="#d5dcdc"/>
        <rect id="Rectangle_253" data-name="Rectangle 253" width="32.838" height="1.134" transform="translate(70.819 7.916)" fill="#d5dcdc"/>
        <rect id="Rectangle_254" data-name="Rectangle 254" width="32.838" height="1.134" transform="translate(70.819 10.059)" fill="#d5dcdc"/>
        <rect id="Rectangle_255" data-name="Rectangle 255" width="32.838" height="1.134" transform="translate(70.819 12.201)" fill="#d5dcdc"/>
        <rect id="Rectangle_256" data-name="Rectangle 256" width="32.838" height="1.134" transform="translate(70.819 14.344)" fill="#d5dcdc"/>
        <rect id="Rectangle_257" data-name="Rectangle 257" width="32.838" height="1.134" transform="translate(70.819 16.487)" fill="#d5dcdc"/>
        <rect id="Rectangle_258" data-name="Rectangle 258" width="32.838" height="1.134" transform="translate(70.819 18.627)" fill="#d5dcdc"/>
        <rect id="Rectangle_259" data-name="Rectangle 259" width="32.838" height="1.134" transform="translate(70.819 20.769)" fill="#d5dcdc"/>
        <rect id="Rectangle_260" data-name="Rectangle 260" width="32.838" height="1.134" transform="translate(70.819 22.912)" fill="#d5dcdc"/>
        <rect id="Rectangle_261" data-name="Rectangle 261" width="32.838" height="1.134" transform="translate(70.819 25.055)" fill="#d5dcdc"/>
        <rect id="Rectangle_262" data-name="Rectangle 262" width="32.838" height="1.134" transform="translate(70.819 27.197)" fill="#d5dcdc"/>
        <rect id="Rectangle_263" data-name="Rectangle 263" width="32.838" height="1.134" transform="translate(70.819 3.633)" fill="#d5dcdc"/>
        <rect id="Rectangle_264" data-name="Rectangle 264" width="1.134" height="32.838" transform="translate(99.63 0.431)" fill="#d5dcdc"/>
        <rect id="Rectangle_265" data-name="Rectangle 265" width="1.134" height="32.838" transform="translate(76.066 0.431)" fill="#d5dcdc"/>
        <rect id="Rectangle_266" data-name="Rectangle 266" width="1.134" height="32.838" transform="translate(78.208 0.431)" fill="#d5dcdc"/>
        <rect id="Rectangle_267" data-name="Rectangle 267" width="1.134" height="32.838" transform="translate(80.351 0.431)" fill="#d5dcdc"/>
        <rect id="Rectangle_268" data-name="Rectangle 268" width="1.134" height="32.838" transform="translate(82.491 0.431)" fill="#d5dcdc"/>
        <rect id="Rectangle_269" data-name="Rectangle 269" width="1.134" height="32.838" transform="translate(84.634 0.431)" fill="#d5dcdc"/>
        <rect id="Rectangle_270" data-name="Rectangle 270" width="1.134" height="32.838" transform="translate(86.777 0.431)" fill="#d5dcdc"/>
        <rect id="Rectangle_271" data-name="Rectangle 271" width="1.134" height="32.838" transform="translate(88.919 0.431)" fill="#d5dcdc"/>
        <rect id="Rectangle_272" data-name="Rectangle 272" width="1.134" height="32.838" transform="translate(91.062 0.431)" fill="#d5dcdc"/>
        <rect id="Rectangle_273" data-name="Rectangle 273" width="1.134" height="32.838" transform="translate(93.202 0.431)" fill="#d5dcdc"/>
        <rect id="Rectangle_274" data-name="Rectangle 274" width="1.134" height="32.838" transform="translate(95.344 0.431)" fill="#d5dcdc"/>
        <rect id="Rectangle_275" data-name="Rectangle 275" width="1.134" height="32.838" transform="translate(97.487 0.431)" fill="#d5dcdc"/>
        <rect id="Rectangle_276" data-name="Rectangle 276" width="1.134" height="32.838" transform="translate(73.923 0.431)" fill="#d5dcdc"/>
        <rect id="Rectangle_277" data-name="Rectangle 277" width="32.838" height="1.134" transform="translate(35.499 29.3)" fill="#d5dcdc"/>
        <rect id="Rectangle_278" data-name="Rectangle 278" width="32.838" height="1.134" transform="translate(35.499 5.734)" fill="#d5dcdc"/>
        <rect id="Rectangle_279" data-name="Rectangle 279" width="32.838" height="1.134" transform="translate(35.499 7.876)" fill="#d5dcdc"/>
        <rect id="Rectangle_280" data-name="Rectangle 280" width="32.838" height="1.134" transform="translate(35.499 10.019)" fill="#d5dcdc"/>
        <rect id="Rectangle_281" data-name="Rectangle 281" width="32.838" height="1.134" transform="translate(35.499 12.162)" fill="#d5dcdc"/>
        <rect id="Rectangle_282" data-name="Rectangle 282" width="32.838" height="1.134" transform="translate(35.499 14.304)" fill="#d5dcdc"/>
        <rect id="Rectangle_283" data-name="Rectangle 283" width="32.838" height="1.134" transform="translate(35.499 16.447)" fill="#d5dcdc"/>
        <rect id="Rectangle_284" data-name="Rectangle 284" width="32.838" height="1.134" transform="translate(35.499 18.587)" fill="#d5dcdc"/>
        <rect id="Rectangle_285" data-name="Rectangle 285" width="32.838" height="1.134" transform="translate(35.499 20.73)" fill="#d5dcdc"/>
        <rect id="Rectangle_286" data-name="Rectangle 286" width="32.838" height="1.134" transform="translate(35.499 22.872)" fill="#d5dcdc"/>
        <rect id="Rectangle_287" data-name="Rectangle 287" width="32.838" height="1.134" transform="translate(35.499 25.015)" fill="#d5dcdc"/>
        <rect id="Rectangle_288" data-name="Rectangle 288" width="32.838" height="1.134" transform="translate(35.499 27.158)" fill="#d5dcdc"/>
        <rect id="Rectangle_289" data-name="Rectangle 289" width="32.838" height="1.134" transform="translate(35.499 3.594)" fill="#d5dcdc"/>
        <rect id="Rectangle_290" data-name="Rectangle 290" width="1.134" height="32.838" transform="translate(64.307 0.391)" fill="#d5dcdc"/>
        <rect id="Rectangle_291" data-name="Rectangle 291" width="1.134" height="32.838" transform="translate(40.742 0.391)" fill="#d5dcdc"/>
        <rect id="Rectangle_292" data-name="Rectangle 292" width="1.134" height="32.838" transform="translate(42.885 0.391)" fill="#d5dcdc"/>
        <rect id="Rectangle_293" data-name="Rectangle 293" width="1.134" height="32.838" transform="translate(45.028 0.391)" fill="#d5dcdc"/>
        <rect id="Rectangle_294" data-name="Rectangle 294" width="1.134" height="32.838" transform="translate(47.171 0.391)" fill="#d5dcdc"/>
        <rect id="Rectangle_295" data-name="Rectangle 295" width="1.134" height="32.838" transform="translate(49.31 0.391)" fill="#d5dcdc"/>
        <rect id="Rectangle_296" data-name="Rectangle 296" width="1.134" height="32.838" transform="translate(51.453 0.391)" fill="#d5dcdc"/>
        <rect id="Rectangle_297" data-name="Rectangle 297" width="1.134" height="32.838" transform="translate(53.596 0.391)" fill="#d5dcdc"/>
        <rect id="Rectangle_298" data-name="Rectangle 298" width="1.134" height="32.838" transform="translate(55.738 0.391)" fill="#d5dcdc"/>
        <rect id="Rectangle_299" data-name="Rectangle 299" width="1.134" height="32.838" transform="translate(57.881 0.391)" fill="#d5dcdc"/>
        <rect id="Rectangle_300" data-name="Rectangle 300" width="1.134" height="32.838" transform="translate(60.024 0.391)" fill="#d5dcdc"/>
        <rect id="Rectangle_301" data-name="Rectangle 301" width="1.134" height="32.838" transform="translate(62.164 0.391)" fill="#d5dcdc"/>
        <rect id="Rectangle_302" data-name="Rectangle 302" width="1.134" height="32.838" transform="translate(38.6 0.391)" fill="#d5dcdc"/>
        <rect id="Rectangle_303" data-name="Rectangle 303" width="32.838" height="1.134" transform="translate(105.93 28.952)" fill="#d5dcdc"/>
        <rect id="Rectangle_304" data-name="Rectangle 304" width="32.838" height="1.134" transform="translate(105.93 5.388)" fill="#d5dcdc"/>
        <rect id="Rectangle_305" data-name="Rectangle 305" width="32.838" height="1.134" transform="translate(105.93 7.53)" fill="#d5dcdc"/>
        <rect id="Rectangle_306" data-name="Rectangle 306" width="32.838" height="1.134" transform="translate(105.93 9.673)" fill="#d5dcdc"/>
        <rect id="Rectangle_307" data-name="Rectangle 307" width="32.838" height="1.134" transform="translate(105.93 11.813)" fill="#d5dcdc"/>
        <rect id="Rectangle_308" data-name="Rectangle 308" width="32.838" height="1.134" transform="translate(105.93 13.956)" fill="#d5dcdc"/>
        <rect id="Rectangle_309" data-name="Rectangle 309" width="32.838" height="1.134" transform="translate(105.93 16.098)" fill="#d5dcdc"/>
        <rect id="Rectangle_310" data-name="Rectangle 310" width="32.838" height="1.134" transform="translate(105.93 18.241)" fill="#d5dcdc"/>
        <rect id="Rectangle_311" data-name="Rectangle 311" width="32.838" height="1.134" transform="translate(105.93 20.384)" fill="#d5dcdc"/>
        <rect id="Rectangle_312" data-name="Rectangle 312" width="32.838" height="1.134" transform="translate(105.93 22.524)" fill="#d5dcdc"/>
        <rect id="Rectangle_313" data-name="Rectangle 313" width="32.838" height="1.134" transform="translate(105.93 24.666)" fill="#d5dcdc"/>
        <rect id="Rectangle_314" data-name="Rectangle 314" width="32.838" height="1.134" transform="translate(105.93 26.809)" fill="#d5dcdc"/>
        <rect id="Rectangle_315" data-name="Rectangle 315" width="32.838" height="1.134" transform="translate(105.93 3.245)" fill="#d5dcdc"/>
        <rect id="Rectangle_316" data-name="Rectangle 316" width="1.134" height="32.837" transform="translate(134.738 0.045)" fill="#d5dcdc"/>
        <rect id="Rectangle_317" data-name="Rectangle 317" width="1.134" height="32.837" transform="translate(111.174 0.045)" fill="#d5dcdc"/>
        <rect id="Rectangle_318" data-name="Rectangle 318" width="1.134" height="32.837" transform="translate(113.316 0.045)" fill="#d5dcdc"/>
        <rect id="Rectangle_319" data-name="Rectangle 319" width="1.134" height="32.837" transform="translate(115.459 0.045)" fill="#d5dcdc"/>
        <rect id="Rectangle_320" data-name="Rectangle 320" width="1.134" height="32.837" transform="translate(117.602 0.045)" fill="#d5dcdc"/>
        <rect id="Rectangle_321" data-name="Rectangle 321" width="1.134" height="32.837" transform="translate(119.744 0.045)" fill="#d5dcdc"/>
        <rect id="Rectangle_322" data-name="Rectangle 322" width="1.134" height="32.837" transform="translate(121.887 0.045)" fill="#d5dcdc"/>
        <rect id="Rectangle_323" data-name="Rectangle 323" width="1.134" height="32.837" transform="translate(124.027 0.045)" fill="#d5dcdc"/>
        <rect id="Rectangle_324" data-name="Rectangle 324" width="1.134" height="32.837" transform="translate(126.17 0.045)" fill="#d5dcdc"/>
        <rect id="Rectangle_325" data-name="Rectangle 325" width="1.134" height="32.837" transform="translate(128.312 0.045)" fill="#d5dcdc"/>
        <rect id="Rectangle_326" data-name="Rectangle 326" width="1.134" height="32.837" transform="translate(130.455 0.045)" fill="#d5dcdc"/>
        <rect id="Rectangle_327" data-name="Rectangle 327" width="1.134" height="32.837" transform="translate(132.598 0.045)" fill="#d5dcdc"/>
        <rect id="Rectangle_328" data-name="Rectangle 328" width="1.134" height="32.837" transform="translate(109.034 0.045)" fill="#d5dcdc"/>
        <rect id="Rectangle_329" data-name="Rectangle 329" width="32.838" height="1.134" transform="translate(141.021 28.906)" fill="#d5dcdc"/>
        <rect id="Rectangle_330" data-name="Rectangle 330" width="32.838" height="1.134" transform="translate(141.021 5.342)" fill="#d5dcdc"/>
        <rect id="Rectangle_331" data-name="Rectangle 331" width="32.838" height="1.134" transform="translate(141.021 7.485)" fill="#d5dcdc"/>
        <rect id="Rectangle_332" data-name="Rectangle 332" width="32.838" height="1.134" transform="translate(141.021 9.628)" fill="#d5dcdc"/>
        <rect id="Rectangle_333" data-name="Rectangle 333" width="32.838" height="1.134" transform="translate(141.021 11.77)" fill="#d5dcdc"/>
        <rect id="Rectangle_334" data-name="Rectangle 334" width="32.838" height="1.134" transform="translate(141.021 13.911)" fill="#d5dcdc"/>
        <rect id="Rectangle_335" data-name="Rectangle 335" width="32.838" height="1.134" transform="translate(141.021 16.053)" fill="#d5dcdc"/>
        <rect id="Rectangle_336" data-name="Rectangle 336" width="32.838" height="1.134" transform="translate(141.021 18.196)" fill="#d5dcdc"/>
        <rect id="Rectangle_337" data-name="Rectangle 337" width="32.838" height="1.134" transform="translate(141.021 20.339)" fill="#d5dcdc"/>
        <rect id="Rectangle_338" data-name="Rectangle 338" width="32.838" height="1.134" transform="translate(141.021 22.481)" fill="#d5dcdc"/>
        <rect id="Rectangle_339" data-name="Rectangle 339" width="32.838" height="1.134" transform="translate(141.021 24.621)" fill="#d5dcdc"/>
        <rect id="Rectangle_340" data-name="Rectangle 340" width="32.838" height="1.134" transform="translate(141.021 26.764)" fill="#d5dcdc"/>
        <rect id="Rectangle_341" data-name="Rectangle 341" width="32.838" height="1.134" transform="translate(141.021 3.2)" fill="#d5dcdc"/>
        <rect id="Rectangle_342" data-name="Rectangle 342" width="1.134" height="32.837" transform="translate(169.548)" fill="#d5dcdc"/>
        <rect id="Rectangle_343" data-name="Rectangle 343" width="1.134" height="32.837" transform="translate(145.981)" fill="#d5dcdc"/>
        <rect id="Rectangle_344" data-name="Rectangle 344" width="1.134" height="32.837" transform="translate(148.124)" fill="#d5dcdc"/>
        <rect id="Rectangle_345" data-name="Rectangle 345" width="1.134" height="32.837" transform="translate(150.267)" fill="#d5dcdc"/>
        <rect id="Rectangle_346" data-name="Rectangle 346" width="1.134" height="32.837" transform="translate(152.409)" fill="#d5dcdc"/>
        <rect id="Rectangle_347" data-name="Rectangle 347" width="1.134" height="32.837" transform="translate(154.552)" fill="#d5dcdc"/>
        <rect id="Rectangle_348" data-name="Rectangle 348" width="1.134" height="32.837" transform="translate(156.695)" fill="#d5dcdc"/>
        <rect id="Rectangle_349" data-name="Rectangle 349" width="1.134" height="32.837" transform="translate(158.834)" fill="#d5dcdc"/>
        <rect id="Rectangle_350" data-name="Rectangle 350" width="1.134" height="32.837" transform="translate(160.977)" fill="#d5dcdc"/>
        <rect id="Rectangle_351" data-name="Rectangle 351" width="1.134" height="32.837" transform="translate(163.12)" fill="#d5dcdc"/>
        <rect id="Rectangle_352" data-name="Rectangle 352" width="1.134" height="32.837" transform="translate(165.263)" fill="#d5dcdc"/>
        <rect id="Rectangle_353" data-name="Rectangle 353" width="1.134" height="32.837" transform="translate(167.405)" fill="#d5dcdc"/>
        <rect id="Rectangle_354" data-name="Rectangle 354" width="1.134" height="32.837" transform="translate(143.841)" fill="#d5dcdc"/>
        <rect id="Rectangle_355" data-name="Rectangle 355" width="32.838" height="1.134" transform="translate(0 29.25)" fill="#d5dcdc"/>
        <rect id="Rectangle_356" data-name="Rectangle 356" width="32.838" height="1.134" transform="translate(0 5.685)" fill="#d5dcdc"/>
        <rect id="Rectangle_357" data-name="Rectangle 357" width="32.838" height="1.134" transform="translate(0 7.828)" fill="#d5dcdc"/>
        <rect id="Rectangle_358" data-name="Rectangle 358" width="32.838" height="1.134" transform="translate(0 9.971)" fill="#d5dcdc"/>
        <rect id="Rectangle_359" data-name="Rectangle 359" width="32.838" height="1.134" transform="translate(0 12.111)" fill="#d5dcdc"/>
        <rect id="Rectangle_360" data-name="Rectangle 360" width="32.838" height="1.134" transform="translate(0 14.253)" fill="#d5dcdc"/>
        <rect id="Rectangle_361" data-name="Rectangle 361" width="32.838" height="1.134" transform="translate(0 16.396)" fill="#d5dcdc"/>
        <rect id="Rectangle_362" data-name="Rectangle 362" width="32.838" height="1.134" transform="translate(0 18.539)" fill="#d5dcdc"/>
        <rect id="Rectangle_363" data-name="Rectangle 363" width="32.838" height="1.134" transform="translate(0 20.681)" fill="#d5dcdc"/>
        <rect id="Rectangle_364" data-name="Rectangle 364" width="32.838" height="1.134" transform="translate(0 22.824)" fill="#d5dcdc"/>
        <rect id="Rectangle_365" data-name="Rectangle 365" width="32.838" height="1.134" transform="translate(0 24.964)" fill="#d5dcdc"/>
        <rect id="Rectangle_366" data-name="Rectangle 366" width="32.838" height="1.134" transform="translate(0 27.107)" fill="#d5dcdc"/>
        <rect id="Rectangle_367" data-name="Rectangle 367" width="32.838" height="1.134" transform="translate(0 3.543)" fill="#d5dcdc"/>
        <rect id="Rectangle_368" data-name="Rectangle 368" width="1.134" height="32.837" transform="translate(28.808 0.343)" fill="#d5dcdc"/>
        <rect id="Rectangle_369" data-name="Rectangle 369" width="1.134" height="32.837" transform="translate(5.243 0.343)" fill="#d5dcdc"/>
        <rect id="Rectangle_370" data-name="Rectangle 370" width="1.134" height="32.837" transform="translate(7.386 0.343)" fill="#d5dcdc"/>
        <rect id="Rectangle_371" data-name="Rectangle 371" width="1.134" height="32.837" transform="translate(9.529 0.343)" fill="#d5dcdc"/>
        <rect id="Rectangle_372" data-name="Rectangle 372" width="1.134" height="32.837" transform="translate(11.672 0.343)" fill="#d5dcdc"/>
        <rect id="Rectangle_373" data-name="Rectangle 373" width="1.134" height="32.837" transform="translate(13.814 0.343)" fill="#d5dcdc"/>
        <rect id="Rectangle_374" data-name="Rectangle 374" width="1.134" height="32.837" transform="translate(15.954 0.343)" fill="#d5dcdc"/>
        <rect id="Rectangle_375" data-name="Rectangle 375" width="1.134" height="32.837" transform="translate(18.097 0.343)" fill="#d5dcdc"/>
        <rect id="Rectangle_376" data-name="Rectangle 376" width="1.134" height="32.837" transform="translate(20.239 0.343)" fill="#d5dcdc"/>
        <rect id="Rectangle_377" data-name="Rectangle 377" width="1.134" height="32.837" transform="translate(22.382 0.343)" fill="#d5dcdc"/>
        <rect id="Rectangle_378" data-name="Rectangle 378" width="1.134" height="32.837" transform="translate(24.525 0.343)" fill="#d5dcdc"/>
        <rect id="Rectangle_379" data-name="Rectangle 379" width="1.134" height="32.837" transform="translate(26.668 0.343)" fill="#d5dcdc"/>
        <rect id="Rectangle_380" data-name="Rectangle 380" width="1.134" height="32.837" transform="translate(3.101 0.343)" fill="#d5dcdc"/>
      </g>
      <path id="Path_9049-2" data-name="Path 9049" d="M1245.841,288.107a7.961,7.961,0,1,1,7.962-7.962A7.971,7.971,0,0,1,1245.841,288.107Zm0-12.805a4.844,4.844,0,1,0,4.844,4.843A4.849,4.849,0,0,0,1245.841,275.3Z" transform="translate(-31.968 -41.418)" fill="#e4d46b"/>
      <path id="Path_9050-2" data-name="Path 9050" d="M2066.332,486.607a7.961,7.961,0,1,1,7.961-7.962A7.97,7.97,0,0,1,2066.332,486.607Zm0-12.805a4.844,4.844,0,1,0,4.844,4.843A4.849,4.849,0,0,0,2066.332,473.8Z" transform="translate(-619.911 -183.658)" fill="#e4d46b"/>
      <path id="Path_9051-2" data-name="Path 9051" d="M2066.332,287.906a7.962,7.962,0,1,1,7.961-7.961A7.97,7.97,0,0,1,2066.332,287.906Zm0-12.805a4.844,4.844,0,1,0,4.844,4.844A4.849,4.849,0,0,0,2066.332,275.1Z" transform="translate(-619.911 -41.274)" fill="#e4d46b"/>
      <rect id="Rectangle_251-2" data-name="Rectangle 251" width="30.539" height="30.539" transform="translate(1317.666 232.503)" fill="#30312e"/>
      <rect id="Rectangle_252-2" data-name="Rectangle 252" width="30.539" height="30.539" transform="translate(1282.343 232.464)" fill="#30312e"/>
      <rect id="Rectangle_253-2" data-name="Rectangle 253" width="30.539" height="30.539" transform="translate(1352.774 232.115)" fill="#30312e"/>
      <rect id="Rectangle_254-2" data-name="Rectangle 254" width="30.539" height="30.539" transform="translate(1387.581 232.07)" fill="#30312e"/>
      <path id="Path_9119" data-name="Path 9119" d="M1431.908,312.225a5.047,5.047,0,0,0-2.214-1.165,7.485,7.485,0,0,0-1.981-.232c-.916-.031-2.14-.048-3.614,0q-.03,7.312-.06,14.628h3.381q.028-2.653.059-5.3a7.693,7.693,0,0,0,1.632-.232,5.617,5.617,0,0,0,3.03-1.633,4.234,4.234,0,0,0-.152-5.986c-.027-.026-.054-.052-.083-.077Zm-2.1,3.262a1.511,1.511,0,0,1-.232.7,2.133,2.133,0,0,1-2.1.584V314.09c1.111-.043,2,.315,2.214.816A1.451,1.451,0,0,1,1429.81,315.487Z" transform="translate(-165.366 -69.088)" fill="#3d3f38"/>
      <path id="Path_9120" data-name="Path 9120" d="M1679,307.015a5.045,5.045,0,0,0-2.214-1.165,7.48,7.48,0,0,0-1.981-.232c-.915-.031-2.14-.048-3.614,0q-.03,7.312-.059,14.628h3.381q.03-2.653.059-5.3a7.7,7.7,0,0,0,1.633-.232,5.618,5.618,0,0,0,3.03-1.633,4.233,4.233,0,0,0-.152-5.986Q1679.04,307.053,1679,307.015Zm-2.1,3.265a1.512,1.512,0,0,1-.232.7,2.132,2.132,0,0,1-2.1.584v-2.681c1.111-.043,2,.315,2.214.816A1.519,1.519,0,0,1,1676.9,310.28Z" transform="translate(-342.425 -65.354)" fill="#dbddda"/>
      <path id="Path_9121" data-name="Path 9121" d="M1554.01,305.334h3.265v14.8h-3.265Z" transform="translate(-258.499 -65.172)" fill="#dbddda"/>
      <path id="Path_9122" data-name="Path 9122" d="M1792.15,305.124v14.8l8.741.116v-3.387l-5.362.009v-2.914h5.479V310.37h-5.479v-1.633h5.479v-3.5Q1796.581,305.185,1792.15,305.124Z" transform="translate(-429.144 -65.022)" fill="#dbddda"/>
      <path id="Path_9123" data-name="Path 9123" d="M1926.479,321.1l-3.846-5.827a5.05,5.05,0,0,0,1.819-1.338,4.268,4.268,0,0,0-.155-6.034l-.08-.074a5.089,5.089,0,0,0-2.231-1.173,7.576,7.576,0,0,0-2-.235c-.921-.031-2.157-.048-3.642,0q-.03,7.372-.06,14.741h3.407q.013-1.951.023-3.906,1.284,1.922,2.565,3.846Zm-6.725-11.391c1.119-.042,2.009.317,2.23.822a1.48,1.48,0,0,1,.116.587,1.517,1.517,0,0,1-.236.706,2.145,2.145,0,0,1-2.114.587Q1919.755,311.058,1919.754,309.708Z" transform="translate(-518.1 -65.928)" fill="#dbddda"/>
      <rect id="Rectangle_255-2" data-name="Rectangle 255" width="30.539" height="30.539" transform="translate(1246.844 232.413)" fill="#30312e"/>
      <path id="Path_9124" data-name="Path 9124" d="M1427.7,307.415a5.047,5.047,0,0,0-2.214-1.165,7.485,7.485,0,0,0-1.981-.232c-.916-.031-2.14-.048-3.614,0q-.028,7.312-.06,14.628h3.382q.029-2.653.059-5.3a7.676,7.676,0,0,0,1.632-.232,5.62,5.62,0,0,0,3.03-1.633,4.234,4.234,0,0,0-.153-5.986l-.083-.077Zm-2.1,3.262a1.514,1.514,0,0,1-.232.7,2.133,2.133,0,0,1-2.1.584V309.28c1.111-.042,2,.315,2.213.816A1.516,1.516,0,0,1,1425.6,310.677Z" transform="translate(-162.349 -65.641)" fill="#dbddda"/>
    </g>
    <rect id="Rectangle_405" data-name="Rectangle 405" width="146.201" height="105.043" rx="8.052" transform="translate(291.545 13.998)" fill="#2b3840"/>
  </g>
</svg>
