<svg xmlns="http://www.w3.org/2000/svg" width="274" height="274" viewBox="0 0 274 274">
  <g id="Group_10288" data-name="Group 10288" transform="translate(-443.787 -273.561)">
    <g id="Rectangle_410" data-name="Rectangle 410" transform="translate(443.787 273.561)" fill="none" stroke="#e6e6e6" stroke-width="2">
      <rect width="274" height="274" rx="24" stroke="none"/>
      <rect x="1" y="1" width="272" height="272" rx="23" fill="none"/>
    </g>
    <g id="mars_rover_painting" transform="translate(462.664 311.486)">
      <ellipse id="Ellipse_358" data-name="Ellipse 358" cx="21.597" cy="37.678" rx="21.597" ry="37.678" transform="translate(103.337 137.728)" fill="rgba(0,92,185,0.73)"/>
      <rect id="Rectangle_707" data-name="Rectangle 707" width="16.081" height="47.862" transform="translate(132.911 102.171)" fill="rgba(255,255,255,0.74)"/>
      <path id="Path_22489" data-name="Path 22489" d="M25.829,10.95a8,8,0,0,0-8.019,8.062v15.7a8.022,8.022,0,0,0,8.062,8.019H63.635a8.049,8.049,0,0,0,8.019-8.062v-15.7a8.022,8.022,0,0,0-8.062-8.019H25.829ZM34.1,15.108A11.668,11.668,0,1,1,22.435,26.777,11.668,11.668,0,0,1,34.1,15.108Z" transform="translate(96.092 58.083)" fill="#fff"/>
      <circle id="Ellipse_359" data-name="Ellipse 359" cx="10.608" cy="10.608" r="10.608" transform="translate(119.587 74.252)" fill="#005cb9"/>
      <path id="Path_22490" data-name="Path 22490" d="M25.851,13.62c-2.906,0-5.261,2.793-5.261,6.237a7.268,7.268,0,0,0,.339,2.122,7.282,7.282,0,0,1,3.522-.849c2.49-.005,4.685,1.136,5.389,2.8a6.958,6.958,0,0,0,1.273-4.073c0-3.445-2.356-6.237-5.261-6.237Z" transform="translate(105.107 66.742)" fill="#fff"/>
      <path id="Path_22491" data-name="Path 22491" d="M20.48,17.292c2.673-4.031,4.837-3.819,8.486-3.182C25.487,11.31,22.3,12.5,20.48,17.292Z" transform="translate(104.751 63.494)" fill="#fff" fill-rule="evenodd"/>
      <rect id="Rectangle_708" data-name="Rectangle 708" width="137.602" height="6.619" rx="0.53" transform="translate(89.886 151.561)" fill="#fff"/>
      <path id="Path_22492" data-name="Path 22492" d="M16,32.4,28.517,42.88,28.9,56.8c-.085,2.461.976,3.055,2.419,2.97l64.282.127L96.194,32.4Z" transform="translate(90.222 127.647)" fill="#fff" fill-rule="evenodd"/>
      <path id="Path_22493" data-name="Path 22493" d="M42.639,28.11a8.177,8.177,0,0,1-12.941.806L13.15,53.95h10.4L36.317,33.584,50.956,56.369a8.032,8.032,0,0,1,7.213-5.261Z" transform="translate(80.979 113.734)" fill="#005cb9" fill-rule="evenodd"/>
      <circle id="Ellipse_360" data-name="Ellipse 360" cx="7.425" cy="7.425" r="7.425" transform="translate(132.444 166.539)" fill="#005cb9"/>
      <circle id="Ellipse_361" data-name="Ellipse 361" cx="7.425" cy="7.425" r="7.425" transform="translate(109.744 128.733)" fill="#005cb9"/>
      <g id="Group_9876" data-name="Group 9876" transform="translate(82.347 164.582)">
        <rect id="Rectangle_709" data-name="Rectangle 709" width="25.94" height="16.168" rx="0.936" transform="translate(0 0)" fill="#fff"/>
        <ellipse id="Ellipse_362" data-name="Ellipse 362" cx="5.11" cy="5.397" rx="5.11" ry="5.397" transform="translate(2.719 2.634)" fill="#005cb9"/>
      </g>
      <ellipse id="Ellipse_363" data-name="Ellipse 363" cx="21.597" cy="37.678" rx="21.597" ry="37.678" transform="translate(179.712 137.728)" fill="#005cb9"/>
      <ellipse id="Ellipse_364" data-name="Ellipse 364" cx="14.978" cy="27.537" rx="14.978" ry="27.537" transform="translate(187.307 147.657)" fill="rgba(255,255,255,0.26)"/>
      <path id="Path_22494" data-name="Path 22494" d="M30.87,22.7V73.871h3.819V22.7a4.508,4.508,0,0,1-3.819,0Z" transform="translate(138.446 96.189)" fill="rgba(255,255,255,0.74)"/>
      <circle id="Ellipse_365" data-name="Ellipse 365" cx="4.243" cy="4.243" r="4.243" transform="translate(166.982 109.979)" fill="#005cb9"/>
      <circle id="Ellipse_366" data-name="Ellipse 366" cx="53.002" cy="53.002" r="53.002" transform="translate(-11.82 -6.96)" fill="rgba(255,255,255,0.69)"/>
      <circle id="Ellipse_367" data-name="Ellipse 367" cx="10.608" cy="10.608" r="10.608" transform="translate(34.302 63.857)" fill="rgba(0,92,185,0.19)"/>
      <ellipse id="Ellipse_368" data-name="Ellipse 368" cx="3.607" cy="6.28" rx="3.607" ry="6.28" transform="translate(79.788 42.769)" fill="rgba(0,92,185,0.19)"/>
      <ellipse id="Ellipse_369" data-name="Ellipse 369" cx="6.407" cy="5.431" rx="6.407" ry="5.431" transform="translate(54.61 22.899) rotate(24.98)" fill="rgba(0,92,185,0.19)"/>
    </g>
  </g>
</svg>
