<svg xmlns="http://www.w3.org/2000/svg" width="274" height="274" viewBox="0 0 274 274">
  <g id="Group_10286" data-name="Group 10286" transform="translate(-122.787 -273.561)">
    <g id="Rectangle_410" data-name="Rectangle 410" transform="translate(122.787 273.561)" fill="none" stroke="#707070" stroke-width="2" opacity="0.381">
      <rect width="274" height="274" rx="24" stroke="none"/>
      <rect x="1" y="1" width="272" height="272" rx="23" fill="none"/>
    </g>
    <g id="speed_painting" transform="translate(145.896 132.664)">
      <path id="Path_22481" data-name="Path 22481" d="M40.48,274.773l9.468,20.906c19.7-7.257,46.995-20.215,65.1-44.231L91.933,238.87c-11.541,17.9-36.456,31.272-51.453,35.937Z" transform="translate(74.5 74.132)" fill="#fff" fill-rule="evenodd"/>
      <path id="Path_22482" data-name="Path 22482" d="M56.36,264.834l25.847,9.122c7.879-12.371,13.822-30.339,10.712-47.617l-27.3,1.935C67.729,242.2,62.165,256.023,56.36,264.834Z" transform="translate(113.494 43.365)" fill="rgba(255,255,255,0.82)" fill-rule="evenodd"/>
      <path id="Path_22483" data-name="Path 22483" d="M69.672,248.987l26.262-4.216c-2.626-9.192-12.232-24.016-20.18-29.441L54.33,225.005C62.1,230.776,67.53,240.832,69.672,248.987Z" transform="translate(108.509 16.33)" fill="rgba(255,255,255,0.67)" fill-rule="evenodd"/>
      <path id="Path_22484" data-name="Path 22484" d="M66.49,233.118l19.731-10.367c-5.771-4.388-18.452-10.263-22.461-11.921L48.21,222.855A72.56,72.56,0,0,1,66.49,233.118Z" transform="translate(93.481 5.28)" fill="rgba(255,255,255,0.51)" fill-rule="evenodd"/>
      <path id="Path_22485" data-name="Path 22485" d="M62.872,226.591l14.444-12.233a117.14,117.14,0,0,0-27.644-5.529L40.93,221.546C46.977,222.1,57.862,224.242,62.872,226.591Z" transform="translate(75.605 0.369)" fill="rgba(255,255,255,0.35)" fill-rule="evenodd"/>
      <path id="Path_22486" data-name="Path 22486" d="M51.249,229.858c.946,4.515-3.636,9.7-10.263,11.61-6.631,1.892-12.8-.206-13.822-4.7-.982-4.514,3.59-9.719,10.228-11.645,6.631-1.892,12.8.206,13.822,4.7Z" transform="translate(41.477 38.671)" fill="#005cb9"/>
      <path id="Path_22487" data-name="Path 22487" d="M27.24,242.591l82.932,66.1L50.115,224.38C61.1,237.027,42.859,250.573,27.24,242.591Z" transform="translate(41.989 38.552)" fill="#005cb9" fill-rule="evenodd"/>
      <path id="Path_22488" data-name="Path 22488" d="M10.14,247.348l9.468,7.6c15.93-15.273,48.066-35.384,93.264-33.795l7.913-12.44c-36.076-.691-75.848,8.708-110.645,38.633Z" transform="translate(0 0)" fill="rgba(255,255,255,0.2)" fill-rule="evenodd"/>
    </g>
  </g>
</svg>
