<svg xmlns="http://www.w3.org/2000/svg" width="274" height="274" viewBox="0 0 274 274">
  <g id="Group_10287" data-name="Group 10287" transform="translate(-764.787 -273.561)">
    <g id="Rectangle_410" data-name="Rectangle 410" transform="translate(764.787 273.561)" fill="none" stroke="#707070" stroke-width="2">
      <rect width="274" height="274" rx="24" stroke="none"/>
      <rect x="1" y="1" width="272" height="272" rx="23" fill="none"/>
    </g>
    <g id="air_guitar_painting" transform="translate(791.1 311.8)">
      <path id="Path_22495" data-name="Path 22495" d="M52.061-.8a33.808,33.808,0,0,0,30.91,26.563c13.04.966,26.08-3.864,32.842-14.489a19.319,19.319,0,0,0,2.415-8.693ZM.383,44.6c15.455,9.659,35.74,18.353,54.576,30.91l4.83,3.381.483,1.932,2.9,22.217v2.415l13.04,95.628-9.659,8.693,130.4,1.449c-5.313-7.245-14.489-14.972-23.666-20.768a149.717,149.717,0,0,0-28.5-12.074l-.966-11.108-1.449-35.257q20.065-11.135,39.6-23.183c4.83-2.9,10.625-9.659,11.591-13.04l.483-4.83c0-4.83-4.83-13.04-9.659-15.455-2.9-.966-8.693-1.449-10.142-.483-14.972,9.659-29.461,17.87-33.808,20.285l-.966-20.768v-.966q-2.466-10.129-4.83-20.284c-3.864-6.762-13.523-12.558-28.012-14.49-12.557-1.932-32.359-.966-39.6,1.932l-2.415.966-6.762-4.347C40.47,27.212,11.491,13.206-.1,6.928Z" transform="translate(0 0)" fill="#fff"/>
      <path id="Path_22496" data-name="Path 22496" d="M40.528,169.427A44.029,44.029,0,0,1,16.38,158.8a38.638,38.638,0,0,1,1.449-56.508c5.313-4.83,10.625-7.245,24.149-9.659,7.728-1.449,11.108-2.415,14.489-3.864,4.83-2.9,7.245-4.83,9.176-12.557l1.932-6.279c1.932-3.381,7.245-7.245,12.557-9.176a33.808,33.808,0,0,1,25.115.966l1.932.966,14.489-13.523,14.006-13.523V32.263c0-5.313.966-6.279,11.591-16.421C157.89,6.183,158.373,5.7,164.169,5.7c4.83,0,5.8,0,9.176,2.415,2.9,2.415,5.313,7.728,4.83,11.591,0,4.83-1.932,6.279-11.591,15.455-11.108,9.659-11.591,10.625-17.387,10.625h-3.381L131.81,58.827,117.8,72.35l.966,1.449,3.864,10.625c.966,7.728-1.932,15.938-7.245,22.217-2.415,2.9-4.83,3.864-13.04,6.279-7.245,1.932-9.659,2.9-12.074,4.83-3.381,3.864-4.83,8.211-5.8,19.319a38.638,38.638,0,0,1-4.347,15.938,39.121,39.121,0,0,1-22.7,15.455,40.087,40.087,0,0,1-16.9.966Zm3.864-21.251,2.9-2.9-1.932-1.932-2.415-2.415,24.149-22.7q16.979-15.1,32.842-31.393l27.529-25.115A193.19,193.19,0,0,1,154.993,36.61c1.449.966,4.347,0,4.347-1.449,0-.966-1.449-1.932-2.415-1.932L127.946,59.793,99.934,86.356l-.966-1.932a2.156,2.156,0,0,0-1.449-1.932c0-.966,2.415-3.864,26.563-26.08,25.115-24.149,26.563-25.6,27.529-24.632h1.449a2.078,2.078,0,0,0,1.932-1.932c0-.966-1.449-1.932-2.415-1.932l-28.5,26.563L96.553,81.044l-2.415-.966-1.932-.966,28.012-26.563,28.5-26.08a2.674,2.674,0,0,0,3.381-3.864c0-.966-2.415-1.932-3.381-1.449-1.449,0-2.415,1.932-1.932,3.381,0,.966,0,1.449-28.012,28.012Q99.812,69.032,82.547,87.322L58.4,109.539l-24.149,22.7-2.9-2.415-2.9-2.415-2.9,2.9-2.9,2.9,9.176,8.693,9.659,8.693,2.9-2.415Zm-2.415-7.245h.966v.483h-.966Zm-1.449-2.415L38.6,136.585l23.183-21.734L84.962,93.118l1.449.966,2.9,1.449Q66.3,118.417,42.46,140.449l-1.932-1.932Zm-2.9-1.449v-.483H38.6l-.483.483H37.63Zm-1.449-2.415c-.483-.483-1.449-1.449-1.932-.966l-.483-.483v-.483c.966,0,5.8-4.347,25.115-22.217L82.547,88.288l.483,1.449c.966,2.9.966,2.9,7.728-2.9,2.9-3.381,5.8-5.8,5.8-5.313Q78.289,97.251,61.3,114.368L38.113,136.1l-1.932-1.449Zm60.371-40.57c1.449-1.449,3.381-4.347,3.381-5.313,0,0-1.449.483-4.347,3.381l-3.864,3.864,1.449-.483,3.381-1.449ZM89.791,79.595c0-.483-3.381.483-4.347,1.449a8.665,8.665,0,0,0-2.9,4.83l3.864-2.9,3.381-3.381Z" transform="translate(18.777 24.893)" fill="rgba(0,92,185,0.5)"/>
    </g>
  </g>
</svg>
