<svg xmlns="http://www.w3.org/2000/svg" width="274" height="274" viewBox="0 0 274 274">
  <g id="Group_10290" data-name="Group 10290" transform="translate(-1406.787 -273.561)">
    <g id="Rectangle_410" data-name="Rectangle 410" transform="translate(1406.787 273.561)" fill="none" stroke="#707070" stroke-width="2">
      <rect width="274" height="274" rx="24" stroke="none"/>
      <rect x="1" y="1" width="272" height="272" rx="23" fill="none"/>
    </g>
    <g id="race_painting" transform="translate(1424.614 118.234)">
      <path id="Path_22502" data-name="Path 22502" d="M88.29,207.76c-13.684.16-27.688-.16-40.732,5,4.561,11.924,8.723,24.127,13.6,35.931h.56l.84-.4a141.161,141.161,0,0,1,39.172-9.123c-4.4-10.483-9.043-20.886-13.444-31.409Zm74.142.2a97.829,97.829,0,0,1-30.049,15.085c3.6,12.4,8.242,24.807,12.484,37.091l1.36-.52c10.363-4.081,20.806-9.563,28.969-17.885-4.4-11.2-8.4-22.567-12.8-33.77Zm-17.605,52.176c-6.322,2.481-11.724,5.4-21.046,6.522l18.085,42.093c7.482-1.881,16.845-7.482,16.845-7.482Zm13.884,41.132c3.8,11.844,7.962,23.567,11.964,35.331l3.761-2.241c9.523-6.322,20.406-13.164,26.328-23.607L188.72,279.5A112.958,112.958,0,0,1,158.711,301.268ZM60.841,249.133A146.641,146.641,0,0,0,22.67,273.42c5.642,15.6,10.923,31.73,17.125,46.934l1.6-1.44a210.547,210.547,0,0,1,37.611-25.088C73.005,278.942,67.2,263.817,60.841,249.133Zm56.457,31.93a146.454,146.454,0,0,0-37.851,13.084c4.881,12.844,9.8,25.808,15.085,38.412l.8-.56,1.68-1.2a132.317,132.317,0,0,1,34.811-18.165Z" transform="translate(17.167 9.094)" fill="#fff" fill-rule="evenodd"/>
      <path id="Path_22503" data-name="Path 22503" d="M71.046,388.345Q43.978,314.763,16.95,241.1c25.408-24.887,60.138-33.81,92.948-31.69,15.245,36.291,30.129,72.822,45.454,109.073,7.6-.4,20.526-8.122,20.526-8.122l-13.844-41.132c-6.362,2.481-11.764,5.4-21.086,6.522l-17.805-43.573c17.565-4.681,45.454-13.284,59.218-27.448,14.8,38.572,28.889,77.7,43.253,116.555-11.043,18.045-29.209,28.288-46.494,36.811-15.125,6.042-32.77,13.044-48.255,4.8-16.125-16.805,30.929-41.533,21.006-15.885-1.6,4.8-7.682,13.844-1.2,5.722,7.2-6,16.965-27.608.56-23.607-23.327,7.322-43.853,23.407-62.579,40.532C82.41,374.861,76.088,384.344,71.046,388.345ZM191.6,343.452c9.523-6.322,20.406-13.124,26.328-23.607L205.887,288.6a112.958,112.958,0,0,1-30.009,21.767c3.8,11.844,7.962,23.567,11.964,35.331l3.761-2.241Zm-77.423-3.521a132.324,132.324,0,0,1,34.811-18.165L134.465,290.2A146.455,146.455,0,0,0,96.614,303.28c4.881,12.844,9.8,25.808,15.085,38.412l.8-.56ZM58.563,328.047a210.546,210.546,0,0,1,37.611-25.088c-6-14.884-11.8-30.009-18.166-44.693a146.643,146.643,0,0,0-38.171,24.287c5.642,15.6,10.923,31.73,17.125,46.934l1.6-1.44Zm104.832-59.338c10.363-4.081,20.806-9.563,28.969-17.885-4.4-11.2-8.4-22.567-12.8-33.77a97.828,97.828,0,0,1-30.009,15.085c3.6,12.4,8.242,24.807,12.484,37.091ZM79.729,257.426a141.164,141.164,0,0,1,39.172-9.163c-4.4-10.483-9.043-20.886-13.444-31.409-13.684.16-27.688-.16-40.732,5,4.561,11.924,8.723,24.127,13.6,35.931h.56l.84-.4Z" transform="translate(0 0)" fill="rgba(255,255,255,0.3)"/>
      <path id="Path_22504" data-name="Path 22504" d="M17.21,221.412l4.961-5.282L78.308,370.576l-17.045-2.8Z" transform="translate(0.78 34.214)" fill="#005cb9" fill-rule="evenodd"/>
    </g>
  </g>
</svg>
