<svg xmlns="http://www.w3.org/2000/svg" width="274" height="274" viewBox="0 0 274 274">
  <g id="Group_10289" data-name="Group 10289" transform="translate(-1085.787 -273.561)">
    <g id="Rectangle_410" data-name="Rectangle 410" transform="translate(1085.787 273.561)" fill="none" stroke="#707070" stroke-width="2">
      <rect width="274" height="274" rx="24" stroke="none"/>
      <rect x="1" y="1" width="272" height="272" rx="23" fill="none"/>
    </g>
    <g id="soil_sensor_painting" transform="translate(1118 332.5)">
      <path id="Path_22497" data-name="Path 22497" d="M56.967,73.458c-.857-6.853-1.713-11.993-.857-13.277V58.039l-6,4.283-.857.428,3-3c4.283-3,4.283-3.426,3.426-9.851-.428-3.855-.857-5.568,0-7.71V40.907H47.115v2.142c-.428,2.142-.857,2.57-3.426,3.426-2.57,1.285-2.57.857,0,0,.857-1.285,1.713-1.713,1.713-3,.857-2.57.857-2.57-2.57-2.57H39.406l-.428,2.142c-.857,3-1.285,4.283-3,5.568-1.713,2.142-1.713,2.57,2.142,9.851,3,5.14,4.711,9.423,3.855,8.566h-.428l-3.426-6.853-3.426-6v6.853l-.857-4.283V51.186c0-.857,0-.857-.857,0l-2.57,3.426a12.22,12.22,0,0,1-3,3.426L25.7,58.9l1.713-1.285,2.57-3.426a16.17,16.17,0,0,1,4.283-5.14c1.713-2.142,2.57-3,3-5.14l.857-3H33.838l-4.283-.428-2.57,2.142-3.426,3.426c-.857,1.713-2.57,7.71-2.57,9.423,0,2.142-.857,3.855-3,4.283-2.57,1.285-2.57.857-.428,0,1.713-1.285,2.142-1.285,2.57-4.283,0-1.713,0-1.713-.857-1.285l-3.426,1.285q-5.386.64-10.708,1.713l11.993-3c2.142-.428,3-1.285,4.283-5.568.857-3,1.285-3.855,3.855-6l2.57-2.57H25.7c0-6,50.54-8.138,50.112-1.285l-7.281.857,1.713,1.285c2.57,1.713,7.71,2.142,10.279,1.285s6.853-.857,12.849,0c5.14.428,6,1.285.857.857-8.994-.428-12.849-.857-13.706-.428-.857,0-.428,0,.428.857.857,0,2.57,1.285,3.426,2.142L87.8,47.76l2.57.857h-.428c-3.426,0-4.283-.428-6-2.142-2.57-2.142-3.426-2.142-7.709-2.57-3.855-.428-5.568-1.285-7.281-3-.857-.857-1.285-.857-3-.857H63.819l3.426,8.566c3,3.426,3.426,4.283,3.426,8.566.428,4.283.857,4.711,4.711,6.853l8.566,4.283a6.264,6.264,0,0,1-3.426-1.285l-5.568-2.57c-4.283-1.285-5.14-2.57-5.568-7.709,0-4.283,0-4.283-2.57-7.71a17.849,17.849,0,0,1-3.426-7.709c0-1.285,0-1.285-3.426-.857l-3.426.428v6a119.927,119.927,0,0,1,.428,18.417L57.823,75.6l-.857-1.713ZM21.417,64.036V57.611l.428,2.57a4.692,4.692,0,0,1,0,3.426V65.32Zm60.391-3.426a25.7,25.7,0,0,0-6-.857h-2.57c1.285-1.285,7.281-.857,9.851,0l4.283,1.285h0ZM47.544,50.33c-.857-2.57-.857-6,0-5.568.428,1.285.857,5.14,0,6V50.33Zm-32.551,0H9.425L3,49.473H7.283a27.411,27.411,0,0,1,11.564,1.713H15.421Z" transform="translate(19.698 114.925)" fill="#fff"/>
      <path id="Path_22498" data-name="Path 22498" d="M-2.572,38.579C5.994,31.3,120.78,30.441,222.717,37.294,134.058,51.428-.858,49.286-3,38.579Z" transform="translate(0 108.687)" fill="#005cb9" fill-rule="evenodd"/>
      <path id="Path_22499" data-name="Path 22499" d="M57.95,145.922l1.713-49.683-2.142-4.711-4.283-8.138-3.426-7.281v-.857l.857.857A167.9,167.9,0,0,1,61.376,91.1q3.174-10.386,5.568-20.987l.857-.428V73.11a122.925,122.925,0,0,1-1.713,13.706l2.142-3.426c3.855-5.568,6.853-9.423,6.853-8.566l-1.713,4.283C68.657,87.672,68.657,88.1,67.8,92.384l-1.713,33.408-.857,19.7Zm-14.134-68.1A47.97,47.97,0,0,1,6.125,58.548L1.413,51.695C-.3,49.982-.728,49.982.128,49.125,2.7,44.842,9.551,42.272,16.4,42.272c11.993,0,23.557,6.853,29.981,17.989A28.849,28.849,0,0,1,49.812,73.11v2.142l-1.285-1.713c-2.57-3.426-8.994-9.423-11.993-11.993a32.906,32.906,0,0,0-10.279-5.14c-3.855-1.285-4.283-.857-1.285,0,8.138,3,15.847,9.851,22.272,19.274,1.285,1.713,1.285,2.142.857,2.142ZM21.544,55.978h0Zm54.823,20.13,7.709-9.851a67.1,67.1,0,0,1,10.708-8.566l8.566-3a33.811,33.811,0,0,0-9.851,3c-5.568,2.57-10.279,6.425-17.132,14.134l-1.713,1.713V71.825c0-5.14,3-11.993,6.853-17.132a34.264,34.264,0,0,1,21.415-12.849c3.855-.857,10.279-.428,13.706.428a18.54,18.54,0,0,1,7.71,5.14l.857,1.285-2.142,2.142-5.14,6A47.113,47.113,0,0,1,103.35,70.54c-5.568,3-10.279,4.283-19.274,5.568-5.14.857-8.138.857-7.71,0ZM58.806,66.257a65.531,65.531,0,0,1-17.989-30.41q-2.57-9.637-1.285-24.413V.3h.857A17.132,17.132,0,0,1,48.955-.13,29.252,29.252,0,0,1,64.8,9.293a44.972,44.972,0,0,1,4.283,58.25L67.8,69.255V65.829c0-3.855,0-12.849-.857-17.132a64.246,64.246,0,0,0-4.283-13.277A32.663,32.663,0,0,0,56.236,25.14l-1.285-1.285.857,1.285a55.68,55.68,0,0,1,8.566,36.834c0,6,0,8.566-.857,8.566l-4.283-4.283Z" transform="translate(8.864 0.059)" fill="#fff"/>
      <path id="Path_22500" data-name="Path 22500" d="M24.9,68.9H99.854V86.029H24.9Zm0-25.7H99.854V60.331H24.9Zm0-25.7H99.854V34.632H24.9Z" transform="translate(91.597 59.095)" fill="rgba(255,255,255,0.5)"/>
      <path id="Path_22501" data-name="Path 22501" d="M24.9,50.9H99.854V68.029H24.9Zm0-25.7H99.854V42.331H24.9Zm0-25.7H99.854V16.632H24.9Z" transform="translate(91.597)" fill="rgba(0,92,185,0.5)"/>
    </g>
  </g>
</svg>
